%TF.GenerationSoftware,KiCad,Pcbnew,6.0.0-rc1-unknown-994a9c5~65~ubuntu18.04.1*%
%TF.CreationDate,2018-07-25T16:15:22+03:00*%
%TF.ProjectId,counter-pneumatic-v1-G368,636F756E7465722D706E65756D617469,rev?*%
%TF.SameCoordinates,Original*%
%TF.FileFunction,Copper,L2,Bot,Signal*%
%TF.FilePolarity,Positive*%
%FSLAX46Y46*%
G04 Gerber Fmt 4.6, Leading zero omitted, Abs format (unit mm)*
G04 Created by KiCad (PCBNEW 6.0.0-rc1-unknown-994a9c5~65~ubuntu18.04.1) date Wed Jul 25 16:15:22 2018*
%MOMM*%
%LPD*%
G01*
G04 APERTURE LIST*
%ADD10C,0.150000*%
%ADD11C,1.800000*%
%ADD12C,1.000000*%
%ADD13C,1.300000*%
%ADD14R,1.300000X1.300000*%
%ADD15O,1.700000X1.700000*%
%ADD16R,1.700000X1.700000*%
%ADD17C,1.500000*%
%ADD18R,1.800000X1.800000*%
%ADD19C,2.400000*%
%ADD20O,2.400000X2.400000*%
%ADD21C,0.800000*%
%ADD22C,0.800000*%
%ADD23C,0.400000*%
%ADD24C,0.254000*%
G04 APERTURE END LIST*
D10*
X185420000Y-22860000D02*
X185420000Y-154940000D01*
X256540000Y-22860000D02*
X185420000Y-22860000D01*
X256540000Y-154940000D02*
X256540000Y-22860000D01*
X185420000Y-154940000D02*
X256540000Y-154940000D01*
D11*
X213305000Y-125175000D03*
X209605000Y-130175000D03*
X213305000Y-135175000D03*
D12*
X218435000Y-128778000D03*
X216535000Y-128778000D03*
D13*
X206810000Y-52832000D03*
X204270000Y-52832000D03*
X201730000Y-52832000D03*
D14*
X199190000Y-52832000D03*
D13*
X235367000Y-58795000D03*
X232827000Y-58795000D03*
X230287000Y-58795000D03*
D14*
X227747000Y-58795000D03*
D15*
X226060000Y-86360000D03*
X226060000Y-83820000D03*
X226060000Y-81280000D03*
X226060000Y-78740000D03*
X226060000Y-76200000D03*
D16*
X226060000Y-73660000D03*
D17*
X216970000Y-108585000D03*
X212090000Y-108585000D03*
D15*
X199390000Y-151130000D03*
D16*
X201930000Y-151130000D03*
X241300000Y-147955000D03*
D15*
X241300000Y-150495000D03*
X238760000Y-147955000D03*
X238760000Y-150495000D03*
X236220000Y-147955000D03*
X236220000Y-150495000D03*
D18*
X211455000Y-80010000D03*
D11*
X211455000Y-82550000D03*
D16*
X222250000Y-83820000D03*
D15*
X222250000Y-81280000D03*
D16*
X234950000Y-65405000D03*
D15*
X237490000Y-65405000D03*
X240030000Y-65405000D03*
X242570000Y-65405000D03*
X245110000Y-65405000D03*
X247650000Y-65405000D03*
D19*
X254635000Y-90805000D03*
D20*
X254635000Y-65405000D03*
D21*
X223520000Y-151765000D03*
X230885998Y-151638000D03*
X241554000Y-140335000D03*
X251206000Y-141986000D03*
X213360000Y-153035000D03*
X250698000Y-53086000D03*
X209296000Y-114046000D03*
X221361000Y-109855000D03*
X210947000Y-61087000D03*
X246253000Y-89154000D03*
X223774000Y-68580000D03*
X215646000Y-146939000D03*
X219837000Y-151765000D03*
X196215000Y-81280000D03*
X196850000Y-115570000D03*
X204470000Y-115570000D03*
X201930000Y-70485000D03*
X236220000Y-27940000D03*
X208915000Y-27940000D03*
X218567000Y-52451000D03*
X206629000Y-61976000D03*
X216793583Y-89065010D03*
X218567000Y-78867000D03*
X218567000Y-85725000D03*
X238760000Y-140335000D03*
X235585000Y-140335000D03*
X229108000Y-137668000D03*
X243790000Y-137668000D03*
X231267000Y-138684000D03*
X248720000Y-138684000D03*
X211582000Y-89789000D03*
X216535000Y-52324000D03*
X229743000Y-86487000D03*
X228600000Y-85725000D03*
X223901000Y-56515000D03*
X233807000Y-136652000D03*
X223177010Y-136530807D03*
X220218000Y-114173000D03*
X218059000Y-90551000D03*
X221361000Y-114808000D03*
X222123000Y-89154000D03*
X216662000Y-104013000D03*
X203200000Y-142621000D03*
X220218000Y-87122006D03*
X215092211Y-86821677D03*
X213614000Y-87122000D03*
X220980000Y-107061000D03*
X227457000Y-104140000D03*
X234950000Y-78994000D03*
X221742000Y-91186000D03*
X227711000Y-91313000D03*
X210439000Y-91821000D03*
X188849000Y-58801000D03*
X222250000Y-140589000D03*
X223774000Y-139192000D03*
X223647000Y-98552000D03*
X217424000Y-147574000D03*
X212471000Y-88265000D03*
D22*
X245110000Y-58293000D02*
X245110000Y-65405000D01*
X218567000Y-52451000D02*
X239268000Y-52451000D01*
X239268000Y-52451000D02*
X245110000Y-58293000D01*
X206629000Y-56261000D02*
X206629000Y-61976000D01*
X212725000Y-50165000D02*
X206629000Y-56261000D01*
X218567000Y-52451000D02*
X216281000Y-50165000D01*
X216281000Y-50165000D02*
X212725000Y-50165000D01*
D23*
X218567000Y-78867000D02*
X218567000Y-85725000D01*
X221014989Y-138170532D02*
X221014989Y-118398989D01*
X218186000Y-115570000D02*
X218186000Y-97282000D01*
X221014989Y-118398989D02*
X218186000Y-115570000D01*
X218186000Y-97282000D02*
X216793583Y-95889583D01*
X216793583Y-89630695D02*
X216793583Y-89065010D01*
X216793583Y-95889583D02*
X216793583Y-89630695D01*
X230799457Y-147955000D02*
X221014989Y-138170532D01*
X236220000Y-147955000D02*
X230799457Y-147955000D01*
X238760000Y-140335000D02*
X235585000Y-140335000D01*
X229108000Y-137668000D02*
X243790000Y-137668000D01*
X231267000Y-138684000D02*
X248720000Y-138684000D01*
X211582000Y-82677000D02*
X211455000Y-82550000D01*
X211582000Y-89789000D02*
X211582000Y-82677000D01*
X229743000Y-66548000D02*
X229743000Y-86487000D01*
X225298000Y-62103000D02*
X229743000Y-66548000D01*
X225298000Y-56007000D02*
X225298000Y-62103000D01*
X224409000Y-55118000D02*
X225298000Y-56007000D01*
X216535000Y-52324000D02*
X219329000Y-55118000D01*
X219329000Y-55118000D02*
X224409000Y-55118000D01*
X228600000Y-85725000D02*
X228600000Y-66802000D01*
X228600000Y-66802000D02*
X223901000Y-62103000D01*
X223901000Y-62103000D02*
X223901000Y-56515000D01*
X223298203Y-136652000D02*
X223177010Y-136530807D01*
X233807000Y-136652000D02*
X223298203Y-136652000D01*
X218624685Y-90551000D02*
X218059000Y-90551000D01*
X218878685Y-90297000D02*
X218624685Y-90551000D01*
X228473000Y-90297000D02*
X218878685Y-90297000D01*
X229108000Y-90932000D02*
X228473000Y-90297000D01*
X220218000Y-114173000D02*
X229108000Y-105283000D01*
X229108000Y-105283000D02*
X229108000Y-90932000D01*
X222688685Y-89154000D02*
X222123000Y-89154000D01*
X228600000Y-89154000D02*
X222688685Y-89154000D01*
X229870000Y-90424000D02*
X228600000Y-89154000D01*
X221361000Y-114808000D02*
X229870000Y-106299000D01*
X229870000Y-106299000D02*
X229870000Y-90424000D01*
X216662000Y-104013000D02*
X205486000Y-104013000D01*
X205486000Y-104013000D02*
X201168000Y-108331000D01*
X201168000Y-108331000D02*
X201168000Y-140589000D01*
X201168000Y-140589000D02*
X203200000Y-142621000D01*
X220218000Y-87122006D02*
X222376994Y-87122006D01*
X222376994Y-87122006D02*
X224282000Y-85217000D01*
X224282000Y-80518000D02*
X226060000Y-78740000D01*
X224282000Y-85217000D02*
X224282000Y-80518000D01*
X215392540Y-87122006D02*
X215092211Y-86821677D01*
X220218000Y-87122006D02*
X215392540Y-87122006D01*
X213614000Y-86556315D02*
X217043000Y-83127315D01*
X213614000Y-87122000D02*
X213614000Y-86556315D01*
X217043000Y-83127315D02*
X217043000Y-78359000D01*
X219202000Y-76200000D02*
X226060000Y-76200000D01*
X217043000Y-78359000D02*
X219202000Y-76200000D01*
X220980000Y-107061000D02*
X224536000Y-107061000D01*
X227057001Y-104539999D02*
X227457000Y-104140000D01*
X224536000Y-107061000D02*
X227057001Y-104539999D01*
X234950000Y-65405000D02*
X234950000Y-78994000D01*
X221742000Y-91186000D02*
X227584000Y-91186000D01*
X227584000Y-91186000D02*
X227711000Y-91313000D01*
X188849000Y-67564000D02*
X188849000Y-58801000D01*
X210439000Y-91821000D02*
X210439000Y-89154000D01*
X210439000Y-89154000D02*
X188849000Y-67564000D01*
X223374001Y-138792001D02*
X222866001Y-138792001D01*
X223774000Y-139192000D02*
X223374001Y-138792001D01*
X222866001Y-138792001D02*
X221615000Y-137541000D01*
X221615000Y-137541000D02*
X221615000Y-117475000D01*
X221615000Y-117475000D02*
X218948000Y-114808000D01*
X218948000Y-114808000D02*
X218948000Y-107315000D01*
X218948000Y-107315000D02*
X223647000Y-102616000D01*
X223647000Y-102616000D02*
X223647000Y-98552000D01*
X222250000Y-142748000D02*
X217823999Y-147174001D01*
X217823999Y-147174001D02*
X217424000Y-147574000D01*
X222250000Y-140589000D02*
X222250000Y-142748000D01*
X253435001Y-66604999D02*
X254635000Y-65405000D01*
X231775000Y-88265000D02*
X253435001Y-66604999D01*
X212471000Y-88265000D02*
X231775000Y-88265000D01*
D24*
G36*
X255830001Y-63996539D02*
X255350981Y-63676469D01*
X254815727Y-63570000D01*
X254454273Y-63570000D01*
X253919019Y-63676469D01*
X253312039Y-64082039D01*
X252906469Y-64689019D01*
X252764051Y-65405000D01*
X252878543Y-65980589D01*
X231429133Y-87430000D01*
X230170982Y-87430000D01*
X230329280Y-87364431D01*
X230620431Y-87073280D01*
X230778000Y-86692874D01*
X230778000Y-86281126D01*
X230620431Y-85900720D01*
X230578000Y-85858289D01*
X230578000Y-66630232D01*
X230594357Y-66547999D01*
X230578000Y-66465764D01*
X230578000Y-66465763D01*
X230529552Y-66222199D01*
X230345001Y-65945999D01*
X230275286Y-65899417D01*
X228930869Y-64555000D01*
X233452560Y-64555000D01*
X233452560Y-66255000D01*
X233501843Y-66502765D01*
X233642191Y-66712809D01*
X233852235Y-66853157D01*
X234100000Y-66902440D01*
X234115000Y-66902440D01*
X234115001Y-78365288D01*
X234072569Y-78407720D01*
X233915000Y-78788126D01*
X233915000Y-79199874D01*
X234072569Y-79580280D01*
X234363720Y-79871431D01*
X234744126Y-80029000D01*
X235155874Y-80029000D01*
X235536280Y-79871431D01*
X235827431Y-79580280D01*
X235985000Y-79199874D01*
X235985000Y-78788126D01*
X235827431Y-78407720D01*
X235785000Y-78365289D01*
X235785000Y-66902440D01*
X235800000Y-66902440D01*
X236047765Y-66853157D01*
X236257809Y-66712809D01*
X236398157Y-66502765D01*
X236407184Y-66457381D01*
X236419375Y-66475625D01*
X236910582Y-66803839D01*
X237343744Y-66890000D01*
X237636256Y-66890000D01*
X238069418Y-66803839D01*
X238560625Y-66475625D01*
X238760000Y-66177239D01*
X238959375Y-66475625D01*
X239450582Y-66803839D01*
X239883744Y-66890000D01*
X240176256Y-66890000D01*
X240609418Y-66803839D01*
X241100625Y-66475625D01*
X241313843Y-66156522D01*
X241374817Y-66286358D01*
X241803076Y-66676645D01*
X242213110Y-66846476D01*
X242443000Y-66725155D01*
X242443000Y-65532000D01*
X242423000Y-65532000D01*
X242423000Y-65278000D01*
X242443000Y-65278000D01*
X242443000Y-64084845D01*
X242213110Y-63963524D01*
X241803076Y-64133355D01*
X241374817Y-64523642D01*
X241313843Y-64653478D01*
X241100625Y-64334375D01*
X240609418Y-64006161D01*
X240176256Y-63920000D01*
X239883744Y-63920000D01*
X239450582Y-64006161D01*
X238959375Y-64334375D01*
X238760000Y-64632761D01*
X238560625Y-64334375D01*
X238069418Y-64006161D01*
X237636256Y-63920000D01*
X237343744Y-63920000D01*
X236910582Y-64006161D01*
X236419375Y-64334375D01*
X236407184Y-64352619D01*
X236398157Y-64307235D01*
X236257809Y-64097191D01*
X236047765Y-63956843D01*
X235800000Y-63907560D01*
X234100000Y-63907560D01*
X233852235Y-63956843D01*
X233642191Y-64097191D01*
X233501843Y-64307235D01*
X233452560Y-64555000D01*
X228930869Y-64555000D01*
X226133000Y-61757133D01*
X226133000Y-59080750D01*
X226462000Y-59080750D01*
X226462000Y-59571310D01*
X226558673Y-59804699D01*
X226737302Y-59983327D01*
X226970691Y-60080000D01*
X227461250Y-60080000D01*
X227620000Y-59921250D01*
X227620000Y-58922000D01*
X226620750Y-58922000D01*
X226462000Y-59080750D01*
X226133000Y-59080750D01*
X226133000Y-58018690D01*
X226462000Y-58018690D01*
X226462000Y-58509250D01*
X226620750Y-58668000D01*
X227620000Y-58668000D01*
X227620000Y-57668750D01*
X227874000Y-57668750D01*
X227874000Y-58668000D01*
X227894000Y-58668000D01*
X227894000Y-58922000D01*
X227874000Y-58922000D01*
X227874000Y-59921250D01*
X228032750Y-60080000D01*
X228523309Y-60080000D01*
X228756698Y-59983327D01*
X228935327Y-59804699D01*
X229032000Y-59571310D01*
X229032000Y-59123029D01*
X229197629Y-59522894D01*
X229559106Y-59884371D01*
X230031398Y-60080000D01*
X230542602Y-60080000D01*
X231014894Y-59884371D01*
X231376371Y-59522894D01*
X231557000Y-59086815D01*
X231737629Y-59522894D01*
X232099106Y-59884371D01*
X232571398Y-60080000D01*
X233082602Y-60080000D01*
X233554894Y-59884371D01*
X233916371Y-59522894D01*
X234097000Y-59086815D01*
X234277629Y-59522894D01*
X234639106Y-59884371D01*
X235111398Y-60080000D01*
X235622602Y-60080000D01*
X236094894Y-59884371D01*
X236456371Y-59522894D01*
X236652000Y-59050602D01*
X236652000Y-58539398D01*
X236456371Y-58067106D01*
X236094894Y-57705629D01*
X235622602Y-57510000D01*
X235111398Y-57510000D01*
X234639106Y-57705629D01*
X234277629Y-58067106D01*
X234097000Y-58503185D01*
X233916371Y-58067106D01*
X233554894Y-57705629D01*
X233082602Y-57510000D01*
X232571398Y-57510000D01*
X232099106Y-57705629D01*
X231737629Y-58067106D01*
X231557000Y-58503185D01*
X231376371Y-58067106D01*
X231014894Y-57705629D01*
X230542602Y-57510000D01*
X230031398Y-57510000D01*
X229559106Y-57705629D01*
X229197629Y-58067106D01*
X229032000Y-58466971D01*
X229032000Y-58018690D01*
X228935327Y-57785301D01*
X228756698Y-57606673D01*
X228523309Y-57510000D01*
X228032750Y-57510000D01*
X227874000Y-57668750D01*
X227620000Y-57668750D01*
X227461250Y-57510000D01*
X226970691Y-57510000D01*
X226737302Y-57606673D01*
X226558673Y-57785301D01*
X226462000Y-58018690D01*
X226133000Y-58018690D01*
X226133000Y-56089237D01*
X226149358Y-56007000D01*
X226084552Y-55681199D01*
X225946584Y-55474716D01*
X225900001Y-55404999D01*
X225830283Y-55358415D01*
X225057587Y-54585720D01*
X225011001Y-54515999D01*
X224734801Y-54331448D01*
X224491237Y-54283000D01*
X224491233Y-54283000D01*
X224409000Y-54266643D01*
X224326767Y-54283000D01*
X219674868Y-54283000D01*
X218877868Y-53486000D01*
X238839290Y-53486000D01*
X244075000Y-58721711D01*
X244075001Y-64310571D01*
X244039375Y-64334375D01*
X243826157Y-64653478D01*
X243765183Y-64523642D01*
X243336924Y-64133355D01*
X242926890Y-63963524D01*
X242697000Y-64084845D01*
X242697000Y-65278000D01*
X242717000Y-65278000D01*
X242717000Y-65532000D01*
X242697000Y-65532000D01*
X242697000Y-66725155D01*
X242926890Y-66846476D01*
X243336924Y-66676645D01*
X243765183Y-66286358D01*
X243826157Y-66156522D01*
X244039375Y-66475625D01*
X244530582Y-66803839D01*
X244963744Y-66890000D01*
X245256256Y-66890000D01*
X245689418Y-66803839D01*
X246180625Y-66475625D01*
X246380000Y-66177239D01*
X246579375Y-66475625D01*
X247070582Y-66803839D01*
X247503744Y-66890000D01*
X247796256Y-66890000D01*
X248229418Y-66803839D01*
X248720625Y-66475625D01*
X249048839Y-65984418D01*
X249164092Y-65405000D01*
X249048839Y-64825582D01*
X248720625Y-64334375D01*
X248229418Y-64006161D01*
X247796256Y-63920000D01*
X247503744Y-63920000D01*
X247070582Y-64006161D01*
X246579375Y-64334375D01*
X246380000Y-64632761D01*
X246180625Y-64334375D01*
X246145000Y-64310571D01*
X246145000Y-58455431D01*
X247745000Y-58455431D01*
X247745000Y-59344569D01*
X248085259Y-60166026D01*
X248713974Y-60794741D01*
X249535431Y-61135000D01*
X250424569Y-61135000D01*
X251246026Y-60794741D01*
X251874741Y-60166026D01*
X252215000Y-59344569D01*
X252215000Y-58455431D01*
X251874741Y-57633974D01*
X251246026Y-57005259D01*
X250424569Y-56665000D01*
X249535431Y-56665000D01*
X248713974Y-57005259D01*
X248085259Y-57633974D01*
X247745000Y-58455431D01*
X246145000Y-58455431D01*
X246145000Y-58394934D01*
X246165276Y-58293000D01*
X246110713Y-58018690D01*
X246084948Y-57889163D01*
X245856193Y-57546807D01*
X245769776Y-57489065D01*
X240071937Y-51791227D01*
X240014193Y-51704807D01*
X239671837Y-51476052D01*
X239369935Y-51416000D01*
X239369934Y-51416000D01*
X239268000Y-51395724D01*
X239166066Y-51416000D01*
X218995711Y-51416000D01*
X217084937Y-49505227D01*
X217027193Y-49418807D01*
X216684837Y-49190052D01*
X216382935Y-49130000D01*
X216382934Y-49130000D01*
X216281000Y-49109724D01*
X216179066Y-49130000D01*
X212826934Y-49130000D01*
X212725000Y-49109724D01*
X212623065Y-49130000D01*
X212321163Y-49190052D01*
X211978807Y-49418807D01*
X211921065Y-49505224D01*
X207922688Y-53503602D01*
X208095000Y-53087602D01*
X208095000Y-52576398D01*
X207899371Y-52104106D01*
X207537894Y-51742629D01*
X207065602Y-51547000D01*
X206554398Y-51547000D01*
X206082106Y-51742629D01*
X205720629Y-52104106D01*
X205540000Y-52540185D01*
X205359371Y-52104106D01*
X204997894Y-51742629D01*
X204525602Y-51547000D01*
X204014398Y-51547000D01*
X203542106Y-51742629D01*
X203180629Y-52104106D01*
X203000000Y-52540185D01*
X202819371Y-52104106D01*
X202457894Y-51742629D01*
X201985602Y-51547000D01*
X201474398Y-51547000D01*
X201002106Y-51742629D01*
X200640629Y-52104106D01*
X200475000Y-52503971D01*
X200475000Y-52055690D01*
X200378327Y-51822301D01*
X200199698Y-51643673D01*
X199966309Y-51547000D01*
X199475750Y-51547000D01*
X199317000Y-51705750D01*
X199317000Y-52705000D01*
X199337000Y-52705000D01*
X199337000Y-52959000D01*
X199317000Y-52959000D01*
X199317000Y-53958250D01*
X199475750Y-54117000D01*
X199966309Y-54117000D01*
X200199698Y-54020327D01*
X200378327Y-53841699D01*
X200475000Y-53608310D01*
X200475000Y-53160029D01*
X200640629Y-53559894D01*
X201002106Y-53921371D01*
X201474398Y-54117000D01*
X201985602Y-54117000D01*
X202457894Y-53921371D01*
X202819371Y-53559894D01*
X203000000Y-53123815D01*
X203180629Y-53559894D01*
X203542106Y-53921371D01*
X204014398Y-54117000D01*
X204525602Y-54117000D01*
X204997894Y-53921371D01*
X205359371Y-53559894D01*
X205540000Y-53123815D01*
X205720629Y-53559894D01*
X206082106Y-53921371D01*
X206554398Y-54117000D01*
X207065602Y-54117000D01*
X207481602Y-53944688D01*
X205969227Y-55457063D01*
X205882807Y-55514807D01*
X205654053Y-55857163D01*
X205654052Y-55857164D01*
X205573724Y-56261000D01*
X205594000Y-56362934D01*
X205594001Y-61770124D01*
X205594000Y-61770126D01*
X205594000Y-62181874D01*
X205633778Y-62277906D01*
X205654053Y-62379837D01*
X205711792Y-62466249D01*
X205751569Y-62562280D01*
X205825068Y-62635779D01*
X205882808Y-62722193D01*
X205969222Y-62779933D01*
X206042720Y-62853431D01*
X206138749Y-62893208D01*
X206225164Y-62950948D01*
X206327098Y-62971224D01*
X206423126Y-63011000D01*
X206527066Y-63011000D01*
X206629000Y-63031276D01*
X206730935Y-63011000D01*
X206834874Y-63011000D01*
X206930902Y-62971224D01*
X207032837Y-62950948D01*
X207119253Y-62893207D01*
X207215280Y-62853431D01*
X207288776Y-62779935D01*
X207375193Y-62722193D01*
X207432935Y-62635776D01*
X207506431Y-62562280D01*
X207546207Y-62466253D01*
X207603948Y-62379837D01*
X207624224Y-62277901D01*
X207664000Y-62181874D01*
X207664000Y-56689710D01*
X213153711Y-51200000D01*
X215852290Y-51200000D01*
X216054884Y-51402594D01*
X215948720Y-51446569D01*
X215657569Y-51737720D01*
X215500000Y-52118126D01*
X215500000Y-52529874D01*
X215657569Y-52910280D01*
X215948720Y-53201431D01*
X216329126Y-53359000D01*
X216389133Y-53359000D01*
X218680415Y-55650283D01*
X218726999Y-55720001D01*
X219003199Y-55904552D01*
X219246763Y-55953000D01*
X219329000Y-55969358D01*
X219411237Y-55953000D01*
X223013512Y-55953000D01*
X222866000Y-56309126D01*
X222866000Y-56720874D01*
X223023569Y-57101280D01*
X223066001Y-57143712D01*
X223066000Y-62020767D01*
X223049643Y-62103000D01*
X223066000Y-62185233D01*
X223066000Y-62185236D01*
X223114448Y-62428800D01*
X223298999Y-62705001D01*
X223368720Y-62751587D01*
X227765001Y-67147869D01*
X227765000Y-85096289D01*
X227722569Y-85138720D01*
X227565000Y-85519126D01*
X227565000Y-85930874D01*
X227722569Y-86311280D01*
X228013720Y-86602431D01*
X228394126Y-86760000D01*
X228735804Y-86760000D01*
X228865569Y-87073280D01*
X229156720Y-87364431D01*
X229315018Y-87430000D01*
X227055442Y-87430000D01*
X227331645Y-87126924D01*
X227501476Y-86716890D01*
X227380155Y-86487000D01*
X226187000Y-86487000D01*
X226187000Y-86507000D01*
X225933000Y-86507000D01*
X225933000Y-86487000D01*
X224739845Y-86487000D01*
X224618524Y-86716890D01*
X224788355Y-87126924D01*
X225064558Y-87430000D01*
X223249867Y-87430000D01*
X224638640Y-86041228D01*
X224739845Y-86233000D01*
X225933000Y-86233000D01*
X225933000Y-86213000D01*
X226187000Y-86213000D01*
X226187000Y-86233000D01*
X227380155Y-86233000D01*
X227501476Y-86003110D01*
X227331645Y-85593076D01*
X226941358Y-85164817D01*
X226811522Y-85103843D01*
X227130625Y-84890625D01*
X227458839Y-84399418D01*
X227574092Y-83820000D01*
X227458839Y-83240582D01*
X227130625Y-82749375D01*
X226832239Y-82550000D01*
X227130625Y-82350625D01*
X227458839Y-81859418D01*
X227574092Y-81280000D01*
X227458839Y-80700582D01*
X227130625Y-80209375D01*
X226832239Y-80010000D01*
X227130625Y-79810625D01*
X227458839Y-79319418D01*
X227574092Y-78740000D01*
X227458839Y-78160582D01*
X227130625Y-77669375D01*
X226832239Y-77470000D01*
X227130625Y-77270625D01*
X227458839Y-76779418D01*
X227574092Y-76200000D01*
X227458839Y-75620582D01*
X227130625Y-75129375D01*
X227112381Y-75117184D01*
X227157765Y-75108157D01*
X227367809Y-74967809D01*
X227508157Y-74757765D01*
X227557440Y-74510000D01*
X227557440Y-72810000D01*
X227508157Y-72562235D01*
X227367809Y-72352191D01*
X227157765Y-72211843D01*
X226910000Y-72162560D01*
X225210000Y-72162560D01*
X224962235Y-72211843D01*
X224752191Y-72352191D01*
X224611843Y-72562235D01*
X224562560Y-72810000D01*
X224562560Y-74510000D01*
X224611843Y-74757765D01*
X224752191Y-74967809D01*
X224962235Y-75108157D01*
X225007619Y-75117184D01*
X224989375Y-75129375D01*
X224831935Y-75365000D01*
X219284232Y-75365000D01*
X219201999Y-75348643D01*
X219119766Y-75365000D01*
X219119763Y-75365000D01*
X218876199Y-75413448D01*
X218599999Y-75597999D01*
X218553415Y-75667717D01*
X216510718Y-77710415D01*
X216441000Y-77756999D01*
X216394416Y-77826717D01*
X216256448Y-78033200D01*
X216191643Y-78359000D01*
X216208001Y-78441238D01*
X216208000Y-82781446D01*
X213081718Y-85907730D01*
X213012000Y-85954314D01*
X212827448Y-86230514D01*
X212779000Y-86474078D01*
X212779000Y-86474082D01*
X212774231Y-86498058D01*
X212736569Y-86535720D01*
X212579000Y-86916126D01*
X212579000Y-87230000D01*
X212417000Y-87230000D01*
X212417000Y-83758817D01*
X212756310Y-83419507D01*
X212990000Y-82855330D01*
X212990000Y-82244670D01*
X212756310Y-81680493D01*
X212587092Y-81511275D01*
X212602765Y-81508157D01*
X212812809Y-81367809D01*
X212953157Y-81157765D01*
X213002440Y-80910000D01*
X213002440Y-79110000D01*
X212953157Y-78862235D01*
X212812809Y-78652191D01*
X212602765Y-78511843D01*
X212355000Y-78462560D01*
X210555000Y-78462560D01*
X210307235Y-78511843D01*
X210097191Y-78652191D01*
X209956843Y-78862235D01*
X209907560Y-79110000D01*
X209907560Y-80910000D01*
X209956843Y-81157765D01*
X210097191Y-81367809D01*
X210307235Y-81508157D01*
X210322908Y-81511275D01*
X210153690Y-81680493D01*
X209920000Y-82244670D01*
X209920000Y-82855330D01*
X210153690Y-83419507D01*
X210585493Y-83851310D01*
X210747001Y-83918209D01*
X210747000Y-88281132D01*
X189684000Y-67218133D01*
X189684000Y-59429711D01*
X189726431Y-59387280D01*
X189884000Y-59006874D01*
X189884000Y-58595126D01*
X189726431Y-58214720D01*
X189435280Y-57923569D01*
X189054874Y-57766000D01*
X188643126Y-57766000D01*
X188262720Y-57923569D01*
X187971569Y-58214720D01*
X187814000Y-58595126D01*
X187814000Y-59006874D01*
X187971569Y-59387280D01*
X188014001Y-59429712D01*
X188014000Y-67481767D01*
X187997643Y-67564000D01*
X188014000Y-67646233D01*
X188014000Y-67646236D01*
X188062448Y-67889800D01*
X188246999Y-68166001D01*
X188316720Y-68212587D01*
X209604001Y-89499869D01*
X209604000Y-91192289D01*
X209561569Y-91234720D01*
X209404000Y-91615126D01*
X209404000Y-92026874D01*
X209561569Y-92407280D01*
X209852720Y-92698431D01*
X210233126Y-92856000D01*
X210644874Y-92856000D01*
X211025280Y-92698431D01*
X211316431Y-92407280D01*
X211474000Y-92026874D01*
X211474000Y-91615126D01*
X211316431Y-91234720D01*
X211274000Y-91192289D01*
X211274000Y-90781698D01*
X211376126Y-90824000D01*
X211787874Y-90824000D01*
X212168280Y-90666431D01*
X212459431Y-90375280D01*
X212617000Y-89994874D01*
X212617000Y-89583126D01*
X212499726Y-89300000D01*
X212676874Y-89300000D01*
X213057280Y-89142431D01*
X213099711Y-89100000D01*
X215758583Y-89100000D01*
X215758583Y-89270884D01*
X215916152Y-89651290D01*
X215958583Y-89693721D01*
X215958583Y-89712931D01*
X215958584Y-89712936D01*
X215958583Y-95807350D01*
X215942226Y-95889583D01*
X215958583Y-95971816D01*
X215958583Y-95971819D01*
X216007031Y-96215383D01*
X216191582Y-96491584D01*
X216261303Y-96538170D01*
X217351001Y-97627869D01*
X217351001Y-103238290D01*
X217248280Y-103135569D01*
X216867874Y-102978000D01*
X216456126Y-102978000D01*
X216075720Y-103135569D01*
X216033289Y-103178000D01*
X205568232Y-103178000D01*
X205485999Y-103161643D01*
X205403766Y-103178000D01*
X205403763Y-103178000D01*
X205160199Y-103226448D01*
X204883999Y-103410999D01*
X204837415Y-103480717D01*
X200635720Y-107682413D01*
X200565999Y-107728999D01*
X200381448Y-108005200D01*
X200333000Y-108248764D01*
X200333000Y-108248767D01*
X200316643Y-108331000D01*
X200333000Y-108413233D01*
X200333001Y-140506762D01*
X200316643Y-140589000D01*
X200381448Y-140914800D01*
X200489092Y-141075900D01*
X200566000Y-141191001D01*
X200635718Y-141237585D01*
X202165000Y-142766868D01*
X202165000Y-142826874D01*
X202322569Y-143207280D01*
X202613720Y-143498431D01*
X202994126Y-143656000D01*
X203405874Y-143656000D01*
X203786280Y-143498431D01*
X204077431Y-143207280D01*
X204235000Y-142826874D01*
X204235000Y-142415126D01*
X204077431Y-142034720D01*
X203786280Y-141743569D01*
X203405874Y-141586000D01*
X203345868Y-141586000D01*
X202003000Y-140243133D01*
X202003000Y-134869670D01*
X211770000Y-134869670D01*
X211770000Y-135480330D01*
X212003690Y-136044507D01*
X212435493Y-136476310D01*
X212999670Y-136710000D01*
X213610330Y-136710000D01*
X214174507Y-136476310D01*
X214606310Y-136044507D01*
X214840000Y-135480330D01*
X214840000Y-134869670D01*
X214606310Y-134305493D01*
X214174507Y-133873690D01*
X213610330Y-133640000D01*
X212999670Y-133640000D01*
X212435493Y-133873690D01*
X212003690Y-134305493D01*
X211770000Y-134869670D01*
X202003000Y-134869670D01*
X202003000Y-128730567D01*
X202490000Y-128730567D01*
X202490000Y-129669433D01*
X202849289Y-130536833D01*
X203513167Y-131200711D01*
X204380567Y-131560000D01*
X205319433Y-131560000D01*
X206055383Y-131255159D01*
X208704446Y-131255159D01*
X208790852Y-131511643D01*
X209364336Y-131721458D01*
X209974460Y-131695839D01*
X210419148Y-131511643D01*
X210505554Y-131255159D01*
X209605000Y-130354605D01*
X208704446Y-131255159D01*
X206055383Y-131255159D01*
X206186833Y-131200711D01*
X206850711Y-130536833D01*
X207100273Y-129934336D01*
X208058542Y-129934336D01*
X208084161Y-130544460D01*
X208268357Y-130989148D01*
X208524841Y-131075554D01*
X209425395Y-130175000D01*
X209784605Y-130175000D01*
X210685159Y-131075554D01*
X210941643Y-130989148D01*
X211151458Y-130415664D01*
X211125839Y-129805540D01*
X210941643Y-129360852D01*
X210685159Y-129274446D01*
X209784605Y-130175000D01*
X209425395Y-130175000D01*
X208524841Y-129274446D01*
X208268357Y-129360852D01*
X208058542Y-129934336D01*
X207100273Y-129934336D01*
X207210000Y-129669433D01*
X207210000Y-129094841D01*
X208704446Y-129094841D01*
X209605000Y-129995395D01*
X210505554Y-129094841D01*
X210419148Y-128838357D01*
X209845664Y-128628542D01*
X209235540Y-128654161D01*
X208790852Y-128838357D01*
X208704446Y-129094841D01*
X207210000Y-129094841D01*
X207210000Y-128730567D01*
X207136133Y-128552234D01*
X215400000Y-128552234D01*
X215400000Y-129003766D01*
X215572793Y-129420926D01*
X215892074Y-129740207D01*
X216309234Y-129913000D01*
X216760766Y-129913000D01*
X217177926Y-129740207D01*
X217485000Y-129433133D01*
X217792074Y-129740207D01*
X218209234Y-129913000D01*
X218660766Y-129913000D01*
X219077926Y-129740207D01*
X219397207Y-129420926D01*
X219570000Y-129003766D01*
X219570000Y-128552234D01*
X219397207Y-128135074D01*
X219077926Y-127815793D01*
X218660766Y-127643000D01*
X218209234Y-127643000D01*
X217792074Y-127815793D01*
X217485000Y-128122867D01*
X217177926Y-127815793D01*
X216760766Y-127643000D01*
X216309234Y-127643000D01*
X215892074Y-127815793D01*
X215572793Y-128135074D01*
X215400000Y-128552234D01*
X207136133Y-128552234D01*
X206850711Y-127863167D01*
X206186833Y-127199289D01*
X205319433Y-126840000D01*
X204380567Y-126840000D01*
X203513167Y-127199289D01*
X202849289Y-127863167D01*
X202490000Y-128730567D01*
X202003000Y-128730567D01*
X202003000Y-124869670D01*
X211770000Y-124869670D01*
X211770000Y-125480330D01*
X212003690Y-126044507D01*
X212435493Y-126476310D01*
X212999670Y-126710000D01*
X213610330Y-126710000D01*
X214174507Y-126476310D01*
X214606310Y-126044507D01*
X214840000Y-125480330D01*
X214840000Y-124869670D01*
X214606310Y-124305493D01*
X214174507Y-123873690D01*
X213610330Y-123640000D01*
X212999670Y-123640000D01*
X212435493Y-123873690D01*
X212003690Y-124305493D01*
X211770000Y-124869670D01*
X202003000Y-124869670D01*
X202003000Y-108676867D01*
X202370361Y-108309506D01*
X210705000Y-108309506D01*
X210705000Y-108860494D01*
X210915853Y-109369540D01*
X211305460Y-109759147D01*
X211814506Y-109970000D01*
X212365494Y-109970000D01*
X212874540Y-109759147D01*
X213264147Y-109369540D01*
X213475000Y-108860494D01*
X213475000Y-108309506D01*
X213264147Y-107800460D01*
X212874540Y-107410853D01*
X212365494Y-107200000D01*
X211814506Y-107200000D01*
X211305460Y-107410853D01*
X210915853Y-107800460D01*
X210705000Y-108309506D01*
X202370361Y-108309506D01*
X205831868Y-104848000D01*
X216033289Y-104848000D01*
X216075720Y-104890431D01*
X216456126Y-105048000D01*
X216867874Y-105048000D01*
X217248280Y-104890431D01*
X217351001Y-104787710D01*
X217351000Y-107243702D01*
X217245494Y-107200000D01*
X216694506Y-107200000D01*
X216185460Y-107410853D01*
X215795853Y-107800460D01*
X215585000Y-108309506D01*
X215585000Y-108860494D01*
X215795853Y-109369540D01*
X216185460Y-109759147D01*
X216694506Y-109970000D01*
X217245494Y-109970000D01*
X217351000Y-109926298D01*
X217351000Y-115487767D01*
X217334643Y-115570000D01*
X217351000Y-115652233D01*
X217351000Y-115652236D01*
X217399448Y-115895800D01*
X217583999Y-116172001D01*
X217653720Y-116218587D01*
X220179990Y-118744858D01*
X220179989Y-138088299D01*
X220163632Y-138170532D01*
X220179989Y-138252765D01*
X220179989Y-138252768D01*
X220228437Y-138496332D01*
X220412988Y-138772533D01*
X220482709Y-138819119D01*
X221519439Y-139855850D01*
X221372569Y-140002720D01*
X221215000Y-140383126D01*
X221215000Y-140794874D01*
X221372569Y-141175280D01*
X221415000Y-141217711D01*
X221415001Y-142402131D01*
X217291716Y-146525417D01*
X217278133Y-146539000D01*
X217218126Y-146539000D01*
X216837720Y-146696569D01*
X216546569Y-146987720D01*
X216389000Y-147368126D01*
X216389000Y-147779874D01*
X216546569Y-148160280D01*
X216837720Y-148451431D01*
X217218126Y-148609000D01*
X217629874Y-148609000D01*
X218010280Y-148451431D01*
X218301431Y-148160280D01*
X218459000Y-147779874D01*
X218459000Y-147719867D01*
X218472583Y-147706284D01*
X222782283Y-143396585D01*
X222852001Y-143350001D01*
X223036552Y-143073801D01*
X223085000Y-142830237D01*
X223101358Y-142748000D01*
X223085000Y-142665763D01*
X223085000Y-141421411D01*
X230150874Y-148487286D01*
X230197456Y-148557001D01*
X230473656Y-148741552D01*
X230717220Y-148790000D01*
X230717223Y-148790000D01*
X230799456Y-148806357D01*
X230881689Y-148790000D01*
X234991935Y-148790000D01*
X235149375Y-149025625D01*
X235449786Y-149226353D01*
X235024817Y-149613642D01*
X234778514Y-150138108D01*
X234899181Y-150368000D01*
X236093000Y-150368000D01*
X236093000Y-150348000D01*
X236347000Y-150348000D01*
X236347000Y-150368000D01*
X236367000Y-150368000D01*
X236367000Y-150622000D01*
X236347000Y-150622000D01*
X236347000Y-151815155D01*
X236576890Y-151936476D01*
X236986924Y-151766645D01*
X237415183Y-151376358D01*
X237476157Y-151246522D01*
X237689375Y-151565625D01*
X238180582Y-151893839D01*
X238613744Y-151980000D01*
X238906256Y-151980000D01*
X239339418Y-151893839D01*
X239830625Y-151565625D01*
X240030000Y-151267239D01*
X240229375Y-151565625D01*
X240720582Y-151893839D01*
X241153744Y-151980000D01*
X241446256Y-151980000D01*
X241879418Y-151893839D01*
X242370625Y-151565625D01*
X242698839Y-151074418D01*
X242814092Y-150495000D01*
X242698839Y-149915582D01*
X242370625Y-149424375D01*
X242352381Y-149412184D01*
X242397765Y-149403157D01*
X242607809Y-149262809D01*
X242646148Y-149205431D01*
X247745000Y-149205431D01*
X247745000Y-150094569D01*
X248085259Y-150916026D01*
X248713974Y-151544741D01*
X249535431Y-151885000D01*
X250424569Y-151885000D01*
X251246026Y-151544741D01*
X251874741Y-150916026D01*
X252215000Y-150094569D01*
X252215000Y-149205431D01*
X251874741Y-148383974D01*
X251246026Y-147755259D01*
X250424569Y-147415000D01*
X249535431Y-147415000D01*
X248713974Y-147755259D01*
X248085259Y-148383974D01*
X247745000Y-149205431D01*
X242646148Y-149205431D01*
X242748157Y-149052765D01*
X242797440Y-148805000D01*
X242797440Y-147105000D01*
X242748157Y-146857235D01*
X242607809Y-146647191D01*
X242397765Y-146506843D01*
X242150000Y-146457560D01*
X240450000Y-146457560D01*
X240202235Y-146506843D01*
X239992191Y-146647191D01*
X239851843Y-146857235D01*
X239842816Y-146902619D01*
X239830625Y-146884375D01*
X239339418Y-146556161D01*
X238906256Y-146470000D01*
X238613744Y-146470000D01*
X238180582Y-146556161D01*
X237689375Y-146884375D01*
X237490000Y-147182761D01*
X237290625Y-146884375D01*
X236799418Y-146556161D01*
X236366256Y-146470000D01*
X236073744Y-146470000D01*
X235640582Y-146556161D01*
X235149375Y-146884375D01*
X234991935Y-147120000D01*
X231145326Y-147120000D01*
X224172526Y-140147201D01*
X224360280Y-140069431D01*
X224651431Y-139778280D01*
X224809000Y-139397874D01*
X224809000Y-138986126D01*
X224651431Y-138605720D01*
X224360280Y-138314569D01*
X223979874Y-138157000D01*
X223926614Y-138157000D01*
X223699802Y-138005449D01*
X223456238Y-137957001D01*
X223456234Y-137957001D01*
X223374001Y-137940644D01*
X223291768Y-137957001D01*
X223211869Y-137957001D01*
X222714282Y-137459415D01*
X222971136Y-137565807D01*
X223382884Y-137565807D01*
X223573141Y-137487000D01*
X228073000Y-137487000D01*
X228073000Y-137873874D01*
X228230569Y-138254280D01*
X228521720Y-138545431D01*
X228902126Y-138703000D01*
X229313874Y-138703000D01*
X229694280Y-138545431D01*
X229736711Y-138503000D01*
X230232000Y-138503000D01*
X230232000Y-138889874D01*
X230389569Y-139270280D01*
X230680720Y-139561431D01*
X231061126Y-139719000D01*
X231472874Y-139719000D01*
X231853280Y-139561431D01*
X231895711Y-139519000D01*
X234937289Y-139519000D01*
X234707569Y-139748720D01*
X234550000Y-140129126D01*
X234550000Y-140540874D01*
X234707569Y-140921280D01*
X234998720Y-141212431D01*
X235379126Y-141370000D01*
X235790874Y-141370000D01*
X236171280Y-141212431D01*
X236213711Y-141170000D01*
X238131289Y-141170000D01*
X238173720Y-141212431D01*
X238554126Y-141370000D01*
X238965874Y-141370000D01*
X239346280Y-141212431D01*
X239637431Y-140921280D01*
X239795000Y-140540874D01*
X239795000Y-140129126D01*
X239637431Y-139748720D01*
X239407711Y-139519000D01*
X248091289Y-139519000D01*
X248133720Y-139561431D01*
X248514126Y-139719000D01*
X248925874Y-139719000D01*
X249306280Y-139561431D01*
X249597431Y-139270280D01*
X249755000Y-138889874D01*
X249755000Y-138478126D01*
X249597431Y-138097720D01*
X249306280Y-137806569D01*
X248925874Y-137649000D01*
X248514126Y-137649000D01*
X248133720Y-137806569D01*
X248091289Y-137849000D01*
X244825000Y-137849000D01*
X244825000Y-137462126D01*
X244667431Y-137081720D01*
X244376280Y-136790569D01*
X243995874Y-136633000D01*
X243584126Y-136633000D01*
X243203720Y-136790569D01*
X243161289Y-136833000D01*
X234842000Y-136833000D01*
X234842000Y-136446126D01*
X234684431Y-136065720D01*
X234393280Y-135774569D01*
X234012874Y-135617000D01*
X233601126Y-135617000D01*
X233220720Y-135774569D01*
X233178289Y-135817000D01*
X223926914Y-135817000D01*
X223763290Y-135653376D01*
X223382884Y-135495807D01*
X222971136Y-135495807D01*
X222590730Y-135653376D01*
X222450000Y-135794106D01*
X222450000Y-129539561D01*
X229730000Y-129539561D01*
X229730000Y-130110439D01*
X229948466Y-130637862D01*
X230352138Y-131041534D01*
X230879561Y-131260000D01*
X231450439Y-131260000D01*
X231977862Y-131041534D01*
X232381534Y-130637862D01*
X232600000Y-130110439D01*
X232600000Y-129589289D01*
X250980000Y-129589289D01*
X250980000Y-130060711D01*
X251160405Y-130496249D01*
X251493751Y-130829595D01*
X251929289Y-131010000D01*
X252400711Y-131010000D01*
X252836249Y-130829595D01*
X253169595Y-130496249D01*
X253350000Y-130060711D01*
X253350000Y-129589289D01*
X253169595Y-129153751D01*
X252836249Y-128820405D01*
X252400711Y-128640000D01*
X251929289Y-128640000D01*
X251493751Y-128820405D01*
X251160405Y-129153751D01*
X250980000Y-129589289D01*
X232600000Y-129589289D01*
X232600000Y-129539561D01*
X232381534Y-129012138D01*
X231977862Y-128608466D01*
X231450439Y-128390000D01*
X230879561Y-128390000D01*
X230352138Y-128608466D01*
X229948466Y-129012138D01*
X229730000Y-129539561D01*
X222450000Y-129539561D01*
X222450000Y-117557237D01*
X222466358Y-117475000D01*
X222401552Y-117149200D01*
X222401552Y-117149199D01*
X222217001Y-116872999D01*
X222147283Y-116826415D01*
X221163868Y-115843000D01*
X221566874Y-115843000D01*
X221947280Y-115685431D01*
X222238431Y-115394280D01*
X222396000Y-115013874D01*
X222396000Y-114953867D01*
X230402283Y-106947585D01*
X230472001Y-106901001D01*
X230656552Y-106624801D01*
X230705000Y-106381237D01*
X230705000Y-106381234D01*
X230721357Y-106299001D01*
X230705000Y-106216768D01*
X230705000Y-90506232D01*
X230707684Y-90492734D01*
X252790293Y-90492734D01*
X252811214Y-91222443D01*
X253050212Y-91799435D01*
X253337825Y-91922570D01*
X254455395Y-90805000D01*
X253337825Y-89687430D01*
X253050212Y-89810565D01*
X252790293Y-90492734D01*
X230707684Y-90492734D01*
X230721357Y-90423999D01*
X230705000Y-90341766D01*
X230705000Y-90341763D01*
X230656552Y-90098199D01*
X230472001Y-89821999D01*
X230402282Y-89775415D01*
X229726867Y-89100000D01*
X231692767Y-89100000D01*
X231775000Y-89116357D01*
X231857233Y-89100000D01*
X231857237Y-89100000D01*
X232100801Y-89051552D01*
X232377001Y-88867001D01*
X232423587Y-88797280D01*
X254059411Y-67161457D01*
X254454273Y-67240000D01*
X254815727Y-67240000D01*
X255350981Y-67133531D01*
X255830001Y-66813461D01*
X255830000Y-89430392D01*
X255752569Y-89507823D01*
X255629435Y-89220212D01*
X254947266Y-88960293D01*
X254217557Y-88981214D01*
X253640565Y-89220212D01*
X253517430Y-89507825D01*
X254635000Y-90625395D01*
X254649143Y-90611253D01*
X254828748Y-90790858D01*
X254814605Y-90805000D01*
X254828748Y-90819143D01*
X254649143Y-90998748D01*
X254635000Y-90984605D01*
X253517430Y-92102175D01*
X253640565Y-92389788D01*
X254322734Y-92649707D01*
X255052443Y-92628786D01*
X255629435Y-92389788D01*
X255752569Y-92102177D01*
X255830000Y-92179608D01*
X255830000Y-154230000D01*
X186130000Y-154230000D01*
X186130000Y-149205431D01*
X189745000Y-149205431D01*
X189745000Y-150094569D01*
X190085259Y-150916026D01*
X190713974Y-151544741D01*
X191535431Y-151885000D01*
X192424569Y-151885000D01*
X193246026Y-151544741D01*
X193660767Y-151130000D01*
X197875908Y-151130000D01*
X197991161Y-151709418D01*
X198319375Y-152200625D01*
X198810582Y-152528839D01*
X199243744Y-152615000D01*
X199536256Y-152615000D01*
X199969418Y-152528839D01*
X200460625Y-152200625D01*
X200472816Y-152182381D01*
X200481843Y-152227765D01*
X200622191Y-152437809D01*
X200832235Y-152578157D01*
X201080000Y-152627440D01*
X202780000Y-152627440D01*
X203027765Y-152578157D01*
X203237809Y-152437809D01*
X203378157Y-152227765D01*
X203427440Y-151980000D01*
X203427440Y-150851892D01*
X234778514Y-150851892D01*
X235024817Y-151376358D01*
X235453076Y-151766645D01*
X235863110Y-151936476D01*
X236093000Y-151815155D01*
X236093000Y-150622000D01*
X234899181Y-150622000D01*
X234778514Y-150851892D01*
X203427440Y-150851892D01*
X203427440Y-150280000D01*
X203378157Y-150032235D01*
X203237809Y-149822191D01*
X203027765Y-149681843D01*
X202780000Y-149632560D01*
X201080000Y-149632560D01*
X200832235Y-149681843D01*
X200622191Y-149822191D01*
X200481843Y-150032235D01*
X200472816Y-150077619D01*
X200460625Y-150059375D01*
X199969418Y-149731161D01*
X199536256Y-149645000D01*
X199243744Y-149645000D01*
X198810582Y-149731161D01*
X198319375Y-150059375D01*
X197991161Y-150550582D01*
X197875908Y-151130000D01*
X193660767Y-151130000D01*
X193874741Y-150916026D01*
X194215000Y-150094569D01*
X194215000Y-149205431D01*
X193874741Y-148383974D01*
X193246026Y-147755259D01*
X192424569Y-147415000D01*
X191535431Y-147415000D01*
X190713974Y-147755259D01*
X190085259Y-148383974D01*
X189745000Y-149205431D01*
X186130000Y-149205431D01*
X186130000Y-137165990D01*
X187020000Y-137165990D01*
X187020000Y-137894010D01*
X187298601Y-138566612D01*
X187813388Y-139081399D01*
X188485990Y-139360000D01*
X189214010Y-139360000D01*
X189886612Y-139081399D01*
X190401399Y-138566612D01*
X190680000Y-137894010D01*
X190680000Y-137165990D01*
X190401399Y-136493388D01*
X189886612Y-135978601D01*
X189214010Y-135700000D01*
X188485990Y-135700000D01*
X187813388Y-135978601D01*
X187298601Y-136493388D01*
X187020000Y-137165990D01*
X186130000Y-137165990D01*
X186130000Y-73530567D01*
X186490000Y-73530567D01*
X186490000Y-74469433D01*
X186849289Y-75336833D01*
X187513167Y-76000711D01*
X188380567Y-76360000D01*
X189319433Y-76360000D01*
X190186833Y-76000711D01*
X190850711Y-75336833D01*
X191210000Y-74469433D01*
X191210000Y-73530567D01*
X190850711Y-72663167D01*
X190186833Y-71999289D01*
X189319433Y-71640000D01*
X188380567Y-71640000D01*
X187513167Y-71999289D01*
X186849289Y-72663167D01*
X186490000Y-73530567D01*
X186130000Y-73530567D01*
X186130000Y-53117750D01*
X197905000Y-53117750D01*
X197905000Y-53608310D01*
X198001673Y-53841699D01*
X198180302Y-54020327D01*
X198413691Y-54117000D01*
X198904250Y-54117000D01*
X199063000Y-53958250D01*
X199063000Y-52959000D01*
X198063750Y-52959000D01*
X197905000Y-53117750D01*
X186130000Y-53117750D01*
X186130000Y-52055690D01*
X197905000Y-52055690D01*
X197905000Y-52546250D01*
X198063750Y-52705000D01*
X199063000Y-52705000D01*
X199063000Y-51705750D01*
X198904250Y-51547000D01*
X198413691Y-51547000D01*
X198180302Y-51643673D01*
X198001673Y-51822301D01*
X197905000Y-52055690D01*
X186130000Y-52055690D01*
X186130000Y-47482132D01*
X217396500Y-47482132D01*
X217396500Y-48517868D01*
X217792859Y-49474765D01*
X218525235Y-50207141D01*
X219482132Y-50603500D01*
X220517868Y-50603500D01*
X221474765Y-50207141D01*
X222207141Y-49474765D01*
X222603500Y-48517868D01*
X222603500Y-47482132D01*
X240510500Y-47482132D01*
X240510500Y-48517868D01*
X240906859Y-49474765D01*
X241639235Y-50207141D01*
X242596132Y-50603500D01*
X243631868Y-50603500D01*
X244588765Y-50207141D01*
X245321141Y-49474765D01*
X245717500Y-48517868D01*
X245717500Y-47482132D01*
X245321141Y-46525235D01*
X244588765Y-45792859D01*
X243631868Y-45396500D01*
X242596132Y-45396500D01*
X241639235Y-45792859D01*
X240906859Y-46525235D01*
X240510500Y-47482132D01*
X222603500Y-47482132D01*
X222207141Y-46525235D01*
X221474765Y-45792859D01*
X220517868Y-45396500D01*
X219482132Y-45396500D01*
X218525235Y-45792859D01*
X217792859Y-46525235D01*
X217396500Y-47482132D01*
X186130000Y-47482132D01*
X186130000Y-41519132D01*
X188839500Y-41519132D01*
X188839500Y-42554868D01*
X189235859Y-43511765D01*
X189968235Y-44244141D01*
X190925132Y-44640500D01*
X191960868Y-44640500D01*
X192917765Y-44244141D01*
X193650141Y-43511765D01*
X194046500Y-42554868D01*
X194046500Y-41519132D01*
X211953500Y-41519132D01*
X211953500Y-42554868D01*
X212349859Y-43511765D01*
X213082235Y-44244141D01*
X214039132Y-44640500D01*
X215074868Y-44640500D01*
X216031765Y-44244141D01*
X216764141Y-43511765D01*
X217160500Y-42554868D01*
X217160500Y-41519132D01*
X216764141Y-40562235D01*
X216031765Y-39829859D01*
X215074868Y-39433500D01*
X214039132Y-39433500D01*
X213082235Y-39829859D01*
X212349859Y-40562235D01*
X211953500Y-41519132D01*
X194046500Y-41519132D01*
X193650141Y-40562235D01*
X192917765Y-39829859D01*
X191960868Y-39433500D01*
X190925132Y-39433500D01*
X189968235Y-39829859D01*
X189235859Y-40562235D01*
X188839500Y-41519132D01*
X186130000Y-41519132D01*
X186130000Y-27705431D01*
X189745000Y-27705431D01*
X189745000Y-28594569D01*
X190085259Y-29416026D01*
X190713974Y-30044741D01*
X191535431Y-30385000D01*
X192424569Y-30385000D01*
X193246026Y-30044741D01*
X193874741Y-29416026D01*
X194215000Y-28594569D01*
X194215000Y-27705431D01*
X247745000Y-27705431D01*
X247745000Y-28594569D01*
X248085259Y-29416026D01*
X248713974Y-30044741D01*
X249535431Y-30385000D01*
X250424569Y-30385000D01*
X251246026Y-30044741D01*
X251874741Y-29416026D01*
X252215000Y-28594569D01*
X252215000Y-27705431D01*
X251874741Y-26883974D01*
X251246026Y-26255259D01*
X250424569Y-25915000D01*
X249535431Y-25915000D01*
X248713974Y-26255259D01*
X248085259Y-26883974D01*
X247745000Y-27705431D01*
X194215000Y-27705431D01*
X193874741Y-26883974D01*
X193246026Y-26255259D01*
X192424569Y-25915000D01*
X191535431Y-25915000D01*
X190713974Y-26255259D01*
X190085259Y-26883974D01*
X189745000Y-27705431D01*
X186130000Y-27705431D01*
X186130000Y-23570000D01*
X255830001Y-23570000D01*
X255830001Y-63996539D01*
X255830001Y-63996539D01*
G37*
X255830001Y-63996539D02*
X255350981Y-63676469D01*
X254815727Y-63570000D01*
X254454273Y-63570000D01*
X253919019Y-63676469D01*
X253312039Y-64082039D01*
X252906469Y-64689019D01*
X252764051Y-65405000D01*
X252878543Y-65980589D01*
X231429133Y-87430000D01*
X230170982Y-87430000D01*
X230329280Y-87364431D01*
X230620431Y-87073280D01*
X230778000Y-86692874D01*
X230778000Y-86281126D01*
X230620431Y-85900720D01*
X230578000Y-85858289D01*
X230578000Y-66630232D01*
X230594357Y-66547999D01*
X230578000Y-66465764D01*
X230578000Y-66465763D01*
X230529552Y-66222199D01*
X230345001Y-65945999D01*
X230275286Y-65899417D01*
X228930869Y-64555000D01*
X233452560Y-64555000D01*
X233452560Y-66255000D01*
X233501843Y-66502765D01*
X233642191Y-66712809D01*
X233852235Y-66853157D01*
X234100000Y-66902440D01*
X234115000Y-66902440D01*
X234115001Y-78365288D01*
X234072569Y-78407720D01*
X233915000Y-78788126D01*
X233915000Y-79199874D01*
X234072569Y-79580280D01*
X234363720Y-79871431D01*
X234744126Y-80029000D01*
X235155874Y-80029000D01*
X235536280Y-79871431D01*
X235827431Y-79580280D01*
X235985000Y-79199874D01*
X235985000Y-78788126D01*
X235827431Y-78407720D01*
X235785000Y-78365289D01*
X235785000Y-66902440D01*
X235800000Y-66902440D01*
X236047765Y-66853157D01*
X236257809Y-66712809D01*
X236398157Y-66502765D01*
X236407184Y-66457381D01*
X236419375Y-66475625D01*
X236910582Y-66803839D01*
X237343744Y-66890000D01*
X237636256Y-66890000D01*
X238069418Y-66803839D01*
X238560625Y-66475625D01*
X238760000Y-66177239D01*
X238959375Y-66475625D01*
X239450582Y-66803839D01*
X239883744Y-66890000D01*
X240176256Y-66890000D01*
X240609418Y-66803839D01*
X241100625Y-66475625D01*
X241313843Y-66156522D01*
X241374817Y-66286358D01*
X241803076Y-66676645D01*
X242213110Y-66846476D01*
X242443000Y-66725155D01*
X242443000Y-65532000D01*
X242423000Y-65532000D01*
X242423000Y-65278000D01*
X242443000Y-65278000D01*
X242443000Y-64084845D01*
X242213110Y-63963524D01*
X241803076Y-64133355D01*
X241374817Y-64523642D01*
X241313843Y-64653478D01*
X241100625Y-64334375D01*
X240609418Y-64006161D01*
X240176256Y-63920000D01*
X239883744Y-63920000D01*
X239450582Y-64006161D01*
X238959375Y-64334375D01*
X238760000Y-64632761D01*
X238560625Y-64334375D01*
X238069418Y-64006161D01*
X237636256Y-63920000D01*
X237343744Y-63920000D01*
X236910582Y-64006161D01*
X236419375Y-64334375D01*
X236407184Y-64352619D01*
X236398157Y-64307235D01*
X236257809Y-64097191D01*
X236047765Y-63956843D01*
X235800000Y-63907560D01*
X234100000Y-63907560D01*
X233852235Y-63956843D01*
X233642191Y-64097191D01*
X233501843Y-64307235D01*
X233452560Y-64555000D01*
X228930869Y-64555000D01*
X226133000Y-61757133D01*
X226133000Y-59080750D01*
X226462000Y-59080750D01*
X226462000Y-59571310D01*
X226558673Y-59804699D01*
X226737302Y-59983327D01*
X226970691Y-60080000D01*
X227461250Y-60080000D01*
X227620000Y-59921250D01*
X227620000Y-58922000D01*
X226620750Y-58922000D01*
X226462000Y-59080750D01*
X226133000Y-59080750D01*
X226133000Y-58018690D01*
X226462000Y-58018690D01*
X226462000Y-58509250D01*
X226620750Y-58668000D01*
X227620000Y-58668000D01*
X227620000Y-57668750D01*
X227874000Y-57668750D01*
X227874000Y-58668000D01*
X227894000Y-58668000D01*
X227894000Y-58922000D01*
X227874000Y-58922000D01*
X227874000Y-59921250D01*
X228032750Y-60080000D01*
X228523309Y-60080000D01*
X228756698Y-59983327D01*
X228935327Y-59804699D01*
X229032000Y-59571310D01*
X229032000Y-59123029D01*
X229197629Y-59522894D01*
X229559106Y-59884371D01*
X230031398Y-60080000D01*
X230542602Y-60080000D01*
X231014894Y-59884371D01*
X231376371Y-59522894D01*
X231557000Y-59086815D01*
X231737629Y-59522894D01*
X232099106Y-59884371D01*
X232571398Y-60080000D01*
X233082602Y-60080000D01*
X233554894Y-59884371D01*
X233916371Y-59522894D01*
X234097000Y-59086815D01*
X234277629Y-59522894D01*
X234639106Y-59884371D01*
X235111398Y-60080000D01*
X235622602Y-60080000D01*
X236094894Y-59884371D01*
X236456371Y-59522894D01*
X236652000Y-59050602D01*
X236652000Y-58539398D01*
X236456371Y-58067106D01*
X236094894Y-57705629D01*
X235622602Y-57510000D01*
X235111398Y-57510000D01*
X234639106Y-57705629D01*
X234277629Y-58067106D01*
X234097000Y-58503185D01*
X233916371Y-58067106D01*
X233554894Y-57705629D01*
X233082602Y-57510000D01*
X232571398Y-57510000D01*
X232099106Y-57705629D01*
X231737629Y-58067106D01*
X231557000Y-58503185D01*
X231376371Y-58067106D01*
X231014894Y-57705629D01*
X230542602Y-57510000D01*
X230031398Y-57510000D01*
X229559106Y-57705629D01*
X229197629Y-58067106D01*
X229032000Y-58466971D01*
X229032000Y-58018690D01*
X228935327Y-57785301D01*
X228756698Y-57606673D01*
X228523309Y-57510000D01*
X228032750Y-57510000D01*
X227874000Y-57668750D01*
X227620000Y-57668750D01*
X227461250Y-57510000D01*
X226970691Y-57510000D01*
X226737302Y-57606673D01*
X226558673Y-57785301D01*
X226462000Y-58018690D01*
X226133000Y-58018690D01*
X226133000Y-56089237D01*
X226149358Y-56007000D01*
X226084552Y-55681199D01*
X225946584Y-55474716D01*
X225900001Y-55404999D01*
X225830283Y-55358415D01*
X225057587Y-54585720D01*
X225011001Y-54515999D01*
X224734801Y-54331448D01*
X224491237Y-54283000D01*
X224491233Y-54283000D01*
X224409000Y-54266643D01*
X224326767Y-54283000D01*
X219674868Y-54283000D01*
X218877868Y-53486000D01*
X238839290Y-53486000D01*
X244075000Y-58721711D01*
X244075001Y-64310571D01*
X244039375Y-64334375D01*
X243826157Y-64653478D01*
X243765183Y-64523642D01*
X243336924Y-64133355D01*
X242926890Y-63963524D01*
X242697000Y-64084845D01*
X242697000Y-65278000D01*
X242717000Y-65278000D01*
X242717000Y-65532000D01*
X242697000Y-65532000D01*
X242697000Y-66725155D01*
X242926890Y-66846476D01*
X243336924Y-66676645D01*
X243765183Y-66286358D01*
X243826157Y-66156522D01*
X244039375Y-66475625D01*
X244530582Y-66803839D01*
X244963744Y-66890000D01*
X245256256Y-66890000D01*
X245689418Y-66803839D01*
X246180625Y-66475625D01*
X246380000Y-66177239D01*
X246579375Y-66475625D01*
X247070582Y-66803839D01*
X247503744Y-66890000D01*
X247796256Y-66890000D01*
X248229418Y-66803839D01*
X248720625Y-66475625D01*
X249048839Y-65984418D01*
X249164092Y-65405000D01*
X249048839Y-64825582D01*
X248720625Y-64334375D01*
X248229418Y-64006161D01*
X247796256Y-63920000D01*
X247503744Y-63920000D01*
X247070582Y-64006161D01*
X246579375Y-64334375D01*
X246380000Y-64632761D01*
X246180625Y-64334375D01*
X246145000Y-64310571D01*
X246145000Y-58455431D01*
X247745000Y-58455431D01*
X247745000Y-59344569D01*
X248085259Y-60166026D01*
X248713974Y-60794741D01*
X249535431Y-61135000D01*
X250424569Y-61135000D01*
X251246026Y-60794741D01*
X251874741Y-60166026D01*
X252215000Y-59344569D01*
X252215000Y-58455431D01*
X251874741Y-57633974D01*
X251246026Y-57005259D01*
X250424569Y-56665000D01*
X249535431Y-56665000D01*
X248713974Y-57005259D01*
X248085259Y-57633974D01*
X247745000Y-58455431D01*
X246145000Y-58455431D01*
X246145000Y-58394934D01*
X246165276Y-58293000D01*
X246110713Y-58018690D01*
X246084948Y-57889163D01*
X245856193Y-57546807D01*
X245769776Y-57489065D01*
X240071937Y-51791227D01*
X240014193Y-51704807D01*
X239671837Y-51476052D01*
X239369935Y-51416000D01*
X239369934Y-51416000D01*
X239268000Y-51395724D01*
X239166066Y-51416000D01*
X218995711Y-51416000D01*
X217084937Y-49505227D01*
X217027193Y-49418807D01*
X216684837Y-49190052D01*
X216382935Y-49130000D01*
X216382934Y-49130000D01*
X216281000Y-49109724D01*
X216179066Y-49130000D01*
X212826934Y-49130000D01*
X212725000Y-49109724D01*
X212623065Y-49130000D01*
X212321163Y-49190052D01*
X211978807Y-49418807D01*
X211921065Y-49505224D01*
X207922688Y-53503602D01*
X208095000Y-53087602D01*
X208095000Y-52576398D01*
X207899371Y-52104106D01*
X207537894Y-51742629D01*
X207065602Y-51547000D01*
X206554398Y-51547000D01*
X206082106Y-51742629D01*
X205720629Y-52104106D01*
X205540000Y-52540185D01*
X205359371Y-52104106D01*
X204997894Y-51742629D01*
X204525602Y-51547000D01*
X204014398Y-51547000D01*
X203542106Y-51742629D01*
X203180629Y-52104106D01*
X203000000Y-52540185D01*
X202819371Y-52104106D01*
X202457894Y-51742629D01*
X201985602Y-51547000D01*
X201474398Y-51547000D01*
X201002106Y-51742629D01*
X200640629Y-52104106D01*
X200475000Y-52503971D01*
X200475000Y-52055690D01*
X200378327Y-51822301D01*
X200199698Y-51643673D01*
X199966309Y-51547000D01*
X199475750Y-51547000D01*
X199317000Y-51705750D01*
X199317000Y-52705000D01*
X199337000Y-52705000D01*
X199337000Y-52959000D01*
X199317000Y-52959000D01*
X199317000Y-53958250D01*
X199475750Y-54117000D01*
X199966309Y-54117000D01*
X200199698Y-54020327D01*
X200378327Y-53841699D01*
X200475000Y-53608310D01*
X200475000Y-53160029D01*
X200640629Y-53559894D01*
X201002106Y-53921371D01*
X201474398Y-54117000D01*
X201985602Y-54117000D01*
X202457894Y-53921371D01*
X202819371Y-53559894D01*
X203000000Y-53123815D01*
X203180629Y-53559894D01*
X203542106Y-53921371D01*
X204014398Y-54117000D01*
X204525602Y-54117000D01*
X204997894Y-53921371D01*
X205359371Y-53559894D01*
X205540000Y-53123815D01*
X205720629Y-53559894D01*
X206082106Y-53921371D01*
X206554398Y-54117000D01*
X207065602Y-54117000D01*
X207481602Y-53944688D01*
X205969227Y-55457063D01*
X205882807Y-55514807D01*
X205654053Y-55857163D01*
X205654052Y-55857164D01*
X205573724Y-56261000D01*
X205594000Y-56362934D01*
X205594001Y-61770124D01*
X205594000Y-61770126D01*
X205594000Y-62181874D01*
X205633778Y-62277906D01*
X205654053Y-62379837D01*
X205711792Y-62466249D01*
X205751569Y-62562280D01*
X205825068Y-62635779D01*
X205882808Y-62722193D01*
X205969222Y-62779933D01*
X206042720Y-62853431D01*
X206138749Y-62893208D01*
X206225164Y-62950948D01*
X206327098Y-62971224D01*
X206423126Y-63011000D01*
X206527066Y-63011000D01*
X206629000Y-63031276D01*
X206730935Y-63011000D01*
X206834874Y-63011000D01*
X206930902Y-62971224D01*
X207032837Y-62950948D01*
X207119253Y-62893207D01*
X207215280Y-62853431D01*
X207288776Y-62779935D01*
X207375193Y-62722193D01*
X207432935Y-62635776D01*
X207506431Y-62562280D01*
X207546207Y-62466253D01*
X207603948Y-62379837D01*
X207624224Y-62277901D01*
X207664000Y-62181874D01*
X207664000Y-56689710D01*
X213153711Y-51200000D01*
X215852290Y-51200000D01*
X216054884Y-51402594D01*
X215948720Y-51446569D01*
X215657569Y-51737720D01*
X215500000Y-52118126D01*
X215500000Y-52529874D01*
X215657569Y-52910280D01*
X215948720Y-53201431D01*
X216329126Y-53359000D01*
X216389133Y-53359000D01*
X218680415Y-55650283D01*
X218726999Y-55720001D01*
X219003199Y-55904552D01*
X219246763Y-55953000D01*
X219329000Y-55969358D01*
X219411237Y-55953000D01*
X223013512Y-55953000D01*
X222866000Y-56309126D01*
X222866000Y-56720874D01*
X223023569Y-57101280D01*
X223066001Y-57143712D01*
X223066000Y-62020767D01*
X223049643Y-62103000D01*
X223066000Y-62185233D01*
X223066000Y-62185236D01*
X223114448Y-62428800D01*
X223298999Y-62705001D01*
X223368720Y-62751587D01*
X227765001Y-67147869D01*
X227765000Y-85096289D01*
X227722569Y-85138720D01*
X227565000Y-85519126D01*
X227565000Y-85930874D01*
X227722569Y-86311280D01*
X228013720Y-86602431D01*
X228394126Y-86760000D01*
X228735804Y-86760000D01*
X228865569Y-87073280D01*
X229156720Y-87364431D01*
X229315018Y-87430000D01*
X227055442Y-87430000D01*
X227331645Y-87126924D01*
X227501476Y-86716890D01*
X227380155Y-86487000D01*
X226187000Y-86487000D01*
X226187000Y-86507000D01*
X225933000Y-86507000D01*
X225933000Y-86487000D01*
X224739845Y-86487000D01*
X224618524Y-86716890D01*
X224788355Y-87126924D01*
X225064558Y-87430000D01*
X223249867Y-87430000D01*
X224638640Y-86041228D01*
X224739845Y-86233000D01*
X225933000Y-86233000D01*
X225933000Y-86213000D01*
X226187000Y-86213000D01*
X226187000Y-86233000D01*
X227380155Y-86233000D01*
X227501476Y-86003110D01*
X227331645Y-85593076D01*
X226941358Y-85164817D01*
X226811522Y-85103843D01*
X227130625Y-84890625D01*
X227458839Y-84399418D01*
X227574092Y-83820000D01*
X227458839Y-83240582D01*
X227130625Y-82749375D01*
X226832239Y-82550000D01*
X227130625Y-82350625D01*
X227458839Y-81859418D01*
X227574092Y-81280000D01*
X227458839Y-80700582D01*
X227130625Y-80209375D01*
X226832239Y-80010000D01*
X227130625Y-79810625D01*
X227458839Y-79319418D01*
X227574092Y-78740000D01*
X227458839Y-78160582D01*
X227130625Y-77669375D01*
X226832239Y-77470000D01*
X227130625Y-77270625D01*
X227458839Y-76779418D01*
X227574092Y-76200000D01*
X227458839Y-75620582D01*
X227130625Y-75129375D01*
X227112381Y-75117184D01*
X227157765Y-75108157D01*
X227367809Y-74967809D01*
X227508157Y-74757765D01*
X227557440Y-74510000D01*
X227557440Y-72810000D01*
X227508157Y-72562235D01*
X227367809Y-72352191D01*
X227157765Y-72211843D01*
X226910000Y-72162560D01*
X225210000Y-72162560D01*
X224962235Y-72211843D01*
X224752191Y-72352191D01*
X224611843Y-72562235D01*
X224562560Y-72810000D01*
X224562560Y-74510000D01*
X224611843Y-74757765D01*
X224752191Y-74967809D01*
X224962235Y-75108157D01*
X225007619Y-75117184D01*
X224989375Y-75129375D01*
X224831935Y-75365000D01*
X219284232Y-75365000D01*
X219201999Y-75348643D01*
X219119766Y-75365000D01*
X219119763Y-75365000D01*
X218876199Y-75413448D01*
X218599999Y-75597999D01*
X218553415Y-75667717D01*
X216510718Y-77710415D01*
X216441000Y-77756999D01*
X216394416Y-77826717D01*
X216256448Y-78033200D01*
X216191643Y-78359000D01*
X216208001Y-78441238D01*
X216208000Y-82781446D01*
X213081718Y-85907730D01*
X213012000Y-85954314D01*
X212827448Y-86230514D01*
X212779000Y-86474078D01*
X212779000Y-86474082D01*
X212774231Y-86498058D01*
X212736569Y-86535720D01*
X212579000Y-86916126D01*
X212579000Y-87230000D01*
X212417000Y-87230000D01*
X212417000Y-83758817D01*
X212756310Y-83419507D01*
X212990000Y-82855330D01*
X212990000Y-82244670D01*
X212756310Y-81680493D01*
X212587092Y-81511275D01*
X212602765Y-81508157D01*
X212812809Y-81367809D01*
X212953157Y-81157765D01*
X213002440Y-80910000D01*
X213002440Y-79110000D01*
X212953157Y-78862235D01*
X212812809Y-78652191D01*
X212602765Y-78511843D01*
X212355000Y-78462560D01*
X210555000Y-78462560D01*
X210307235Y-78511843D01*
X210097191Y-78652191D01*
X209956843Y-78862235D01*
X209907560Y-79110000D01*
X209907560Y-80910000D01*
X209956843Y-81157765D01*
X210097191Y-81367809D01*
X210307235Y-81508157D01*
X210322908Y-81511275D01*
X210153690Y-81680493D01*
X209920000Y-82244670D01*
X209920000Y-82855330D01*
X210153690Y-83419507D01*
X210585493Y-83851310D01*
X210747001Y-83918209D01*
X210747000Y-88281132D01*
X189684000Y-67218133D01*
X189684000Y-59429711D01*
X189726431Y-59387280D01*
X189884000Y-59006874D01*
X189884000Y-58595126D01*
X189726431Y-58214720D01*
X189435280Y-57923569D01*
X189054874Y-57766000D01*
X188643126Y-57766000D01*
X188262720Y-57923569D01*
X187971569Y-58214720D01*
X187814000Y-58595126D01*
X187814000Y-59006874D01*
X187971569Y-59387280D01*
X188014001Y-59429712D01*
X188014000Y-67481767D01*
X187997643Y-67564000D01*
X188014000Y-67646233D01*
X188014000Y-67646236D01*
X188062448Y-67889800D01*
X188246999Y-68166001D01*
X188316720Y-68212587D01*
X209604001Y-89499869D01*
X209604000Y-91192289D01*
X209561569Y-91234720D01*
X209404000Y-91615126D01*
X209404000Y-92026874D01*
X209561569Y-92407280D01*
X209852720Y-92698431D01*
X210233126Y-92856000D01*
X210644874Y-92856000D01*
X211025280Y-92698431D01*
X211316431Y-92407280D01*
X211474000Y-92026874D01*
X211474000Y-91615126D01*
X211316431Y-91234720D01*
X211274000Y-91192289D01*
X211274000Y-90781698D01*
X211376126Y-90824000D01*
X211787874Y-90824000D01*
X212168280Y-90666431D01*
X212459431Y-90375280D01*
X212617000Y-89994874D01*
X212617000Y-89583126D01*
X212499726Y-89300000D01*
X212676874Y-89300000D01*
X213057280Y-89142431D01*
X213099711Y-89100000D01*
X215758583Y-89100000D01*
X215758583Y-89270884D01*
X215916152Y-89651290D01*
X215958583Y-89693721D01*
X215958583Y-89712931D01*
X215958584Y-89712936D01*
X215958583Y-95807350D01*
X215942226Y-95889583D01*
X215958583Y-95971816D01*
X215958583Y-95971819D01*
X216007031Y-96215383D01*
X216191582Y-96491584D01*
X216261303Y-96538170D01*
X217351001Y-97627869D01*
X217351001Y-103238290D01*
X217248280Y-103135569D01*
X216867874Y-102978000D01*
X216456126Y-102978000D01*
X216075720Y-103135569D01*
X216033289Y-103178000D01*
X205568232Y-103178000D01*
X205485999Y-103161643D01*
X205403766Y-103178000D01*
X205403763Y-103178000D01*
X205160199Y-103226448D01*
X204883999Y-103410999D01*
X204837415Y-103480717D01*
X200635720Y-107682413D01*
X200565999Y-107728999D01*
X200381448Y-108005200D01*
X200333000Y-108248764D01*
X200333000Y-108248767D01*
X200316643Y-108331000D01*
X200333000Y-108413233D01*
X200333001Y-140506762D01*
X200316643Y-140589000D01*
X200381448Y-140914800D01*
X200489092Y-141075900D01*
X200566000Y-141191001D01*
X200635718Y-141237585D01*
X202165000Y-142766868D01*
X202165000Y-142826874D01*
X202322569Y-143207280D01*
X202613720Y-143498431D01*
X202994126Y-143656000D01*
X203405874Y-143656000D01*
X203786280Y-143498431D01*
X204077431Y-143207280D01*
X204235000Y-142826874D01*
X204235000Y-142415126D01*
X204077431Y-142034720D01*
X203786280Y-141743569D01*
X203405874Y-141586000D01*
X203345868Y-141586000D01*
X202003000Y-140243133D01*
X202003000Y-134869670D01*
X211770000Y-134869670D01*
X211770000Y-135480330D01*
X212003690Y-136044507D01*
X212435493Y-136476310D01*
X212999670Y-136710000D01*
X213610330Y-136710000D01*
X214174507Y-136476310D01*
X214606310Y-136044507D01*
X214840000Y-135480330D01*
X214840000Y-134869670D01*
X214606310Y-134305493D01*
X214174507Y-133873690D01*
X213610330Y-133640000D01*
X212999670Y-133640000D01*
X212435493Y-133873690D01*
X212003690Y-134305493D01*
X211770000Y-134869670D01*
X202003000Y-134869670D01*
X202003000Y-128730567D01*
X202490000Y-128730567D01*
X202490000Y-129669433D01*
X202849289Y-130536833D01*
X203513167Y-131200711D01*
X204380567Y-131560000D01*
X205319433Y-131560000D01*
X206055383Y-131255159D01*
X208704446Y-131255159D01*
X208790852Y-131511643D01*
X209364336Y-131721458D01*
X209974460Y-131695839D01*
X210419148Y-131511643D01*
X210505554Y-131255159D01*
X209605000Y-130354605D01*
X208704446Y-131255159D01*
X206055383Y-131255159D01*
X206186833Y-131200711D01*
X206850711Y-130536833D01*
X207100273Y-129934336D01*
X208058542Y-129934336D01*
X208084161Y-130544460D01*
X208268357Y-130989148D01*
X208524841Y-131075554D01*
X209425395Y-130175000D01*
X209784605Y-130175000D01*
X210685159Y-131075554D01*
X210941643Y-130989148D01*
X211151458Y-130415664D01*
X211125839Y-129805540D01*
X210941643Y-129360852D01*
X210685159Y-129274446D01*
X209784605Y-130175000D01*
X209425395Y-130175000D01*
X208524841Y-129274446D01*
X208268357Y-129360852D01*
X208058542Y-129934336D01*
X207100273Y-129934336D01*
X207210000Y-129669433D01*
X207210000Y-129094841D01*
X208704446Y-129094841D01*
X209605000Y-129995395D01*
X210505554Y-129094841D01*
X210419148Y-128838357D01*
X209845664Y-128628542D01*
X209235540Y-128654161D01*
X208790852Y-128838357D01*
X208704446Y-129094841D01*
X207210000Y-129094841D01*
X207210000Y-128730567D01*
X207136133Y-128552234D01*
X215400000Y-128552234D01*
X215400000Y-129003766D01*
X215572793Y-129420926D01*
X215892074Y-129740207D01*
X216309234Y-129913000D01*
X216760766Y-129913000D01*
X217177926Y-129740207D01*
X217485000Y-129433133D01*
X217792074Y-129740207D01*
X218209234Y-129913000D01*
X218660766Y-129913000D01*
X219077926Y-129740207D01*
X219397207Y-129420926D01*
X219570000Y-129003766D01*
X219570000Y-128552234D01*
X219397207Y-128135074D01*
X219077926Y-127815793D01*
X218660766Y-127643000D01*
X218209234Y-127643000D01*
X217792074Y-127815793D01*
X217485000Y-128122867D01*
X217177926Y-127815793D01*
X216760766Y-127643000D01*
X216309234Y-127643000D01*
X215892074Y-127815793D01*
X215572793Y-128135074D01*
X215400000Y-128552234D01*
X207136133Y-128552234D01*
X206850711Y-127863167D01*
X206186833Y-127199289D01*
X205319433Y-126840000D01*
X204380567Y-126840000D01*
X203513167Y-127199289D01*
X202849289Y-127863167D01*
X202490000Y-128730567D01*
X202003000Y-128730567D01*
X202003000Y-124869670D01*
X211770000Y-124869670D01*
X211770000Y-125480330D01*
X212003690Y-126044507D01*
X212435493Y-126476310D01*
X212999670Y-126710000D01*
X213610330Y-126710000D01*
X214174507Y-126476310D01*
X214606310Y-126044507D01*
X214840000Y-125480330D01*
X214840000Y-124869670D01*
X214606310Y-124305493D01*
X214174507Y-123873690D01*
X213610330Y-123640000D01*
X212999670Y-123640000D01*
X212435493Y-123873690D01*
X212003690Y-124305493D01*
X211770000Y-124869670D01*
X202003000Y-124869670D01*
X202003000Y-108676867D01*
X202370361Y-108309506D01*
X210705000Y-108309506D01*
X210705000Y-108860494D01*
X210915853Y-109369540D01*
X211305460Y-109759147D01*
X211814506Y-109970000D01*
X212365494Y-109970000D01*
X212874540Y-109759147D01*
X213264147Y-109369540D01*
X213475000Y-108860494D01*
X213475000Y-108309506D01*
X213264147Y-107800460D01*
X212874540Y-107410853D01*
X212365494Y-107200000D01*
X211814506Y-107200000D01*
X211305460Y-107410853D01*
X210915853Y-107800460D01*
X210705000Y-108309506D01*
X202370361Y-108309506D01*
X205831868Y-104848000D01*
X216033289Y-104848000D01*
X216075720Y-104890431D01*
X216456126Y-105048000D01*
X216867874Y-105048000D01*
X217248280Y-104890431D01*
X217351001Y-104787710D01*
X217351000Y-107243702D01*
X217245494Y-107200000D01*
X216694506Y-107200000D01*
X216185460Y-107410853D01*
X215795853Y-107800460D01*
X215585000Y-108309506D01*
X215585000Y-108860494D01*
X215795853Y-109369540D01*
X216185460Y-109759147D01*
X216694506Y-109970000D01*
X217245494Y-109970000D01*
X217351000Y-109926298D01*
X217351000Y-115487767D01*
X217334643Y-115570000D01*
X217351000Y-115652233D01*
X217351000Y-115652236D01*
X217399448Y-115895800D01*
X217583999Y-116172001D01*
X217653720Y-116218587D01*
X220179990Y-118744858D01*
X220179989Y-138088299D01*
X220163632Y-138170532D01*
X220179989Y-138252765D01*
X220179989Y-138252768D01*
X220228437Y-138496332D01*
X220412988Y-138772533D01*
X220482709Y-138819119D01*
X221519439Y-139855850D01*
X221372569Y-140002720D01*
X221215000Y-140383126D01*
X221215000Y-140794874D01*
X221372569Y-141175280D01*
X221415000Y-141217711D01*
X221415001Y-142402131D01*
X217291716Y-146525417D01*
X217278133Y-146539000D01*
X217218126Y-146539000D01*
X216837720Y-146696569D01*
X216546569Y-146987720D01*
X216389000Y-147368126D01*
X216389000Y-147779874D01*
X216546569Y-148160280D01*
X216837720Y-148451431D01*
X217218126Y-148609000D01*
X217629874Y-148609000D01*
X218010280Y-148451431D01*
X218301431Y-148160280D01*
X218459000Y-147779874D01*
X218459000Y-147719867D01*
X218472583Y-147706284D01*
X222782283Y-143396585D01*
X222852001Y-143350001D01*
X223036552Y-143073801D01*
X223085000Y-142830237D01*
X223101358Y-142748000D01*
X223085000Y-142665763D01*
X223085000Y-141421411D01*
X230150874Y-148487286D01*
X230197456Y-148557001D01*
X230473656Y-148741552D01*
X230717220Y-148790000D01*
X230717223Y-148790000D01*
X230799456Y-148806357D01*
X230881689Y-148790000D01*
X234991935Y-148790000D01*
X235149375Y-149025625D01*
X235449786Y-149226353D01*
X235024817Y-149613642D01*
X234778514Y-150138108D01*
X234899181Y-150368000D01*
X236093000Y-150368000D01*
X236093000Y-150348000D01*
X236347000Y-150348000D01*
X236347000Y-150368000D01*
X236367000Y-150368000D01*
X236367000Y-150622000D01*
X236347000Y-150622000D01*
X236347000Y-151815155D01*
X236576890Y-151936476D01*
X236986924Y-151766645D01*
X237415183Y-151376358D01*
X237476157Y-151246522D01*
X237689375Y-151565625D01*
X238180582Y-151893839D01*
X238613744Y-151980000D01*
X238906256Y-151980000D01*
X239339418Y-151893839D01*
X239830625Y-151565625D01*
X240030000Y-151267239D01*
X240229375Y-151565625D01*
X240720582Y-151893839D01*
X241153744Y-151980000D01*
X241446256Y-151980000D01*
X241879418Y-151893839D01*
X242370625Y-151565625D01*
X242698839Y-151074418D01*
X242814092Y-150495000D01*
X242698839Y-149915582D01*
X242370625Y-149424375D01*
X242352381Y-149412184D01*
X242397765Y-149403157D01*
X242607809Y-149262809D01*
X242646148Y-149205431D01*
X247745000Y-149205431D01*
X247745000Y-150094569D01*
X248085259Y-150916026D01*
X248713974Y-151544741D01*
X249535431Y-151885000D01*
X250424569Y-151885000D01*
X251246026Y-151544741D01*
X251874741Y-150916026D01*
X252215000Y-150094569D01*
X252215000Y-149205431D01*
X251874741Y-148383974D01*
X251246026Y-147755259D01*
X250424569Y-147415000D01*
X249535431Y-147415000D01*
X248713974Y-147755259D01*
X248085259Y-148383974D01*
X247745000Y-149205431D01*
X242646148Y-149205431D01*
X242748157Y-149052765D01*
X242797440Y-148805000D01*
X242797440Y-147105000D01*
X242748157Y-146857235D01*
X242607809Y-146647191D01*
X242397765Y-146506843D01*
X242150000Y-146457560D01*
X240450000Y-146457560D01*
X240202235Y-146506843D01*
X239992191Y-146647191D01*
X239851843Y-146857235D01*
X239842816Y-146902619D01*
X239830625Y-146884375D01*
X239339418Y-146556161D01*
X238906256Y-146470000D01*
X238613744Y-146470000D01*
X238180582Y-146556161D01*
X237689375Y-146884375D01*
X237490000Y-147182761D01*
X237290625Y-146884375D01*
X236799418Y-146556161D01*
X236366256Y-146470000D01*
X236073744Y-146470000D01*
X235640582Y-146556161D01*
X235149375Y-146884375D01*
X234991935Y-147120000D01*
X231145326Y-147120000D01*
X224172526Y-140147201D01*
X224360280Y-140069431D01*
X224651431Y-139778280D01*
X224809000Y-139397874D01*
X224809000Y-138986126D01*
X224651431Y-138605720D01*
X224360280Y-138314569D01*
X223979874Y-138157000D01*
X223926614Y-138157000D01*
X223699802Y-138005449D01*
X223456238Y-137957001D01*
X223456234Y-137957001D01*
X223374001Y-137940644D01*
X223291768Y-137957001D01*
X223211869Y-137957001D01*
X222714282Y-137459415D01*
X222971136Y-137565807D01*
X223382884Y-137565807D01*
X223573141Y-137487000D01*
X228073000Y-137487000D01*
X228073000Y-137873874D01*
X228230569Y-138254280D01*
X228521720Y-138545431D01*
X228902126Y-138703000D01*
X229313874Y-138703000D01*
X229694280Y-138545431D01*
X229736711Y-138503000D01*
X230232000Y-138503000D01*
X230232000Y-138889874D01*
X230389569Y-139270280D01*
X230680720Y-139561431D01*
X231061126Y-139719000D01*
X231472874Y-139719000D01*
X231853280Y-139561431D01*
X231895711Y-139519000D01*
X234937289Y-139519000D01*
X234707569Y-139748720D01*
X234550000Y-140129126D01*
X234550000Y-140540874D01*
X234707569Y-140921280D01*
X234998720Y-141212431D01*
X235379126Y-141370000D01*
X235790874Y-141370000D01*
X236171280Y-141212431D01*
X236213711Y-141170000D01*
X238131289Y-141170000D01*
X238173720Y-141212431D01*
X238554126Y-141370000D01*
X238965874Y-141370000D01*
X239346280Y-141212431D01*
X239637431Y-140921280D01*
X239795000Y-140540874D01*
X239795000Y-140129126D01*
X239637431Y-139748720D01*
X239407711Y-139519000D01*
X248091289Y-139519000D01*
X248133720Y-139561431D01*
X248514126Y-139719000D01*
X248925874Y-139719000D01*
X249306280Y-139561431D01*
X249597431Y-139270280D01*
X249755000Y-138889874D01*
X249755000Y-138478126D01*
X249597431Y-138097720D01*
X249306280Y-137806569D01*
X248925874Y-137649000D01*
X248514126Y-137649000D01*
X248133720Y-137806569D01*
X248091289Y-137849000D01*
X244825000Y-137849000D01*
X244825000Y-137462126D01*
X244667431Y-137081720D01*
X244376280Y-136790569D01*
X243995874Y-136633000D01*
X243584126Y-136633000D01*
X243203720Y-136790569D01*
X243161289Y-136833000D01*
X234842000Y-136833000D01*
X234842000Y-136446126D01*
X234684431Y-136065720D01*
X234393280Y-135774569D01*
X234012874Y-135617000D01*
X233601126Y-135617000D01*
X233220720Y-135774569D01*
X233178289Y-135817000D01*
X223926914Y-135817000D01*
X223763290Y-135653376D01*
X223382884Y-135495807D01*
X222971136Y-135495807D01*
X222590730Y-135653376D01*
X222450000Y-135794106D01*
X222450000Y-129539561D01*
X229730000Y-129539561D01*
X229730000Y-130110439D01*
X229948466Y-130637862D01*
X230352138Y-131041534D01*
X230879561Y-131260000D01*
X231450439Y-131260000D01*
X231977862Y-131041534D01*
X232381534Y-130637862D01*
X232600000Y-130110439D01*
X232600000Y-129589289D01*
X250980000Y-129589289D01*
X250980000Y-130060711D01*
X251160405Y-130496249D01*
X251493751Y-130829595D01*
X251929289Y-131010000D01*
X252400711Y-131010000D01*
X252836249Y-130829595D01*
X253169595Y-130496249D01*
X253350000Y-130060711D01*
X253350000Y-129589289D01*
X253169595Y-129153751D01*
X252836249Y-128820405D01*
X252400711Y-128640000D01*
X251929289Y-128640000D01*
X251493751Y-128820405D01*
X251160405Y-129153751D01*
X250980000Y-129589289D01*
X232600000Y-129589289D01*
X232600000Y-129539561D01*
X232381534Y-129012138D01*
X231977862Y-128608466D01*
X231450439Y-128390000D01*
X230879561Y-128390000D01*
X230352138Y-128608466D01*
X229948466Y-129012138D01*
X229730000Y-129539561D01*
X222450000Y-129539561D01*
X222450000Y-117557237D01*
X222466358Y-117475000D01*
X222401552Y-117149200D01*
X222401552Y-117149199D01*
X222217001Y-116872999D01*
X222147283Y-116826415D01*
X221163868Y-115843000D01*
X221566874Y-115843000D01*
X221947280Y-115685431D01*
X222238431Y-115394280D01*
X222396000Y-115013874D01*
X222396000Y-114953867D01*
X230402283Y-106947585D01*
X230472001Y-106901001D01*
X230656552Y-106624801D01*
X230705000Y-106381237D01*
X230705000Y-106381234D01*
X230721357Y-106299001D01*
X230705000Y-106216768D01*
X230705000Y-90506232D01*
X230707684Y-90492734D01*
X252790293Y-90492734D01*
X252811214Y-91222443D01*
X253050212Y-91799435D01*
X253337825Y-91922570D01*
X254455395Y-90805000D01*
X253337825Y-89687430D01*
X253050212Y-89810565D01*
X252790293Y-90492734D01*
X230707684Y-90492734D01*
X230721357Y-90423999D01*
X230705000Y-90341766D01*
X230705000Y-90341763D01*
X230656552Y-90098199D01*
X230472001Y-89821999D01*
X230402282Y-89775415D01*
X229726867Y-89100000D01*
X231692767Y-89100000D01*
X231775000Y-89116357D01*
X231857233Y-89100000D01*
X231857237Y-89100000D01*
X232100801Y-89051552D01*
X232377001Y-88867001D01*
X232423587Y-88797280D01*
X254059411Y-67161457D01*
X254454273Y-67240000D01*
X254815727Y-67240000D01*
X255350981Y-67133531D01*
X255830001Y-66813461D01*
X255830000Y-89430392D01*
X255752569Y-89507823D01*
X255629435Y-89220212D01*
X254947266Y-88960293D01*
X254217557Y-88981214D01*
X253640565Y-89220212D01*
X253517430Y-89507825D01*
X254635000Y-90625395D01*
X254649143Y-90611253D01*
X254828748Y-90790858D01*
X254814605Y-90805000D01*
X254828748Y-90819143D01*
X254649143Y-90998748D01*
X254635000Y-90984605D01*
X253517430Y-92102175D01*
X253640565Y-92389788D01*
X254322734Y-92649707D01*
X255052443Y-92628786D01*
X255629435Y-92389788D01*
X255752569Y-92102177D01*
X255830000Y-92179608D01*
X255830000Y-154230000D01*
X186130000Y-154230000D01*
X186130000Y-149205431D01*
X189745000Y-149205431D01*
X189745000Y-150094569D01*
X190085259Y-150916026D01*
X190713974Y-151544741D01*
X191535431Y-151885000D01*
X192424569Y-151885000D01*
X193246026Y-151544741D01*
X193660767Y-151130000D01*
X197875908Y-151130000D01*
X197991161Y-151709418D01*
X198319375Y-152200625D01*
X198810582Y-152528839D01*
X199243744Y-152615000D01*
X199536256Y-152615000D01*
X199969418Y-152528839D01*
X200460625Y-152200625D01*
X200472816Y-152182381D01*
X200481843Y-152227765D01*
X200622191Y-152437809D01*
X200832235Y-152578157D01*
X201080000Y-152627440D01*
X202780000Y-152627440D01*
X203027765Y-152578157D01*
X203237809Y-152437809D01*
X203378157Y-152227765D01*
X203427440Y-151980000D01*
X203427440Y-150851892D01*
X234778514Y-150851892D01*
X235024817Y-151376358D01*
X235453076Y-151766645D01*
X235863110Y-151936476D01*
X236093000Y-151815155D01*
X236093000Y-150622000D01*
X234899181Y-150622000D01*
X234778514Y-150851892D01*
X203427440Y-150851892D01*
X203427440Y-150280000D01*
X203378157Y-150032235D01*
X203237809Y-149822191D01*
X203027765Y-149681843D01*
X202780000Y-149632560D01*
X201080000Y-149632560D01*
X200832235Y-149681843D01*
X200622191Y-149822191D01*
X200481843Y-150032235D01*
X200472816Y-150077619D01*
X200460625Y-150059375D01*
X199969418Y-149731161D01*
X199536256Y-149645000D01*
X199243744Y-149645000D01*
X198810582Y-149731161D01*
X198319375Y-150059375D01*
X197991161Y-150550582D01*
X197875908Y-151130000D01*
X193660767Y-151130000D01*
X193874741Y-150916026D01*
X194215000Y-150094569D01*
X194215000Y-149205431D01*
X193874741Y-148383974D01*
X193246026Y-147755259D01*
X192424569Y-147415000D01*
X191535431Y-147415000D01*
X190713974Y-147755259D01*
X190085259Y-148383974D01*
X189745000Y-149205431D01*
X186130000Y-149205431D01*
X186130000Y-137165990D01*
X187020000Y-137165990D01*
X187020000Y-137894010D01*
X187298601Y-138566612D01*
X187813388Y-139081399D01*
X188485990Y-139360000D01*
X189214010Y-139360000D01*
X189886612Y-139081399D01*
X190401399Y-138566612D01*
X190680000Y-137894010D01*
X190680000Y-137165990D01*
X190401399Y-136493388D01*
X189886612Y-135978601D01*
X189214010Y-135700000D01*
X188485990Y-135700000D01*
X187813388Y-135978601D01*
X187298601Y-136493388D01*
X187020000Y-137165990D01*
X186130000Y-137165990D01*
X186130000Y-73530567D01*
X186490000Y-73530567D01*
X186490000Y-74469433D01*
X186849289Y-75336833D01*
X187513167Y-76000711D01*
X188380567Y-76360000D01*
X189319433Y-76360000D01*
X190186833Y-76000711D01*
X190850711Y-75336833D01*
X191210000Y-74469433D01*
X191210000Y-73530567D01*
X190850711Y-72663167D01*
X190186833Y-71999289D01*
X189319433Y-71640000D01*
X188380567Y-71640000D01*
X187513167Y-71999289D01*
X186849289Y-72663167D01*
X186490000Y-73530567D01*
X186130000Y-73530567D01*
X186130000Y-53117750D01*
X197905000Y-53117750D01*
X197905000Y-53608310D01*
X198001673Y-53841699D01*
X198180302Y-54020327D01*
X198413691Y-54117000D01*
X198904250Y-54117000D01*
X199063000Y-53958250D01*
X199063000Y-52959000D01*
X198063750Y-52959000D01*
X197905000Y-53117750D01*
X186130000Y-53117750D01*
X186130000Y-52055690D01*
X197905000Y-52055690D01*
X197905000Y-52546250D01*
X198063750Y-52705000D01*
X199063000Y-52705000D01*
X199063000Y-51705750D01*
X198904250Y-51547000D01*
X198413691Y-51547000D01*
X198180302Y-51643673D01*
X198001673Y-51822301D01*
X197905000Y-52055690D01*
X186130000Y-52055690D01*
X186130000Y-47482132D01*
X217396500Y-47482132D01*
X217396500Y-48517868D01*
X217792859Y-49474765D01*
X218525235Y-50207141D01*
X219482132Y-50603500D01*
X220517868Y-50603500D01*
X221474765Y-50207141D01*
X222207141Y-49474765D01*
X222603500Y-48517868D01*
X222603500Y-47482132D01*
X240510500Y-47482132D01*
X240510500Y-48517868D01*
X240906859Y-49474765D01*
X241639235Y-50207141D01*
X242596132Y-50603500D01*
X243631868Y-50603500D01*
X244588765Y-50207141D01*
X245321141Y-49474765D01*
X245717500Y-48517868D01*
X245717500Y-47482132D01*
X245321141Y-46525235D01*
X244588765Y-45792859D01*
X243631868Y-45396500D01*
X242596132Y-45396500D01*
X241639235Y-45792859D01*
X240906859Y-46525235D01*
X240510500Y-47482132D01*
X222603500Y-47482132D01*
X222207141Y-46525235D01*
X221474765Y-45792859D01*
X220517868Y-45396500D01*
X219482132Y-45396500D01*
X218525235Y-45792859D01*
X217792859Y-46525235D01*
X217396500Y-47482132D01*
X186130000Y-47482132D01*
X186130000Y-41519132D01*
X188839500Y-41519132D01*
X188839500Y-42554868D01*
X189235859Y-43511765D01*
X189968235Y-44244141D01*
X190925132Y-44640500D01*
X191960868Y-44640500D01*
X192917765Y-44244141D01*
X193650141Y-43511765D01*
X194046500Y-42554868D01*
X194046500Y-41519132D01*
X211953500Y-41519132D01*
X211953500Y-42554868D01*
X212349859Y-43511765D01*
X213082235Y-44244141D01*
X214039132Y-44640500D01*
X215074868Y-44640500D01*
X216031765Y-44244141D01*
X216764141Y-43511765D01*
X217160500Y-42554868D01*
X217160500Y-41519132D01*
X216764141Y-40562235D01*
X216031765Y-39829859D01*
X215074868Y-39433500D01*
X214039132Y-39433500D01*
X213082235Y-39829859D01*
X212349859Y-40562235D01*
X211953500Y-41519132D01*
X194046500Y-41519132D01*
X193650141Y-40562235D01*
X192917765Y-39829859D01*
X191960868Y-39433500D01*
X190925132Y-39433500D01*
X189968235Y-39829859D01*
X189235859Y-40562235D01*
X188839500Y-41519132D01*
X186130000Y-41519132D01*
X186130000Y-27705431D01*
X189745000Y-27705431D01*
X189745000Y-28594569D01*
X190085259Y-29416026D01*
X190713974Y-30044741D01*
X191535431Y-30385000D01*
X192424569Y-30385000D01*
X193246026Y-30044741D01*
X193874741Y-29416026D01*
X194215000Y-28594569D01*
X194215000Y-27705431D01*
X247745000Y-27705431D01*
X247745000Y-28594569D01*
X248085259Y-29416026D01*
X248713974Y-30044741D01*
X249535431Y-30385000D01*
X250424569Y-30385000D01*
X251246026Y-30044741D01*
X251874741Y-29416026D01*
X252215000Y-28594569D01*
X252215000Y-27705431D01*
X251874741Y-26883974D01*
X251246026Y-26255259D01*
X250424569Y-25915000D01*
X249535431Y-25915000D01*
X248713974Y-26255259D01*
X248085259Y-26883974D01*
X247745000Y-27705431D01*
X194215000Y-27705431D01*
X193874741Y-26883974D01*
X193246026Y-26255259D01*
X192424569Y-25915000D01*
X191535431Y-25915000D01*
X190713974Y-26255259D01*
X190085259Y-26883974D01*
X189745000Y-27705431D01*
X186130000Y-27705431D01*
X186130000Y-23570000D01*
X255830001Y-23570000D01*
X255830001Y-63996539D01*
G36*
X228273000Y-104937132D02*
X220072133Y-113138000D01*
X220012126Y-113138000D01*
X219783000Y-113232907D01*
X219783000Y-107660867D01*
X220012949Y-107430918D01*
X220102569Y-107647280D01*
X220393720Y-107938431D01*
X220774126Y-108096000D01*
X221185874Y-108096000D01*
X221566280Y-107938431D01*
X221608711Y-107896000D01*
X224453767Y-107896000D01*
X224536000Y-107912357D01*
X224618233Y-107896000D01*
X224618237Y-107896000D01*
X224861801Y-107847552D01*
X225138001Y-107663001D01*
X225184587Y-107593280D01*
X227602868Y-105175000D01*
X227662874Y-105175000D01*
X228043280Y-105017431D01*
X228273000Y-104787711D01*
X228273000Y-104937132D01*
X228273000Y-104937132D01*
G37*
X228273000Y-104937132D02*
X220072133Y-113138000D01*
X220012126Y-113138000D01*
X219783000Y-113232907D01*
X219783000Y-107660867D01*
X220012949Y-107430918D01*
X220102569Y-107647280D01*
X220393720Y-107938431D01*
X220774126Y-108096000D01*
X221185874Y-108096000D01*
X221566280Y-107938431D01*
X221608711Y-107896000D01*
X224453767Y-107896000D01*
X224536000Y-107912357D01*
X224618233Y-107896000D01*
X224618237Y-107896000D01*
X224861801Y-107847552D01*
X225138001Y-107663001D01*
X225184587Y-107593280D01*
X227602868Y-105175000D01*
X227662874Y-105175000D01*
X228043280Y-105017431D01*
X228273000Y-104787711D01*
X228273000Y-104937132D01*
M02*
