%TF.GenerationSoftware,KiCad,Pcbnew,6.0.0-rc1-unknown-994a9c5~65~ubuntu18.04.1*%
%TF.CreationDate,2018-07-25T16:15:22+03:00*%
%TF.ProjectId,counter-pneumatic-v1-G368,636F756E7465722D706E65756D617469,rev?*%
%TF.SameCoordinates,Original*%
%TF.FileFunction,Soldermask,Top*%
%TF.FilePolarity,Negative*%
%FSLAX46Y46*%
G04 Gerber Fmt 4.6, Leading zero omitted, Abs format (unit mm)*
G04 Created by KiCad (PCBNEW 6.0.0-rc1-unknown-994a9c5~65~ubuntu18.04.1) date Wed Jul 25 16:15:22 2018*
%MOMM*%
%LPD*%
G01*
G04 APERTURE LIST*
%ADD10C,0.150000*%
%ADD11R,1.400000X1.900000*%
%ADD12R,1.100000X1.900000*%
%ADD13C,2.000000*%
%ADD14C,1.500000*%
%ADD15R,1.900000X3.200000*%
%ADD16C,2.200000*%
%ADD17C,1.400000*%
%ADD18C,4.337000*%
%ADD19C,1.700000*%
%ADD20R,1.700000X1.700000*%
%ADD21C,2.790000*%
%ADD22C,3.850000*%
%ADD23R,6.750000X7.740000*%
%ADD24O,2.100000X2.100000*%
%ADD25R,2.100000X2.100000*%
%ADD26R,1.050000X1.460000*%
%ADD27R,1.950000X1.000000*%
%ADD28R,0.950000X2.000000*%
%ADD29R,2.000000X0.950000*%
%ADD30C,1.900000*%
%ADD31R,2.200000X2.200000*%
%ADD32R,3.150000X1.400000*%
%ADD33R,1.400000X3.150000*%
%ADD34R,1.000000X1.950000*%
%ADD35C,3.600000*%
%ADD36C,1.550000*%
%ADD37R,1.600000X1.300000*%
%ADD38R,1.200000X2.300000*%
%ADD39C,2.800000*%
%ADD40O,2.800000X2.800000*%
G04 APERTURE END LIST*
D10*
X185420000Y-22860000D02*
X185420000Y-154940000D01*
X256540000Y-22860000D02*
X185420000Y-22860000D01*
X256540000Y-154940000D02*
X256540000Y-22860000D01*
X185420000Y-154940000D02*
X256540000Y-154940000D01*
D11*
X233790000Y-132625000D03*
X236290000Y-132625000D03*
X238790000Y-132625000D03*
X241290000Y-132625000D03*
X243790000Y-132625000D03*
X246290000Y-132625000D03*
X248720000Y-132625000D03*
X250420000Y-132625000D03*
X231290000Y-132625000D03*
D12*
X251720000Y-132625000D03*
X252920000Y-132625000D03*
D13*
X231165000Y-129825000D03*
D14*
X252165000Y-129825000D03*
D15*
X229215000Y-130825000D03*
X227015000Y-109325000D03*
X254315000Y-109325000D03*
X254315000Y-130825000D03*
X254315000Y-116250000D03*
X227015000Y-116250000D03*
D16*
X213305000Y-125175000D03*
X209605000Y-130175000D03*
X213305000Y-135175000D03*
D17*
X218435000Y-128778000D03*
X216535000Y-128778000D03*
D18*
X191443000Y-42037000D03*
X214557000Y-42037000D03*
D19*
X206810000Y-52832000D03*
X204270000Y-52832000D03*
X201730000Y-52832000D03*
D20*
X199190000Y-52832000D03*
D18*
X220000000Y-48000000D03*
X243114000Y-48000000D03*
D19*
X235367000Y-58795000D03*
X232827000Y-58795000D03*
X230287000Y-58795000D03*
D20*
X227747000Y-58795000D03*
D21*
X188850000Y-137530000D03*
D22*
X204850000Y-129200000D03*
X188850000Y-74000000D03*
D23*
X196850000Y-62270000D03*
X196850000Y-140930000D03*
D24*
X226060000Y-86360000D03*
X226060000Y-83820000D03*
X226060000Y-81280000D03*
X226060000Y-78740000D03*
X226060000Y-76200000D03*
D25*
X226060000Y-73660000D03*
D26*
X222890000Y-147660000D03*
X224790000Y-147660000D03*
X224790000Y-149860000D03*
X223840000Y-149860000D03*
X222890000Y-149860000D03*
D27*
X218539000Y-56896000D03*
X218539000Y-58166000D03*
X218539000Y-59436000D03*
X218539000Y-60706000D03*
X213139000Y-60706000D03*
X213139000Y-59436000D03*
X213139000Y-58166000D03*
X213139000Y-56896000D03*
D28*
X214370000Y-92905000D03*
X215170000Y-92905000D03*
X215970000Y-92905000D03*
X216770000Y-92905000D03*
X217570000Y-92905000D03*
X218370000Y-92905000D03*
X219170000Y-92905000D03*
X219970000Y-92905000D03*
D29*
X221420000Y-94355000D03*
X221420000Y-95155000D03*
X221420000Y-95955000D03*
X221420000Y-96755000D03*
X221420000Y-97555000D03*
X221420000Y-98355000D03*
X221420000Y-99155000D03*
X221420000Y-99955000D03*
D28*
X219970000Y-101405000D03*
X219170000Y-101405000D03*
X218370000Y-101405000D03*
X217570000Y-101405000D03*
X216770000Y-101405000D03*
X215970000Y-101405000D03*
X215170000Y-101405000D03*
X214370000Y-101405000D03*
D29*
X212920000Y-99955000D03*
X212920000Y-99155000D03*
X212920000Y-98355000D03*
X212920000Y-97555000D03*
X212920000Y-96755000D03*
X212920000Y-95955000D03*
X212920000Y-95155000D03*
X212920000Y-94355000D03*
D30*
X216970000Y-108585000D03*
X212090000Y-108585000D03*
D24*
X199390000Y-151130000D03*
D25*
X201930000Y-151130000D03*
X241300000Y-147955000D03*
D24*
X241300000Y-150495000D03*
X238760000Y-147955000D03*
X238760000Y-150495000D03*
X236220000Y-147955000D03*
X236220000Y-150495000D03*
D31*
X211455000Y-80010000D03*
D16*
X211455000Y-82550000D03*
D32*
X213360000Y-149320000D03*
X207600000Y-149320000D03*
X207600000Y-145320000D03*
X213360000Y-145320000D03*
D33*
X214820000Y-75905000D03*
X214820000Y-70145000D03*
X210820000Y-70145000D03*
X210820000Y-75905000D03*
D34*
X217043000Y-125509000D03*
X218313000Y-125509000D03*
X219583000Y-125509000D03*
X220853000Y-125509000D03*
X220853000Y-120109000D03*
X219583000Y-120109000D03*
X218313000Y-120109000D03*
X217043000Y-120109000D03*
D35*
X191980000Y-149650000D03*
X249980000Y-149650000D03*
X191980000Y-28150000D03*
X249980000Y-28150000D03*
X249980000Y-58900000D03*
D10*
G36*
X217766071Y-144396623D02*
X217798781Y-144401475D01*
X217830857Y-144409509D01*
X217861991Y-144420649D01*
X217891884Y-144434787D01*
X217920247Y-144451787D01*
X217946807Y-144471485D01*
X217971308Y-144493692D01*
X217993515Y-144518193D01*
X218013213Y-144544753D01*
X218030213Y-144573116D01*
X218044351Y-144603009D01*
X218055491Y-144634143D01*
X218063525Y-144666219D01*
X218068377Y-144698929D01*
X218070000Y-144731956D01*
X218070000Y-145608044D01*
X218068377Y-145641071D01*
X218063525Y-145673781D01*
X218055491Y-145705857D01*
X218044351Y-145736991D01*
X218030213Y-145766884D01*
X218013213Y-145795247D01*
X217993515Y-145821807D01*
X217971308Y-145846308D01*
X217946807Y-145868515D01*
X217920247Y-145888213D01*
X217891884Y-145905213D01*
X217861991Y-145919351D01*
X217830857Y-145930491D01*
X217798781Y-145938525D01*
X217766071Y-145943377D01*
X217733044Y-145945000D01*
X216606956Y-145945000D01*
X216573929Y-145943377D01*
X216541219Y-145938525D01*
X216509143Y-145930491D01*
X216478009Y-145919351D01*
X216448116Y-145905213D01*
X216419753Y-145888213D01*
X216393193Y-145868515D01*
X216368692Y-145846308D01*
X216346485Y-145821807D01*
X216326787Y-145795247D01*
X216309787Y-145766884D01*
X216295649Y-145736991D01*
X216284509Y-145705857D01*
X216276475Y-145673781D01*
X216271623Y-145641071D01*
X216270000Y-145608044D01*
X216270000Y-144731956D01*
X216271623Y-144698929D01*
X216276475Y-144666219D01*
X216284509Y-144634143D01*
X216295649Y-144603009D01*
X216309787Y-144573116D01*
X216326787Y-144544753D01*
X216346485Y-144518193D01*
X216368692Y-144493692D01*
X216393193Y-144471485D01*
X216419753Y-144451787D01*
X216448116Y-144434787D01*
X216478009Y-144420649D01*
X216509143Y-144409509D01*
X216541219Y-144401475D01*
X216573929Y-144396623D01*
X216606956Y-144395000D01*
X217733044Y-144395000D01*
X217766071Y-144396623D01*
X217766071Y-144396623D01*
G37*
D36*
X217170000Y-145170000D03*
D10*
G36*
X217766071Y-142346623D02*
X217798781Y-142351475D01*
X217830857Y-142359509D01*
X217861991Y-142370649D01*
X217891884Y-142384787D01*
X217920247Y-142401787D01*
X217946807Y-142421485D01*
X217971308Y-142443692D01*
X217993515Y-142468193D01*
X218013213Y-142494753D01*
X218030213Y-142523116D01*
X218044351Y-142553009D01*
X218055491Y-142584143D01*
X218063525Y-142616219D01*
X218068377Y-142648929D01*
X218070000Y-142681956D01*
X218070000Y-143558044D01*
X218068377Y-143591071D01*
X218063525Y-143623781D01*
X218055491Y-143655857D01*
X218044351Y-143686991D01*
X218030213Y-143716884D01*
X218013213Y-143745247D01*
X217993515Y-143771807D01*
X217971308Y-143796308D01*
X217946807Y-143818515D01*
X217920247Y-143838213D01*
X217891884Y-143855213D01*
X217861991Y-143869351D01*
X217830857Y-143880491D01*
X217798781Y-143888525D01*
X217766071Y-143893377D01*
X217733044Y-143895000D01*
X216606956Y-143895000D01*
X216573929Y-143893377D01*
X216541219Y-143888525D01*
X216509143Y-143880491D01*
X216478009Y-143869351D01*
X216448116Y-143855213D01*
X216419753Y-143838213D01*
X216393193Y-143818515D01*
X216368692Y-143796308D01*
X216346485Y-143771807D01*
X216326787Y-143745247D01*
X216309787Y-143716884D01*
X216295649Y-143686991D01*
X216284509Y-143655857D01*
X216276475Y-143623781D01*
X216271623Y-143591071D01*
X216270000Y-143558044D01*
X216270000Y-142681956D01*
X216271623Y-142648929D01*
X216276475Y-142616219D01*
X216284509Y-142584143D01*
X216295649Y-142553009D01*
X216309787Y-142523116D01*
X216326787Y-142494753D01*
X216346485Y-142468193D01*
X216368692Y-142443692D01*
X216393193Y-142421485D01*
X216419753Y-142401787D01*
X216448116Y-142384787D01*
X216478009Y-142370649D01*
X216509143Y-142359509D01*
X216541219Y-142351475D01*
X216573929Y-142346623D01*
X216606956Y-142345000D01*
X217733044Y-142345000D01*
X217766071Y-142346623D01*
X217766071Y-142346623D01*
G37*
D36*
X217170000Y-143120000D03*
D10*
G36*
X231736071Y-145219123D02*
X231768781Y-145223975D01*
X231800857Y-145232009D01*
X231831991Y-145243149D01*
X231861884Y-145257287D01*
X231890247Y-145274287D01*
X231916807Y-145293985D01*
X231941308Y-145316192D01*
X231963515Y-145340693D01*
X231983213Y-145367253D01*
X232000213Y-145395616D01*
X232014351Y-145425509D01*
X232025491Y-145456643D01*
X232033525Y-145488719D01*
X232038377Y-145521429D01*
X232040000Y-145554456D01*
X232040000Y-146430544D01*
X232038377Y-146463571D01*
X232033525Y-146496281D01*
X232025491Y-146528357D01*
X232014351Y-146559491D01*
X232000213Y-146589384D01*
X231983213Y-146617747D01*
X231963515Y-146644307D01*
X231941308Y-146668808D01*
X231916807Y-146691015D01*
X231890247Y-146710713D01*
X231861884Y-146727713D01*
X231831991Y-146741851D01*
X231800857Y-146752991D01*
X231768781Y-146761025D01*
X231736071Y-146765877D01*
X231703044Y-146767500D01*
X230576956Y-146767500D01*
X230543929Y-146765877D01*
X230511219Y-146761025D01*
X230479143Y-146752991D01*
X230448009Y-146741851D01*
X230418116Y-146727713D01*
X230389753Y-146710713D01*
X230363193Y-146691015D01*
X230338692Y-146668808D01*
X230316485Y-146644307D01*
X230296787Y-146617747D01*
X230279787Y-146589384D01*
X230265649Y-146559491D01*
X230254509Y-146528357D01*
X230246475Y-146496281D01*
X230241623Y-146463571D01*
X230240000Y-146430544D01*
X230240000Y-145554456D01*
X230241623Y-145521429D01*
X230246475Y-145488719D01*
X230254509Y-145456643D01*
X230265649Y-145425509D01*
X230279787Y-145395616D01*
X230296787Y-145367253D01*
X230316485Y-145340693D01*
X230338692Y-145316192D01*
X230363193Y-145293985D01*
X230389753Y-145274287D01*
X230418116Y-145257287D01*
X230448009Y-145243149D01*
X230479143Y-145232009D01*
X230511219Y-145223975D01*
X230543929Y-145219123D01*
X230576956Y-145217500D01*
X231703044Y-145217500D01*
X231736071Y-145219123D01*
X231736071Y-145219123D01*
G37*
D36*
X231140000Y-145992500D03*
D10*
G36*
X231736071Y-147269123D02*
X231768781Y-147273975D01*
X231800857Y-147282009D01*
X231831991Y-147293149D01*
X231861884Y-147307287D01*
X231890247Y-147324287D01*
X231916807Y-147343985D01*
X231941308Y-147366192D01*
X231963515Y-147390693D01*
X231983213Y-147417253D01*
X232000213Y-147445616D01*
X232014351Y-147475509D01*
X232025491Y-147506643D01*
X232033525Y-147538719D01*
X232038377Y-147571429D01*
X232040000Y-147604456D01*
X232040000Y-148480544D01*
X232038377Y-148513571D01*
X232033525Y-148546281D01*
X232025491Y-148578357D01*
X232014351Y-148609491D01*
X232000213Y-148639384D01*
X231983213Y-148667747D01*
X231963515Y-148694307D01*
X231941308Y-148718808D01*
X231916807Y-148741015D01*
X231890247Y-148760713D01*
X231861884Y-148777713D01*
X231831991Y-148791851D01*
X231800857Y-148802991D01*
X231768781Y-148811025D01*
X231736071Y-148815877D01*
X231703044Y-148817500D01*
X230576956Y-148817500D01*
X230543929Y-148815877D01*
X230511219Y-148811025D01*
X230479143Y-148802991D01*
X230448009Y-148791851D01*
X230418116Y-148777713D01*
X230389753Y-148760713D01*
X230363193Y-148741015D01*
X230338692Y-148718808D01*
X230316485Y-148694307D01*
X230296787Y-148667747D01*
X230279787Y-148639384D01*
X230265649Y-148609491D01*
X230254509Y-148578357D01*
X230246475Y-148546281D01*
X230241623Y-148513571D01*
X230240000Y-148480544D01*
X230240000Y-147604456D01*
X230241623Y-147571429D01*
X230246475Y-147538719D01*
X230254509Y-147506643D01*
X230265649Y-147475509D01*
X230279787Y-147445616D01*
X230296787Y-147417253D01*
X230316485Y-147390693D01*
X230338692Y-147366192D01*
X230363193Y-147343985D01*
X230389753Y-147324287D01*
X230418116Y-147307287D01*
X230448009Y-147293149D01*
X230479143Y-147282009D01*
X230511219Y-147273975D01*
X230543929Y-147269123D01*
X230576956Y-147267500D01*
X231703044Y-147267500D01*
X231736071Y-147269123D01*
X231736071Y-147269123D01*
G37*
D36*
X231140000Y-148042500D03*
D10*
G36*
X239356071Y-135115799D02*
X239388781Y-135120651D01*
X239420857Y-135128685D01*
X239451991Y-135139825D01*
X239481884Y-135153963D01*
X239510247Y-135170963D01*
X239536807Y-135190661D01*
X239561308Y-135212868D01*
X239583515Y-135237369D01*
X239603213Y-135263929D01*
X239620213Y-135292292D01*
X239634351Y-135322185D01*
X239645491Y-135353319D01*
X239653525Y-135385395D01*
X239658377Y-135418105D01*
X239660000Y-135451132D01*
X239660000Y-136327220D01*
X239658377Y-136360247D01*
X239653525Y-136392957D01*
X239645491Y-136425033D01*
X239634351Y-136456167D01*
X239620213Y-136486060D01*
X239603213Y-136514423D01*
X239583515Y-136540983D01*
X239561308Y-136565484D01*
X239536807Y-136587691D01*
X239510247Y-136607389D01*
X239481884Y-136624389D01*
X239451991Y-136638527D01*
X239420857Y-136649667D01*
X239388781Y-136657701D01*
X239356071Y-136662553D01*
X239323044Y-136664176D01*
X238196956Y-136664176D01*
X238163929Y-136662553D01*
X238131219Y-136657701D01*
X238099143Y-136649667D01*
X238068009Y-136638527D01*
X238038116Y-136624389D01*
X238009753Y-136607389D01*
X237983193Y-136587691D01*
X237958692Y-136565484D01*
X237936485Y-136540983D01*
X237916787Y-136514423D01*
X237899787Y-136486060D01*
X237885649Y-136456167D01*
X237874509Y-136425033D01*
X237866475Y-136392957D01*
X237861623Y-136360247D01*
X237860000Y-136327220D01*
X237860000Y-135451132D01*
X237861623Y-135418105D01*
X237866475Y-135385395D01*
X237874509Y-135353319D01*
X237885649Y-135322185D01*
X237899787Y-135292292D01*
X237916787Y-135263929D01*
X237936485Y-135237369D01*
X237958692Y-135212868D01*
X237983193Y-135190661D01*
X238009753Y-135170963D01*
X238038116Y-135153963D01*
X238068009Y-135139825D01*
X238099143Y-135128685D01*
X238131219Y-135120651D01*
X238163929Y-135115799D01*
X238196956Y-135114176D01*
X239323044Y-135114176D01*
X239356071Y-135115799D01*
X239356071Y-135115799D01*
G37*
D36*
X238760000Y-135889176D03*
D10*
G36*
X239356071Y-137165799D02*
X239388781Y-137170651D01*
X239420857Y-137178685D01*
X239451991Y-137189825D01*
X239481884Y-137203963D01*
X239510247Y-137220963D01*
X239536807Y-137240661D01*
X239561308Y-137262868D01*
X239583515Y-137287369D01*
X239603213Y-137313929D01*
X239620213Y-137342292D01*
X239634351Y-137372185D01*
X239645491Y-137403319D01*
X239653525Y-137435395D01*
X239658377Y-137468105D01*
X239660000Y-137501132D01*
X239660000Y-138377220D01*
X239658377Y-138410247D01*
X239653525Y-138442957D01*
X239645491Y-138475033D01*
X239634351Y-138506167D01*
X239620213Y-138536060D01*
X239603213Y-138564423D01*
X239583515Y-138590983D01*
X239561308Y-138615484D01*
X239536807Y-138637691D01*
X239510247Y-138657389D01*
X239481884Y-138674389D01*
X239451991Y-138688527D01*
X239420857Y-138699667D01*
X239388781Y-138707701D01*
X239356071Y-138712553D01*
X239323044Y-138714176D01*
X238196956Y-138714176D01*
X238163929Y-138712553D01*
X238131219Y-138707701D01*
X238099143Y-138699667D01*
X238068009Y-138688527D01*
X238038116Y-138674389D01*
X238009753Y-138657389D01*
X237983193Y-138637691D01*
X237958692Y-138615484D01*
X237936485Y-138590983D01*
X237916787Y-138564423D01*
X237899787Y-138536060D01*
X237885649Y-138506167D01*
X237874509Y-138475033D01*
X237866475Y-138442957D01*
X237861623Y-138410247D01*
X237860000Y-138377220D01*
X237860000Y-137501132D01*
X237861623Y-137468105D01*
X237866475Y-137435395D01*
X237874509Y-137403319D01*
X237885649Y-137372185D01*
X237899787Y-137342292D01*
X237916787Y-137313929D01*
X237936485Y-137287369D01*
X237958692Y-137262868D01*
X237983193Y-137240661D01*
X238009753Y-137220963D01*
X238038116Y-137203963D01*
X238068009Y-137189825D01*
X238099143Y-137178685D01*
X238131219Y-137170651D01*
X238163929Y-137165799D01*
X238196956Y-137164176D01*
X239323044Y-137164176D01*
X239356071Y-137165799D01*
X239356071Y-137165799D01*
G37*
D36*
X238760000Y-137939176D03*
D10*
G36*
X227556071Y-98796623D02*
X227588781Y-98801475D01*
X227620857Y-98809509D01*
X227651991Y-98820649D01*
X227681884Y-98834787D01*
X227710247Y-98851787D01*
X227736807Y-98871485D01*
X227761308Y-98893692D01*
X227783515Y-98918193D01*
X227803213Y-98944753D01*
X227820213Y-98973116D01*
X227834351Y-99003009D01*
X227845491Y-99034143D01*
X227853525Y-99066219D01*
X227858377Y-99098929D01*
X227860000Y-99131956D01*
X227860000Y-100258044D01*
X227858377Y-100291071D01*
X227853525Y-100323781D01*
X227845491Y-100355857D01*
X227834351Y-100386991D01*
X227820213Y-100416884D01*
X227803213Y-100445247D01*
X227783515Y-100471807D01*
X227761308Y-100496308D01*
X227736807Y-100518515D01*
X227710247Y-100538213D01*
X227681884Y-100555213D01*
X227651991Y-100569351D01*
X227620857Y-100580491D01*
X227588781Y-100588525D01*
X227556071Y-100593377D01*
X227523044Y-100595000D01*
X226646956Y-100595000D01*
X226613929Y-100593377D01*
X226581219Y-100588525D01*
X226549143Y-100580491D01*
X226518009Y-100569351D01*
X226488116Y-100555213D01*
X226459753Y-100538213D01*
X226433193Y-100518515D01*
X226408692Y-100496308D01*
X226386485Y-100471807D01*
X226366787Y-100445247D01*
X226349787Y-100416884D01*
X226335649Y-100386991D01*
X226324509Y-100355857D01*
X226316475Y-100323781D01*
X226311623Y-100291071D01*
X226310000Y-100258044D01*
X226310000Y-99131956D01*
X226311623Y-99098929D01*
X226316475Y-99066219D01*
X226324509Y-99034143D01*
X226335649Y-99003009D01*
X226349787Y-98973116D01*
X226366787Y-98944753D01*
X226386485Y-98918193D01*
X226408692Y-98893692D01*
X226433193Y-98871485D01*
X226459753Y-98851787D01*
X226488116Y-98834787D01*
X226518009Y-98820649D01*
X226549143Y-98809509D01*
X226581219Y-98801475D01*
X226613929Y-98796623D01*
X226646956Y-98795000D01*
X227523044Y-98795000D01*
X227556071Y-98796623D01*
X227556071Y-98796623D01*
G37*
D36*
X227085000Y-99695000D03*
D10*
G36*
X225506071Y-98796623D02*
X225538781Y-98801475D01*
X225570857Y-98809509D01*
X225601991Y-98820649D01*
X225631884Y-98834787D01*
X225660247Y-98851787D01*
X225686807Y-98871485D01*
X225711308Y-98893692D01*
X225733515Y-98918193D01*
X225753213Y-98944753D01*
X225770213Y-98973116D01*
X225784351Y-99003009D01*
X225795491Y-99034143D01*
X225803525Y-99066219D01*
X225808377Y-99098929D01*
X225810000Y-99131956D01*
X225810000Y-100258044D01*
X225808377Y-100291071D01*
X225803525Y-100323781D01*
X225795491Y-100355857D01*
X225784351Y-100386991D01*
X225770213Y-100416884D01*
X225753213Y-100445247D01*
X225733515Y-100471807D01*
X225711308Y-100496308D01*
X225686807Y-100518515D01*
X225660247Y-100538213D01*
X225631884Y-100555213D01*
X225601991Y-100569351D01*
X225570857Y-100580491D01*
X225538781Y-100588525D01*
X225506071Y-100593377D01*
X225473044Y-100595000D01*
X224596956Y-100595000D01*
X224563929Y-100593377D01*
X224531219Y-100588525D01*
X224499143Y-100580491D01*
X224468009Y-100569351D01*
X224438116Y-100555213D01*
X224409753Y-100538213D01*
X224383193Y-100518515D01*
X224358692Y-100496308D01*
X224336485Y-100471807D01*
X224316787Y-100445247D01*
X224299787Y-100416884D01*
X224285649Y-100386991D01*
X224274509Y-100355857D01*
X224266475Y-100323781D01*
X224261623Y-100291071D01*
X224260000Y-100258044D01*
X224260000Y-99131956D01*
X224261623Y-99098929D01*
X224266475Y-99066219D01*
X224274509Y-99034143D01*
X224285649Y-99003009D01*
X224299787Y-98973116D01*
X224316787Y-98944753D01*
X224336485Y-98918193D01*
X224358692Y-98893692D01*
X224383193Y-98871485D01*
X224409753Y-98851787D01*
X224438116Y-98834787D01*
X224468009Y-98820649D01*
X224499143Y-98809509D01*
X224531219Y-98801475D01*
X224563929Y-98796623D01*
X224596956Y-98795000D01*
X225473044Y-98795000D01*
X225506071Y-98796623D01*
X225506071Y-98796623D01*
G37*
D36*
X225035000Y-99695000D03*
D10*
G36*
X242027973Y-135115799D02*
X242060683Y-135120651D01*
X242092759Y-135128685D01*
X242123893Y-135139825D01*
X242153786Y-135153963D01*
X242182149Y-135170963D01*
X242208709Y-135190661D01*
X242233210Y-135212868D01*
X242255417Y-135237369D01*
X242275115Y-135263929D01*
X242292115Y-135292292D01*
X242306253Y-135322185D01*
X242317393Y-135353319D01*
X242325427Y-135385395D01*
X242330279Y-135418105D01*
X242331902Y-135451132D01*
X242331902Y-136327220D01*
X242330279Y-136360247D01*
X242325427Y-136392957D01*
X242317393Y-136425033D01*
X242306253Y-136456167D01*
X242292115Y-136486060D01*
X242275115Y-136514423D01*
X242255417Y-136540983D01*
X242233210Y-136565484D01*
X242208709Y-136587691D01*
X242182149Y-136607389D01*
X242153786Y-136624389D01*
X242123893Y-136638527D01*
X242092759Y-136649667D01*
X242060683Y-136657701D01*
X242027973Y-136662553D01*
X241994946Y-136664176D01*
X240868858Y-136664176D01*
X240835831Y-136662553D01*
X240803121Y-136657701D01*
X240771045Y-136649667D01*
X240739911Y-136638527D01*
X240710018Y-136624389D01*
X240681655Y-136607389D01*
X240655095Y-136587691D01*
X240630594Y-136565484D01*
X240608387Y-136540983D01*
X240588689Y-136514423D01*
X240571689Y-136486060D01*
X240557551Y-136456167D01*
X240546411Y-136425033D01*
X240538377Y-136392957D01*
X240533525Y-136360247D01*
X240531902Y-136327220D01*
X240531902Y-135451132D01*
X240533525Y-135418105D01*
X240538377Y-135385395D01*
X240546411Y-135353319D01*
X240557551Y-135322185D01*
X240571689Y-135292292D01*
X240588689Y-135263929D01*
X240608387Y-135237369D01*
X240630594Y-135212868D01*
X240655095Y-135190661D01*
X240681655Y-135170963D01*
X240710018Y-135153963D01*
X240739911Y-135139825D01*
X240771045Y-135128685D01*
X240803121Y-135120651D01*
X240835831Y-135115799D01*
X240868858Y-135114176D01*
X241994946Y-135114176D01*
X242027973Y-135115799D01*
X242027973Y-135115799D01*
G37*
D36*
X241431902Y-135889176D03*
D10*
G36*
X242027973Y-137165799D02*
X242060683Y-137170651D01*
X242092759Y-137178685D01*
X242123893Y-137189825D01*
X242153786Y-137203963D01*
X242182149Y-137220963D01*
X242208709Y-137240661D01*
X242233210Y-137262868D01*
X242255417Y-137287369D01*
X242275115Y-137313929D01*
X242292115Y-137342292D01*
X242306253Y-137372185D01*
X242317393Y-137403319D01*
X242325427Y-137435395D01*
X242330279Y-137468105D01*
X242331902Y-137501132D01*
X242331902Y-138377220D01*
X242330279Y-138410247D01*
X242325427Y-138442957D01*
X242317393Y-138475033D01*
X242306253Y-138506167D01*
X242292115Y-138536060D01*
X242275115Y-138564423D01*
X242255417Y-138590983D01*
X242233210Y-138615484D01*
X242208709Y-138637691D01*
X242182149Y-138657389D01*
X242153786Y-138674389D01*
X242123893Y-138688527D01*
X242092759Y-138699667D01*
X242060683Y-138707701D01*
X242027973Y-138712553D01*
X241994946Y-138714176D01*
X240868858Y-138714176D01*
X240835831Y-138712553D01*
X240803121Y-138707701D01*
X240771045Y-138699667D01*
X240739911Y-138688527D01*
X240710018Y-138674389D01*
X240681655Y-138657389D01*
X240655095Y-138637691D01*
X240630594Y-138615484D01*
X240608387Y-138590983D01*
X240588689Y-138564423D01*
X240571689Y-138536060D01*
X240557551Y-138506167D01*
X240546411Y-138475033D01*
X240538377Y-138442957D01*
X240533525Y-138410247D01*
X240531902Y-138377220D01*
X240531902Y-137501132D01*
X240533525Y-137468105D01*
X240538377Y-137435395D01*
X240546411Y-137403319D01*
X240557551Y-137372185D01*
X240571689Y-137342292D01*
X240588689Y-137313929D01*
X240608387Y-137287369D01*
X240630594Y-137262868D01*
X240655095Y-137240661D01*
X240681655Y-137220963D01*
X240710018Y-137203963D01*
X240739911Y-137189825D01*
X240771045Y-137178685D01*
X240803121Y-137170651D01*
X240835831Y-137165799D01*
X240868858Y-137164176D01*
X241994946Y-137164176D01*
X242027973Y-137165799D01*
X242027973Y-137165799D01*
G37*
D36*
X241431902Y-137939176D03*
D10*
G36*
X227556071Y-96256623D02*
X227588781Y-96261475D01*
X227620857Y-96269509D01*
X227651991Y-96280649D01*
X227681884Y-96294787D01*
X227710247Y-96311787D01*
X227736807Y-96331485D01*
X227761308Y-96353692D01*
X227783515Y-96378193D01*
X227803213Y-96404753D01*
X227820213Y-96433116D01*
X227834351Y-96463009D01*
X227845491Y-96494143D01*
X227853525Y-96526219D01*
X227858377Y-96558929D01*
X227860000Y-96591956D01*
X227860000Y-97718044D01*
X227858377Y-97751071D01*
X227853525Y-97783781D01*
X227845491Y-97815857D01*
X227834351Y-97846991D01*
X227820213Y-97876884D01*
X227803213Y-97905247D01*
X227783515Y-97931807D01*
X227761308Y-97956308D01*
X227736807Y-97978515D01*
X227710247Y-97998213D01*
X227681884Y-98015213D01*
X227651991Y-98029351D01*
X227620857Y-98040491D01*
X227588781Y-98048525D01*
X227556071Y-98053377D01*
X227523044Y-98055000D01*
X226646956Y-98055000D01*
X226613929Y-98053377D01*
X226581219Y-98048525D01*
X226549143Y-98040491D01*
X226518009Y-98029351D01*
X226488116Y-98015213D01*
X226459753Y-97998213D01*
X226433193Y-97978515D01*
X226408692Y-97956308D01*
X226386485Y-97931807D01*
X226366787Y-97905247D01*
X226349787Y-97876884D01*
X226335649Y-97846991D01*
X226324509Y-97815857D01*
X226316475Y-97783781D01*
X226311623Y-97751071D01*
X226310000Y-97718044D01*
X226310000Y-96591956D01*
X226311623Y-96558929D01*
X226316475Y-96526219D01*
X226324509Y-96494143D01*
X226335649Y-96463009D01*
X226349787Y-96433116D01*
X226366787Y-96404753D01*
X226386485Y-96378193D01*
X226408692Y-96353692D01*
X226433193Y-96331485D01*
X226459753Y-96311787D01*
X226488116Y-96294787D01*
X226518009Y-96280649D01*
X226549143Y-96269509D01*
X226581219Y-96261475D01*
X226613929Y-96256623D01*
X226646956Y-96255000D01*
X227523044Y-96255000D01*
X227556071Y-96256623D01*
X227556071Y-96256623D01*
G37*
D36*
X227085000Y-97155000D03*
D10*
G36*
X225506071Y-96256623D02*
X225538781Y-96261475D01*
X225570857Y-96269509D01*
X225601991Y-96280649D01*
X225631884Y-96294787D01*
X225660247Y-96311787D01*
X225686807Y-96331485D01*
X225711308Y-96353692D01*
X225733515Y-96378193D01*
X225753213Y-96404753D01*
X225770213Y-96433116D01*
X225784351Y-96463009D01*
X225795491Y-96494143D01*
X225803525Y-96526219D01*
X225808377Y-96558929D01*
X225810000Y-96591956D01*
X225810000Y-97718044D01*
X225808377Y-97751071D01*
X225803525Y-97783781D01*
X225795491Y-97815857D01*
X225784351Y-97846991D01*
X225770213Y-97876884D01*
X225753213Y-97905247D01*
X225733515Y-97931807D01*
X225711308Y-97956308D01*
X225686807Y-97978515D01*
X225660247Y-97998213D01*
X225631884Y-98015213D01*
X225601991Y-98029351D01*
X225570857Y-98040491D01*
X225538781Y-98048525D01*
X225506071Y-98053377D01*
X225473044Y-98055000D01*
X224596956Y-98055000D01*
X224563929Y-98053377D01*
X224531219Y-98048525D01*
X224499143Y-98040491D01*
X224468009Y-98029351D01*
X224438116Y-98015213D01*
X224409753Y-97998213D01*
X224383193Y-97978515D01*
X224358692Y-97956308D01*
X224336485Y-97931807D01*
X224316787Y-97905247D01*
X224299787Y-97876884D01*
X224285649Y-97846991D01*
X224274509Y-97815857D01*
X224266475Y-97783781D01*
X224261623Y-97751071D01*
X224260000Y-97718044D01*
X224260000Y-96591956D01*
X224261623Y-96558929D01*
X224266475Y-96526219D01*
X224274509Y-96494143D01*
X224285649Y-96463009D01*
X224299787Y-96433116D01*
X224316787Y-96404753D01*
X224336485Y-96378193D01*
X224358692Y-96353692D01*
X224383193Y-96331485D01*
X224409753Y-96311787D01*
X224438116Y-96294787D01*
X224468009Y-96280649D01*
X224499143Y-96269509D01*
X224531219Y-96261475D01*
X224563929Y-96256623D01*
X224596956Y-96255000D01*
X225473044Y-96255000D01*
X225506071Y-96256623D01*
X225506071Y-96256623D01*
G37*
D36*
X225035000Y-97155000D03*
D10*
G36*
X219036071Y-74011623D02*
X219068781Y-74016475D01*
X219100857Y-74024509D01*
X219131991Y-74035649D01*
X219161884Y-74049787D01*
X219190247Y-74066787D01*
X219216807Y-74086485D01*
X219241308Y-74108692D01*
X219263515Y-74133193D01*
X219283213Y-74159753D01*
X219300213Y-74188116D01*
X219314351Y-74218009D01*
X219325491Y-74249143D01*
X219333525Y-74281219D01*
X219338377Y-74313929D01*
X219340000Y-74346956D01*
X219340000Y-75223044D01*
X219338377Y-75256071D01*
X219333525Y-75288781D01*
X219325491Y-75320857D01*
X219314351Y-75351991D01*
X219300213Y-75381884D01*
X219283213Y-75410247D01*
X219263515Y-75436807D01*
X219241308Y-75461308D01*
X219216807Y-75483515D01*
X219190247Y-75503213D01*
X219161884Y-75520213D01*
X219131991Y-75534351D01*
X219100857Y-75545491D01*
X219068781Y-75553525D01*
X219036071Y-75558377D01*
X219003044Y-75560000D01*
X217876956Y-75560000D01*
X217843929Y-75558377D01*
X217811219Y-75553525D01*
X217779143Y-75545491D01*
X217748009Y-75534351D01*
X217718116Y-75520213D01*
X217689753Y-75503213D01*
X217663193Y-75483515D01*
X217638692Y-75461308D01*
X217616485Y-75436807D01*
X217596787Y-75410247D01*
X217579787Y-75381884D01*
X217565649Y-75351991D01*
X217554509Y-75320857D01*
X217546475Y-75288781D01*
X217541623Y-75256071D01*
X217540000Y-75223044D01*
X217540000Y-74346956D01*
X217541623Y-74313929D01*
X217546475Y-74281219D01*
X217554509Y-74249143D01*
X217565649Y-74218009D01*
X217579787Y-74188116D01*
X217596787Y-74159753D01*
X217616485Y-74133193D01*
X217638692Y-74108692D01*
X217663193Y-74086485D01*
X217689753Y-74066787D01*
X217718116Y-74049787D01*
X217748009Y-74035649D01*
X217779143Y-74024509D01*
X217811219Y-74016475D01*
X217843929Y-74011623D01*
X217876956Y-74010000D01*
X219003044Y-74010000D01*
X219036071Y-74011623D01*
X219036071Y-74011623D01*
G37*
D36*
X218440000Y-74785000D03*
D10*
G36*
X219036071Y-76061623D02*
X219068781Y-76066475D01*
X219100857Y-76074509D01*
X219131991Y-76085649D01*
X219161884Y-76099787D01*
X219190247Y-76116787D01*
X219216807Y-76136485D01*
X219241308Y-76158692D01*
X219263515Y-76183193D01*
X219283213Y-76209753D01*
X219300213Y-76238116D01*
X219314351Y-76268009D01*
X219325491Y-76299143D01*
X219333525Y-76331219D01*
X219338377Y-76363929D01*
X219340000Y-76396956D01*
X219340000Y-77273044D01*
X219338377Y-77306071D01*
X219333525Y-77338781D01*
X219325491Y-77370857D01*
X219314351Y-77401991D01*
X219300213Y-77431884D01*
X219283213Y-77460247D01*
X219263515Y-77486807D01*
X219241308Y-77511308D01*
X219216807Y-77533515D01*
X219190247Y-77553213D01*
X219161884Y-77570213D01*
X219131991Y-77584351D01*
X219100857Y-77595491D01*
X219068781Y-77603525D01*
X219036071Y-77608377D01*
X219003044Y-77610000D01*
X217876956Y-77610000D01*
X217843929Y-77608377D01*
X217811219Y-77603525D01*
X217779143Y-77595491D01*
X217748009Y-77584351D01*
X217718116Y-77570213D01*
X217689753Y-77553213D01*
X217663193Y-77533515D01*
X217638692Y-77511308D01*
X217616485Y-77486807D01*
X217596787Y-77460247D01*
X217579787Y-77431884D01*
X217565649Y-77401991D01*
X217554509Y-77370857D01*
X217546475Y-77338781D01*
X217541623Y-77306071D01*
X217540000Y-77273044D01*
X217540000Y-76396956D01*
X217541623Y-76363929D01*
X217546475Y-76331219D01*
X217554509Y-76299143D01*
X217565649Y-76268009D01*
X217579787Y-76238116D01*
X217596787Y-76209753D01*
X217616485Y-76183193D01*
X217638692Y-76158692D01*
X217663193Y-76136485D01*
X217689753Y-76116787D01*
X217718116Y-76099787D01*
X217748009Y-76085649D01*
X217779143Y-76074509D01*
X217811219Y-76066475D01*
X217843929Y-76061623D01*
X217876956Y-76060000D01*
X219003044Y-76060000D01*
X219036071Y-76061623D01*
X219036071Y-76061623D01*
G37*
D36*
X218440000Y-76835000D03*
D10*
G36*
X212686071Y-114551623D02*
X212718781Y-114556475D01*
X212750857Y-114564509D01*
X212781991Y-114575649D01*
X212811884Y-114589787D01*
X212840247Y-114606787D01*
X212866807Y-114626485D01*
X212891308Y-114648692D01*
X212913515Y-114673193D01*
X212933213Y-114699753D01*
X212950213Y-114728116D01*
X212964351Y-114758009D01*
X212975491Y-114789143D01*
X212983525Y-114821219D01*
X212988377Y-114853929D01*
X212990000Y-114886956D01*
X212990000Y-115763044D01*
X212988377Y-115796071D01*
X212983525Y-115828781D01*
X212975491Y-115860857D01*
X212964351Y-115891991D01*
X212950213Y-115921884D01*
X212933213Y-115950247D01*
X212913515Y-115976807D01*
X212891308Y-116001308D01*
X212866807Y-116023515D01*
X212840247Y-116043213D01*
X212811884Y-116060213D01*
X212781991Y-116074351D01*
X212750857Y-116085491D01*
X212718781Y-116093525D01*
X212686071Y-116098377D01*
X212653044Y-116100000D01*
X211526956Y-116100000D01*
X211493929Y-116098377D01*
X211461219Y-116093525D01*
X211429143Y-116085491D01*
X211398009Y-116074351D01*
X211368116Y-116060213D01*
X211339753Y-116043213D01*
X211313193Y-116023515D01*
X211288692Y-116001308D01*
X211266485Y-115976807D01*
X211246787Y-115950247D01*
X211229787Y-115921884D01*
X211215649Y-115891991D01*
X211204509Y-115860857D01*
X211196475Y-115828781D01*
X211191623Y-115796071D01*
X211190000Y-115763044D01*
X211190000Y-114886956D01*
X211191623Y-114853929D01*
X211196475Y-114821219D01*
X211204509Y-114789143D01*
X211215649Y-114758009D01*
X211229787Y-114728116D01*
X211246787Y-114699753D01*
X211266485Y-114673193D01*
X211288692Y-114648692D01*
X211313193Y-114626485D01*
X211339753Y-114606787D01*
X211368116Y-114589787D01*
X211398009Y-114575649D01*
X211429143Y-114564509D01*
X211461219Y-114556475D01*
X211493929Y-114551623D01*
X211526956Y-114550000D01*
X212653044Y-114550000D01*
X212686071Y-114551623D01*
X212686071Y-114551623D01*
G37*
D36*
X212090000Y-115325000D03*
D10*
G36*
X212686071Y-112501623D02*
X212718781Y-112506475D01*
X212750857Y-112514509D01*
X212781991Y-112525649D01*
X212811884Y-112539787D01*
X212840247Y-112556787D01*
X212866807Y-112576485D01*
X212891308Y-112598692D01*
X212913515Y-112623193D01*
X212933213Y-112649753D01*
X212950213Y-112678116D01*
X212964351Y-112708009D01*
X212975491Y-112739143D01*
X212983525Y-112771219D01*
X212988377Y-112803929D01*
X212990000Y-112836956D01*
X212990000Y-113713044D01*
X212988377Y-113746071D01*
X212983525Y-113778781D01*
X212975491Y-113810857D01*
X212964351Y-113841991D01*
X212950213Y-113871884D01*
X212933213Y-113900247D01*
X212913515Y-113926807D01*
X212891308Y-113951308D01*
X212866807Y-113973515D01*
X212840247Y-113993213D01*
X212811884Y-114010213D01*
X212781991Y-114024351D01*
X212750857Y-114035491D01*
X212718781Y-114043525D01*
X212686071Y-114048377D01*
X212653044Y-114050000D01*
X211526956Y-114050000D01*
X211493929Y-114048377D01*
X211461219Y-114043525D01*
X211429143Y-114035491D01*
X211398009Y-114024351D01*
X211368116Y-114010213D01*
X211339753Y-113993213D01*
X211313193Y-113973515D01*
X211288692Y-113951308D01*
X211266485Y-113926807D01*
X211246787Y-113900247D01*
X211229787Y-113871884D01*
X211215649Y-113841991D01*
X211204509Y-113810857D01*
X211196475Y-113778781D01*
X211191623Y-113746071D01*
X211190000Y-113713044D01*
X211190000Y-112836956D01*
X211191623Y-112803929D01*
X211196475Y-112771219D01*
X211204509Y-112739143D01*
X211215649Y-112708009D01*
X211229787Y-112678116D01*
X211246787Y-112649753D01*
X211266485Y-112623193D01*
X211288692Y-112598692D01*
X211313193Y-112576485D01*
X211339753Y-112556787D01*
X211368116Y-112539787D01*
X211398009Y-112525649D01*
X211429143Y-112514509D01*
X211461219Y-112506475D01*
X211493929Y-112501623D01*
X211526956Y-112500000D01*
X212653044Y-112500000D01*
X212686071Y-112501623D01*
X212686071Y-112501623D01*
G37*
D36*
X212090000Y-113275000D03*
D10*
G36*
X215226071Y-112501623D02*
X215258781Y-112506475D01*
X215290857Y-112514509D01*
X215321991Y-112525649D01*
X215351884Y-112539787D01*
X215380247Y-112556787D01*
X215406807Y-112576485D01*
X215431308Y-112598692D01*
X215453515Y-112623193D01*
X215473213Y-112649753D01*
X215490213Y-112678116D01*
X215504351Y-112708009D01*
X215515491Y-112739143D01*
X215523525Y-112771219D01*
X215528377Y-112803929D01*
X215530000Y-112836956D01*
X215530000Y-113713044D01*
X215528377Y-113746071D01*
X215523525Y-113778781D01*
X215515491Y-113810857D01*
X215504351Y-113841991D01*
X215490213Y-113871884D01*
X215473213Y-113900247D01*
X215453515Y-113926807D01*
X215431308Y-113951308D01*
X215406807Y-113973515D01*
X215380247Y-113993213D01*
X215351884Y-114010213D01*
X215321991Y-114024351D01*
X215290857Y-114035491D01*
X215258781Y-114043525D01*
X215226071Y-114048377D01*
X215193044Y-114050000D01*
X214066956Y-114050000D01*
X214033929Y-114048377D01*
X214001219Y-114043525D01*
X213969143Y-114035491D01*
X213938009Y-114024351D01*
X213908116Y-114010213D01*
X213879753Y-113993213D01*
X213853193Y-113973515D01*
X213828692Y-113951308D01*
X213806485Y-113926807D01*
X213786787Y-113900247D01*
X213769787Y-113871884D01*
X213755649Y-113841991D01*
X213744509Y-113810857D01*
X213736475Y-113778781D01*
X213731623Y-113746071D01*
X213730000Y-113713044D01*
X213730000Y-112836956D01*
X213731623Y-112803929D01*
X213736475Y-112771219D01*
X213744509Y-112739143D01*
X213755649Y-112708009D01*
X213769787Y-112678116D01*
X213786787Y-112649753D01*
X213806485Y-112623193D01*
X213828692Y-112598692D01*
X213853193Y-112576485D01*
X213879753Y-112556787D01*
X213908116Y-112539787D01*
X213938009Y-112525649D01*
X213969143Y-112514509D01*
X214001219Y-112506475D01*
X214033929Y-112501623D01*
X214066956Y-112500000D01*
X215193044Y-112500000D01*
X215226071Y-112501623D01*
X215226071Y-112501623D01*
G37*
D36*
X214630000Y-113275000D03*
D10*
G36*
X215226071Y-114551623D02*
X215258781Y-114556475D01*
X215290857Y-114564509D01*
X215321991Y-114575649D01*
X215351884Y-114589787D01*
X215380247Y-114606787D01*
X215406807Y-114626485D01*
X215431308Y-114648692D01*
X215453515Y-114673193D01*
X215473213Y-114699753D01*
X215490213Y-114728116D01*
X215504351Y-114758009D01*
X215515491Y-114789143D01*
X215523525Y-114821219D01*
X215528377Y-114853929D01*
X215530000Y-114886956D01*
X215530000Y-115763044D01*
X215528377Y-115796071D01*
X215523525Y-115828781D01*
X215515491Y-115860857D01*
X215504351Y-115891991D01*
X215490213Y-115921884D01*
X215473213Y-115950247D01*
X215453515Y-115976807D01*
X215431308Y-116001308D01*
X215406807Y-116023515D01*
X215380247Y-116043213D01*
X215351884Y-116060213D01*
X215321991Y-116074351D01*
X215290857Y-116085491D01*
X215258781Y-116093525D01*
X215226071Y-116098377D01*
X215193044Y-116100000D01*
X214066956Y-116100000D01*
X214033929Y-116098377D01*
X214001219Y-116093525D01*
X213969143Y-116085491D01*
X213938009Y-116074351D01*
X213908116Y-116060213D01*
X213879753Y-116043213D01*
X213853193Y-116023515D01*
X213828692Y-116001308D01*
X213806485Y-115976807D01*
X213786787Y-115950247D01*
X213769787Y-115921884D01*
X213755649Y-115891991D01*
X213744509Y-115860857D01*
X213736475Y-115828781D01*
X213731623Y-115796071D01*
X213730000Y-115763044D01*
X213730000Y-114886956D01*
X213731623Y-114853929D01*
X213736475Y-114821219D01*
X213744509Y-114789143D01*
X213755649Y-114758009D01*
X213769787Y-114728116D01*
X213786787Y-114699753D01*
X213806485Y-114673193D01*
X213828692Y-114648692D01*
X213853193Y-114626485D01*
X213879753Y-114606787D01*
X213908116Y-114589787D01*
X213938009Y-114575649D01*
X213969143Y-114564509D01*
X214001219Y-114556475D01*
X214033929Y-114551623D01*
X214066956Y-114550000D01*
X215193044Y-114550000D01*
X215226071Y-114551623D01*
X215226071Y-114551623D01*
G37*
D36*
X214630000Y-115325000D03*
D10*
G36*
X219056071Y-53457623D02*
X219088781Y-53462475D01*
X219120857Y-53470509D01*
X219151991Y-53481649D01*
X219181884Y-53495787D01*
X219210247Y-53512787D01*
X219236807Y-53532485D01*
X219261308Y-53554692D01*
X219283515Y-53579193D01*
X219303213Y-53605753D01*
X219320213Y-53634116D01*
X219334351Y-53664009D01*
X219345491Y-53695143D01*
X219353525Y-53727219D01*
X219358377Y-53759929D01*
X219360000Y-53792956D01*
X219360000Y-54919044D01*
X219358377Y-54952071D01*
X219353525Y-54984781D01*
X219345491Y-55016857D01*
X219334351Y-55047991D01*
X219320213Y-55077884D01*
X219303213Y-55106247D01*
X219283515Y-55132807D01*
X219261308Y-55157308D01*
X219236807Y-55179515D01*
X219210247Y-55199213D01*
X219181884Y-55216213D01*
X219151991Y-55230351D01*
X219120857Y-55241491D01*
X219088781Y-55249525D01*
X219056071Y-55254377D01*
X219023044Y-55256000D01*
X218146956Y-55256000D01*
X218113929Y-55254377D01*
X218081219Y-55249525D01*
X218049143Y-55241491D01*
X218018009Y-55230351D01*
X217988116Y-55216213D01*
X217959753Y-55199213D01*
X217933193Y-55179515D01*
X217908692Y-55157308D01*
X217886485Y-55132807D01*
X217866787Y-55106247D01*
X217849787Y-55077884D01*
X217835649Y-55047991D01*
X217824509Y-55016857D01*
X217816475Y-54984781D01*
X217811623Y-54952071D01*
X217810000Y-54919044D01*
X217810000Y-53792956D01*
X217811623Y-53759929D01*
X217816475Y-53727219D01*
X217824509Y-53695143D01*
X217835649Y-53664009D01*
X217849787Y-53634116D01*
X217866787Y-53605753D01*
X217886485Y-53579193D01*
X217908692Y-53554692D01*
X217933193Y-53532485D01*
X217959753Y-53512787D01*
X217988116Y-53495787D01*
X218018009Y-53481649D01*
X218049143Y-53470509D01*
X218081219Y-53462475D01*
X218113929Y-53457623D01*
X218146956Y-53456000D01*
X219023044Y-53456000D01*
X219056071Y-53457623D01*
X219056071Y-53457623D01*
G37*
D36*
X218585000Y-54356000D03*
D10*
G36*
X217006071Y-53457623D02*
X217038781Y-53462475D01*
X217070857Y-53470509D01*
X217101991Y-53481649D01*
X217131884Y-53495787D01*
X217160247Y-53512787D01*
X217186807Y-53532485D01*
X217211308Y-53554692D01*
X217233515Y-53579193D01*
X217253213Y-53605753D01*
X217270213Y-53634116D01*
X217284351Y-53664009D01*
X217295491Y-53695143D01*
X217303525Y-53727219D01*
X217308377Y-53759929D01*
X217310000Y-53792956D01*
X217310000Y-54919044D01*
X217308377Y-54952071D01*
X217303525Y-54984781D01*
X217295491Y-55016857D01*
X217284351Y-55047991D01*
X217270213Y-55077884D01*
X217253213Y-55106247D01*
X217233515Y-55132807D01*
X217211308Y-55157308D01*
X217186807Y-55179515D01*
X217160247Y-55199213D01*
X217131884Y-55216213D01*
X217101991Y-55230351D01*
X217070857Y-55241491D01*
X217038781Y-55249525D01*
X217006071Y-55254377D01*
X216973044Y-55256000D01*
X216096956Y-55256000D01*
X216063929Y-55254377D01*
X216031219Y-55249525D01*
X215999143Y-55241491D01*
X215968009Y-55230351D01*
X215938116Y-55216213D01*
X215909753Y-55199213D01*
X215883193Y-55179515D01*
X215858692Y-55157308D01*
X215836485Y-55132807D01*
X215816787Y-55106247D01*
X215799787Y-55077884D01*
X215785649Y-55047991D01*
X215774509Y-55016857D01*
X215766475Y-54984781D01*
X215761623Y-54952071D01*
X215760000Y-54919044D01*
X215760000Y-53792956D01*
X215761623Y-53759929D01*
X215766475Y-53727219D01*
X215774509Y-53695143D01*
X215785649Y-53664009D01*
X215799787Y-53634116D01*
X215816787Y-53605753D01*
X215836485Y-53579193D01*
X215858692Y-53554692D01*
X215883193Y-53532485D01*
X215909753Y-53512787D01*
X215938116Y-53495787D01*
X215968009Y-53481649D01*
X215999143Y-53470509D01*
X216031219Y-53462475D01*
X216063929Y-53457623D01*
X216096956Y-53456000D01*
X216973044Y-53456000D01*
X217006071Y-53457623D01*
X217006071Y-53457623D01*
G37*
D36*
X216535000Y-54356000D03*
D37*
X203200000Y-148080000D03*
X203200000Y-144780000D03*
D25*
X222250000Y-83820000D03*
D24*
X222250000Y-81280000D03*
D25*
X234950000Y-65405000D03*
D24*
X237490000Y-65405000D03*
X240030000Y-65405000D03*
X242570000Y-65405000D03*
X245110000Y-65405000D03*
X247650000Y-65405000D03*
D38*
X190820000Y-52300000D03*
X192720000Y-52300000D03*
X191770000Y-49300000D03*
D10*
G36*
X217766071Y-148364123D02*
X217798781Y-148368975D01*
X217830857Y-148377009D01*
X217861991Y-148388149D01*
X217891884Y-148402287D01*
X217920247Y-148419287D01*
X217946807Y-148438985D01*
X217971308Y-148461192D01*
X217993515Y-148485693D01*
X218013213Y-148512253D01*
X218030213Y-148540616D01*
X218044351Y-148570509D01*
X218055491Y-148601643D01*
X218063525Y-148633719D01*
X218068377Y-148666429D01*
X218070000Y-148699456D01*
X218070000Y-149575544D01*
X218068377Y-149608571D01*
X218063525Y-149641281D01*
X218055491Y-149673357D01*
X218044351Y-149704491D01*
X218030213Y-149734384D01*
X218013213Y-149762747D01*
X217993515Y-149789307D01*
X217971308Y-149813808D01*
X217946807Y-149836015D01*
X217920247Y-149855713D01*
X217891884Y-149872713D01*
X217861991Y-149886851D01*
X217830857Y-149897991D01*
X217798781Y-149906025D01*
X217766071Y-149910877D01*
X217733044Y-149912500D01*
X216606956Y-149912500D01*
X216573929Y-149910877D01*
X216541219Y-149906025D01*
X216509143Y-149897991D01*
X216478009Y-149886851D01*
X216448116Y-149872713D01*
X216419753Y-149855713D01*
X216393193Y-149836015D01*
X216368692Y-149813808D01*
X216346485Y-149789307D01*
X216326787Y-149762747D01*
X216309787Y-149734384D01*
X216295649Y-149704491D01*
X216284509Y-149673357D01*
X216276475Y-149641281D01*
X216271623Y-149608571D01*
X216270000Y-149575544D01*
X216270000Y-148699456D01*
X216271623Y-148666429D01*
X216276475Y-148633719D01*
X216284509Y-148601643D01*
X216295649Y-148570509D01*
X216309787Y-148540616D01*
X216326787Y-148512253D01*
X216346485Y-148485693D01*
X216368692Y-148461192D01*
X216393193Y-148438985D01*
X216419753Y-148419287D01*
X216448116Y-148402287D01*
X216478009Y-148388149D01*
X216509143Y-148377009D01*
X216541219Y-148368975D01*
X216573929Y-148364123D01*
X216606956Y-148362500D01*
X217733044Y-148362500D01*
X217766071Y-148364123D01*
X217766071Y-148364123D01*
G37*
D36*
X217170000Y-149137500D03*
D10*
G36*
X217766071Y-150414123D02*
X217798781Y-150418975D01*
X217830857Y-150427009D01*
X217861991Y-150438149D01*
X217891884Y-150452287D01*
X217920247Y-150469287D01*
X217946807Y-150488985D01*
X217971308Y-150511192D01*
X217993515Y-150535693D01*
X218013213Y-150562253D01*
X218030213Y-150590616D01*
X218044351Y-150620509D01*
X218055491Y-150651643D01*
X218063525Y-150683719D01*
X218068377Y-150716429D01*
X218070000Y-150749456D01*
X218070000Y-151625544D01*
X218068377Y-151658571D01*
X218063525Y-151691281D01*
X218055491Y-151723357D01*
X218044351Y-151754491D01*
X218030213Y-151784384D01*
X218013213Y-151812747D01*
X217993515Y-151839307D01*
X217971308Y-151863808D01*
X217946807Y-151886015D01*
X217920247Y-151905713D01*
X217891884Y-151922713D01*
X217861991Y-151936851D01*
X217830857Y-151947991D01*
X217798781Y-151956025D01*
X217766071Y-151960877D01*
X217733044Y-151962500D01*
X216606956Y-151962500D01*
X216573929Y-151960877D01*
X216541219Y-151956025D01*
X216509143Y-151947991D01*
X216478009Y-151936851D01*
X216448116Y-151922713D01*
X216419753Y-151905713D01*
X216393193Y-151886015D01*
X216368692Y-151863808D01*
X216346485Y-151839307D01*
X216326787Y-151812747D01*
X216309787Y-151784384D01*
X216295649Y-151754491D01*
X216284509Y-151723357D01*
X216276475Y-151691281D01*
X216271623Y-151658571D01*
X216270000Y-151625544D01*
X216270000Y-150749456D01*
X216271623Y-150716429D01*
X216276475Y-150683719D01*
X216284509Y-150651643D01*
X216295649Y-150620509D01*
X216309787Y-150590616D01*
X216326787Y-150562253D01*
X216346485Y-150535693D01*
X216368692Y-150511192D01*
X216393193Y-150488985D01*
X216419753Y-150469287D01*
X216448116Y-150452287D01*
X216478009Y-150438149D01*
X216509143Y-150427009D01*
X216541219Y-150418975D01*
X216573929Y-150414123D01*
X216606956Y-150412500D01*
X217733044Y-150412500D01*
X217766071Y-150414123D01*
X217766071Y-150414123D01*
G37*
D36*
X217170000Y-151187500D03*
D10*
G36*
X213051071Y-65141623D02*
X213083781Y-65146475D01*
X213115857Y-65154509D01*
X213146991Y-65165649D01*
X213176884Y-65179787D01*
X213205247Y-65196787D01*
X213231807Y-65216485D01*
X213256308Y-65238692D01*
X213278515Y-65263193D01*
X213298213Y-65289753D01*
X213315213Y-65318116D01*
X213329351Y-65348009D01*
X213340491Y-65379143D01*
X213348525Y-65411219D01*
X213353377Y-65443929D01*
X213355000Y-65476956D01*
X213355000Y-66603044D01*
X213353377Y-66636071D01*
X213348525Y-66668781D01*
X213340491Y-66700857D01*
X213329351Y-66731991D01*
X213315213Y-66761884D01*
X213298213Y-66790247D01*
X213278515Y-66816807D01*
X213256308Y-66841308D01*
X213231807Y-66863515D01*
X213205247Y-66883213D01*
X213176884Y-66900213D01*
X213146991Y-66914351D01*
X213115857Y-66925491D01*
X213083781Y-66933525D01*
X213051071Y-66938377D01*
X213018044Y-66940000D01*
X212141956Y-66940000D01*
X212108929Y-66938377D01*
X212076219Y-66933525D01*
X212044143Y-66925491D01*
X212013009Y-66914351D01*
X211983116Y-66900213D01*
X211954753Y-66883213D01*
X211928193Y-66863515D01*
X211903692Y-66841308D01*
X211881485Y-66816807D01*
X211861787Y-66790247D01*
X211844787Y-66761884D01*
X211830649Y-66731991D01*
X211819509Y-66700857D01*
X211811475Y-66668781D01*
X211806623Y-66636071D01*
X211805000Y-66603044D01*
X211805000Y-65476956D01*
X211806623Y-65443929D01*
X211811475Y-65411219D01*
X211819509Y-65379143D01*
X211830649Y-65348009D01*
X211844787Y-65318116D01*
X211861787Y-65289753D01*
X211881485Y-65263193D01*
X211903692Y-65238692D01*
X211928193Y-65216485D01*
X211954753Y-65196787D01*
X211983116Y-65179787D01*
X212013009Y-65165649D01*
X212044143Y-65154509D01*
X212076219Y-65146475D01*
X212108929Y-65141623D01*
X212141956Y-65140000D01*
X213018044Y-65140000D01*
X213051071Y-65141623D01*
X213051071Y-65141623D01*
G37*
D36*
X212580000Y-66040000D03*
D10*
G36*
X215101071Y-65141623D02*
X215133781Y-65146475D01*
X215165857Y-65154509D01*
X215196991Y-65165649D01*
X215226884Y-65179787D01*
X215255247Y-65196787D01*
X215281807Y-65216485D01*
X215306308Y-65238692D01*
X215328515Y-65263193D01*
X215348213Y-65289753D01*
X215365213Y-65318116D01*
X215379351Y-65348009D01*
X215390491Y-65379143D01*
X215398525Y-65411219D01*
X215403377Y-65443929D01*
X215405000Y-65476956D01*
X215405000Y-66603044D01*
X215403377Y-66636071D01*
X215398525Y-66668781D01*
X215390491Y-66700857D01*
X215379351Y-66731991D01*
X215365213Y-66761884D01*
X215348213Y-66790247D01*
X215328515Y-66816807D01*
X215306308Y-66841308D01*
X215281807Y-66863515D01*
X215255247Y-66883213D01*
X215226884Y-66900213D01*
X215196991Y-66914351D01*
X215165857Y-66925491D01*
X215133781Y-66933525D01*
X215101071Y-66938377D01*
X215068044Y-66940000D01*
X214191956Y-66940000D01*
X214158929Y-66938377D01*
X214126219Y-66933525D01*
X214094143Y-66925491D01*
X214063009Y-66914351D01*
X214033116Y-66900213D01*
X214004753Y-66883213D01*
X213978193Y-66863515D01*
X213953692Y-66841308D01*
X213931485Y-66816807D01*
X213911787Y-66790247D01*
X213894787Y-66761884D01*
X213880649Y-66731991D01*
X213869509Y-66700857D01*
X213861475Y-66668781D01*
X213856623Y-66636071D01*
X213855000Y-66603044D01*
X213855000Y-65476956D01*
X213856623Y-65443929D01*
X213861475Y-65411219D01*
X213869509Y-65379143D01*
X213880649Y-65348009D01*
X213894787Y-65318116D01*
X213911787Y-65289753D01*
X213931485Y-65263193D01*
X213953692Y-65238692D01*
X213978193Y-65216485D01*
X214004753Y-65196787D01*
X214033116Y-65179787D01*
X214063009Y-65165649D01*
X214094143Y-65154509D01*
X214126219Y-65146475D01*
X214158929Y-65141623D01*
X214191956Y-65140000D01*
X215068044Y-65140000D01*
X215101071Y-65141623D01*
X215101071Y-65141623D01*
G37*
D36*
X214630000Y-66040000D03*
D10*
G36*
X213051071Y-51171623D02*
X213083781Y-51176475D01*
X213115857Y-51184509D01*
X213146991Y-51195649D01*
X213176884Y-51209787D01*
X213205247Y-51226787D01*
X213231807Y-51246485D01*
X213256308Y-51268692D01*
X213278515Y-51293193D01*
X213298213Y-51319753D01*
X213315213Y-51348116D01*
X213329351Y-51378009D01*
X213340491Y-51409143D01*
X213348525Y-51441219D01*
X213353377Y-51473929D01*
X213355000Y-51506956D01*
X213355000Y-52633044D01*
X213353377Y-52666071D01*
X213348525Y-52698781D01*
X213340491Y-52730857D01*
X213329351Y-52761991D01*
X213315213Y-52791884D01*
X213298213Y-52820247D01*
X213278515Y-52846807D01*
X213256308Y-52871308D01*
X213231807Y-52893515D01*
X213205247Y-52913213D01*
X213176884Y-52930213D01*
X213146991Y-52944351D01*
X213115857Y-52955491D01*
X213083781Y-52963525D01*
X213051071Y-52968377D01*
X213018044Y-52970000D01*
X212141956Y-52970000D01*
X212108929Y-52968377D01*
X212076219Y-52963525D01*
X212044143Y-52955491D01*
X212013009Y-52944351D01*
X211983116Y-52930213D01*
X211954753Y-52913213D01*
X211928193Y-52893515D01*
X211903692Y-52871308D01*
X211881485Y-52846807D01*
X211861787Y-52820247D01*
X211844787Y-52791884D01*
X211830649Y-52761991D01*
X211819509Y-52730857D01*
X211811475Y-52698781D01*
X211806623Y-52666071D01*
X211805000Y-52633044D01*
X211805000Y-51506956D01*
X211806623Y-51473929D01*
X211811475Y-51441219D01*
X211819509Y-51409143D01*
X211830649Y-51378009D01*
X211844787Y-51348116D01*
X211861787Y-51319753D01*
X211881485Y-51293193D01*
X211903692Y-51268692D01*
X211928193Y-51246485D01*
X211954753Y-51226787D01*
X211983116Y-51209787D01*
X212013009Y-51195649D01*
X212044143Y-51184509D01*
X212076219Y-51176475D01*
X212108929Y-51171623D01*
X212141956Y-51170000D01*
X213018044Y-51170000D01*
X213051071Y-51171623D01*
X213051071Y-51171623D01*
G37*
D36*
X212580000Y-52070000D03*
D10*
G36*
X215101071Y-51171623D02*
X215133781Y-51176475D01*
X215165857Y-51184509D01*
X215196991Y-51195649D01*
X215226884Y-51209787D01*
X215255247Y-51226787D01*
X215281807Y-51246485D01*
X215306308Y-51268692D01*
X215328515Y-51293193D01*
X215348213Y-51319753D01*
X215365213Y-51348116D01*
X215379351Y-51378009D01*
X215390491Y-51409143D01*
X215398525Y-51441219D01*
X215403377Y-51473929D01*
X215405000Y-51506956D01*
X215405000Y-52633044D01*
X215403377Y-52666071D01*
X215398525Y-52698781D01*
X215390491Y-52730857D01*
X215379351Y-52761991D01*
X215365213Y-52791884D01*
X215348213Y-52820247D01*
X215328515Y-52846807D01*
X215306308Y-52871308D01*
X215281807Y-52893515D01*
X215255247Y-52913213D01*
X215226884Y-52930213D01*
X215196991Y-52944351D01*
X215165857Y-52955491D01*
X215133781Y-52963525D01*
X215101071Y-52968377D01*
X215068044Y-52970000D01*
X214191956Y-52970000D01*
X214158929Y-52968377D01*
X214126219Y-52963525D01*
X214094143Y-52955491D01*
X214063009Y-52944351D01*
X214033116Y-52930213D01*
X214004753Y-52913213D01*
X213978193Y-52893515D01*
X213953692Y-52871308D01*
X213931485Y-52846807D01*
X213911787Y-52820247D01*
X213894787Y-52791884D01*
X213880649Y-52761991D01*
X213869509Y-52730857D01*
X213861475Y-52698781D01*
X213856623Y-52666071D01*
X213855000Y-52633044D01*
X213855000Y-51506956D01*
X213856623Y-51473929D01*
X213861475Y-51441219D01*
X213869509Y-51409143D01*
X213880649Y-51378009D01*
X213894787Y-51348116D01*
X213911787Y-51319753D01*
X213931485Y-51293193D01*
X213953692Y-51268692D01*
X213978193Y-51246485D01*
X214004753Y-51226787D01*
X214033116Y-51209787D01*
X214063009Y-51195649D01*
X214094143Y-51184509D01*
X214126219Y-51176475D01*
X214158929Y-51171623D01*
X214191956Y-51170000D01*
X215068044Y-51170000D01*
X215101071Y-51171623D01*
X215101071Y-51171623D01*
G37*
D36*
X214630000Y-52070000D03*
D10*
G36*
X219056071Y-65141623D02*
X219088781Y-65146475D01*
X219120857Y-65154509D01*
X219151991Y-65165649D01*
X219181884Y-65179787D01*
X219210247Y-65196787D01*
X219236807Y-65216485D01*
X219261308Y-65238692D01*
X219283515Y-65263193D01*
X219303213Y-65289753D01*
X219320213Y-65318116D01*
X219334351Y-65348009D01*
X219345491Y-65379143D01*
X219353525Y-65411219D01*
X219358377Y-65443929D01*
X219360000Y-65476956D01*
X219360000Y-66603044D01*
X219358377Y-66636071D01*
X219353525Y-66668781D01*
X219345491Y-66700857D01*
X219334351Y-66731991D01*
X219320213Y-66761884D01*
X219303213Y-66790247D01*
X219283515Y-66816807D01*
X219261308Y-66841308D01*
X219236807Y-66863515D01*
X219210247Y-66883213D01*
X219181884Y-66900213D01*
X219151991Y-66914351D01*
X219120857Y-66925491D01*
X219088781Y-66933525D01*
X219056071Y-66938377D01*
X219023044Y-66940000D01*
X218146956Y-66940000D01*
X218113929Y-66938377D01*
X218081219Y-66933525D01*
X218049143Y-66925491D01*
X218018009Y-66914351D01*
X217988116Y-66900213D01*
X217959753Y-66883213D01*
X217933193Y-66863515D01*
X217908692Y-66841308D01*
X217886485Y-66816807D01*
X217866787Y-66790247D01*
X217849787Y-66761884D01*
X217835649Y-66731991D01*
X217824509Y-66700857D01*
X217816475Y-66668781D01*
X217811623Y-66636071D01*
X217810000Y-66603044D01*
X217810000Y-65476956D01*
X217811623Y-65443929D01*
X217816475Y-65411219D01*
X217824509Y-65379143D01*
X217835649Y-65348009D01*
X217849787Y-65318116D01*
X217866787Y-65289753D01*
X217886485Y-65263193D01*
X217908692Y-65238692D01*
X217933193Y-65216485D01*
X217959753Y-65196787D01*
X217988116Y-65179787D01*
X218018009Y-65165649D01*
X218049143Y-65154509D01*
X218081219Y-65146475D01*
X218113929Y-65141623D01*
X218146956Y-65140000D01*
X219023044Y-65140000D01*
X219056071Y-65141623D01*
X219056071Y-65141623D01*
G37*
D36*
X218585000Y-66040000D03*
D10*
G36*
X217006071Y-65141623D02*
X217038781Y-65146475D01*
X217070857Y-65154509D01*
X217101991Y-65165649D01*
X217131884Y-65179787D01*
X217160247Y-65196787D01*
X217186807Y-65216485D01*
X217211308Y-65238692D01*
X217233515Y-65263193D01*
X217253213Y-65289753D01*
X217270213Y-65318116D01*
X217284351Y-65348009D01*
X217295491Y-65379143D01*
X217303525Y-65411219D01*
X217308377Y-65443929D01*
X217310000Y-65476956D01*
X217310000Y-66603044D01*
X217308377Y-66636071D01*
X217303525Y-66668781D01*
X217295491Y-66700857D01*
X217284351Y-66731991D01*
X217270213Y-66761884D01*
X217253213Y-66790247D01*
X217233515Y-66816807D01*
X217211308Y-66841308D01*
X217186807Y-66863515D01*
X217160247Y-66883213D01*
X217131884Y-66900213D01*
X217101991Y-66914351D01*
X217070857Y-66925491D01*
X217038781Y-66933525D01*
X217006071Y-66938377D01*
X216973044Y-66940000D01*
X216096956Y-66940000D01*
X216063929Y-66938377D01*
X216031219Y-66933525D01*
X215999143Y-66925491D01*
X215968009Y-66914351D01*
X215938116Y-66900213D01*
X215909753Y-66883213D01*
X215883193Y-66863515D01*
X215858692Y-66841308D01*
X215836485Y-66816807D01*
X215816787Y-66790247D01*
X215799787Y-66761884D01*
X215785649Y-66731991D01*
X215774509Y-66700857D01*
X215766475Y-66668781D01*
X215761623Y-66636071D01*
X215760000Y-66603044D01*
X215760000Y-65476956D01*
X215761623Y-65443929D01*
X215766475Y-65411219D01*
X215774509Y-65379143D01*
X215785649Y-65348009D01*
X215799787Y-65318116D01*
X215816787Y-65289753D01*
X215836485Y-65263193D01*
X215858692Y-65238692D01*
X215883193Y-65216485D01*
X215909753Y-65196787D01*
X215938116Y-65179787D01*
X215968009Y-65165649D01*
X215999143Y-65154509D01*
X216031219Y-65146475D01*
X216063929Y-65141623D01*
X216096956Y-65140000D01*
X216973044Y-65140000D01*
X217006071Y-65141623D01*
X217006071Y-65141623D01*
G37*
D36*
X216535000Y-66040000D03*
D10*
G36*
X222211071Y-61601623D02*
X222243781Y-61606475D01*
X222275857Y-61614509D01*
X222306991Y-61625649D01*
X222336884Y-61639787D01*
X222365247Y-61656787D01*
X222391807Y-61676485D01*
X222416308Y-61698692D01*
X222438515Y-61723193D01*
X222458213Y-61749753D01*
X222475213Y-61778116D01*
X222489351Y-61808009D01*
X222500491Y-61839143D01*
X222508525Y-61871219D01*
X222513377Y-61903929D01*
X222515000Y-61936956D01*
X222515000Y-62813044D01*
X222513377Y-62846071D01*
X222508525Y-62878781D01*
X222500491Y-62910857D01*
X222489351Y-62941991D01*
X222475213Y-62971884D01*
X222458213Y-63000247D01*
X222438515Y-63026807D01*
X222416308Y-63051308D01*
X222391807Y-63073515D01*
X222365247Y-63093213D01*
X222336884Y-63110213D01*
X222306991Y-63124351D01*
X222275857Y-63135491D01*
X222243781Y-63143525D01*
X222211071Y-63148377D01*
X222178044Y-63150000D01*
X221051956Y-63150000D01*
X221018929Y-63148377D01*
X220986219Y-63143525D01*
X220954143Y-63135491D01*
X220923009Y-63124351D01*
X220893116Y-63110213D01*
X220864753Y-63093213D01*
X220838193Y-63073515D01*
X220813692Y-63051308D01*
X220791485Y-63026807D01*
X220771787Y-63000247D01*
X220754787Y-62971884D01*
X220740649Y-62941991D01*
X220729509Y-62910857D01*
X220721475Y-62878781D01*
X220716623Y-62846071D01*
X220715000Y-62813044D01*
X220715000Y-61936956D01*
X220716623Y-61903929D01*
X220721475Y-61871219D01*
X220729509Y-61839143D01*
X220740649Y-61808009D01*
X220754787Y-61778116D01*
X220771787Y-61749753D01*
X220791485Y-61723193D01*
X220813692Y-61698692D01*
X220838193Y-61676485D01*
X220864753Y-61656787D01*
X220893116Y-61639787D01*
X220923009Y-61625649D01*
X220954143Y-61614509D01*
X220986219Y-61606475D01*
X221018929Y-61601623D01*
X221051956Y-61600000D01*
X222178044Y-61600000D01*
X222211071Y-61601623D01*
X222211071Y-61601623D01*
G37*
D36*
X221615000Y-62375000D03*
D10*
G36*
X222211071Y-59551623D02*
X222243781Y-59556475D01*
X222275857Y-59564509D01*
X222306991Y-59575649D01*
X222336884Y-59589787D01*
X222365247Y-59606787D01*
X222391807Y-59626485D01*
X222416308Y-59648692D01*
X222438515Y-59673193D01*
X222458213Y-59699753D01*
X222475213Y-59728116D01*
X222489351Y-59758009D01*
X222500491Y-59789143D01*
X222508525Y-59821219D01*
X222513377Y-59853929D01*
X222515000Y-59886956D01*
X222515000Y-60763044D01*
X222513377Y-60796071D01*
X222508525Y-60828781D01*
X222500491Y-60860857D01*
X222489351Y-60891991D01*
X222475213Y-60921884D01*
X222458213Y-60950247D01*
X222438515Y-60976807D01*
X222416308Y-61001308D01*
X222391807Y-61023515D01*
X222365247Y-61043213D01*
X222336884Y-61060213D01*
X222306991Y-61074351D01*
X222275857Y-61085491D01*
X222243781Y-61093525D01*
X222211071Y-61098377D01*
X222178044Y-61100000D01*
X221051956Y-61100000D01*
X221018929Y-61098377D01*
X220986219Y-61093525D01*
X220954143Y-61085491D01*
X220923009Y-61074351D01*
X220893116Y-61060213D01*
X220864753Y-61043213D01*
X220838193Y-61023515D01*
X220813692Y-61001308D01*
X220791485Y-60976807D01*
X220771787Y-60950247D01*
X220754787Y-60921884D01*
X220740649Y-60891991D01*
X220729509Y-60860857D01*
X220721475Y-60828781D01*
X220716623Y-60796071D01*
X220715000Y-60763044D01*
X220715000Y-59886956D01*
X220716623Y-59853929D01*
X220721475Y-59821219D01*
X220729509Y-59789143D01*
X220740649Y-59758009D01*
X220754787Y-59728116D01*
X220771787Y-59699753D01*
X220791485Y-59673193D01*
X220813692Y-59648692D01*
X220838193Y-59626485D01*
X220864753Y-59606787D01*
X220893116Y-59589787D01*
X220923009Y-59575649D01*
X220954143Y-59564509D01*
X220986219Y-59556475D01*
X221018929Y-59551623D01*
X221051956Y-59550000D01*
X222178044Y-59550000D01*
X222211071Y-59551623D01*
X222211071Y-59551623D01*
G37*
D36*
X221615000Y-60325000D03*
D10*
G36*
X213051071Y-62601623D02*
X213083781Y-62606475D01*
X213115857Y-62614509D01*
X213146991Y-62625649D01*
X213176884Y-62639787D01*
X213205247Y-62656787D01*
X213231807Y-62676485D01*
X213256308Y-62698692D01*
X213278515Y-62723193D01*
X213298213Y-62749753D01*
X213315213Y-62778116D01*
X213329351Y-62808009D01*
X213340491Y-62839143D01*
X213348525Y-62871219D01*
X213353377Y-62903929D01*
X213355000Y-62936956D01*
X213355000Y-64063044D01*
X213353377Y-64096071D01*
X213348525Y-64128781D01*
X213340491Y-64160857D01*
X213329351Y-64191991D01*
X213315213Y-64221884D01*
X213298213Y-64250247D01*
X213278515Y-64276807D01*
X213256308Y-64301308D01*
X213231807Y-64323515D01*
X213205247Y-64343213D01*
X213176884Y-64360213D01*
X213146991Y-64374351D01*
X213115857Y-64385491D01*
X213083781Y-64393525D01*
X213051071Y-64398377D01*
X213018044Y-64400000D01*
X212141956Y-64400000D01*
X212108929Y-64398377D01*
X212076219Y-64393525D01*
X212044143Y-64385491D01*
X212013009Y-64374351D01*
X211983116Y-64360213D01*
X211954753Y-64343213D01*
X211928193Y-64323515D01*
X211903692Y-64301308D01*
X211881485Y-64276807D01*
X211861787Y-64250247D01*
X211844787Y-64221884D01*
X211830649Y-64191991D01*
X211819509Y-64160857D01*
X211811475Y-64128781D01*
X211806623Y-64096071D01*
X211805000Y-64063044D01*
X211805000Y-62936956D01*
X211806623Y-62903929D01*
X211811475Y-62871219D01*
X211819509Y-62839143D01*
X211830649Y-62808009D01*
X211844787Y-62778116D01*
X211861787Y-62749753D01*
X211881485Y-62723193D01*
X211903692Y-62698692D01*
X211928193Y-62676485D01*
X211954753Y-62656787D01*
X211983116Y-62639787D01*
X212013009Y-62625649D01*
X212044143Y-62614509D01*
X212076219Y-62606475D01*
X212108929Y-62601623D01*
X212141956Y-62600000D01*
X213018044Y-62600000D01*
X213051071Y-62601623D01*
X213051071Y-62601623D01*
G37*
D36*
X212580000Y-63500000D03*
D10*
G36*
X215101071Y-62601623D02*
X215133781Y-62606475D01*
X215165857Y-62614509D01*
X215196991Y-62625649D01*
X215226884Y-62639787D01*
X215255247Y-62656787D01*
X215281807Y-62676485D01*
X215306308Y-62698692D01*
X215328515Y-62723193D01*
X215348213Y-62749753D01*
X215365213Y-62778116D01*
X215379351Y-62808009D01*
X215390491Y-62839143D01*
X215398525Y-62871219D01*
X215403377Y-62903929D01*
X215405000Y-62936956D01*
X215405000Y-64063044D01*
X215403377Y-64096071D01*
X215398525Y-64128781D01*
X215390491Y-64160857D01*
X215379351Y-64191991D01*
X215365213Y-64221884D01*
X215348213Y-64250247D01*
X215328515Y-64276807D01*
X215306308Y-64301308D01*
X215281807Y-64323515D01*
X215255247Y-64343213D01*
X215226884Y-64360213D01*
X215196991Y-64374351D01*
X215165857Y-64385491D01*
X215133781Y-64393525D01*
X215101071Y-64398377D01*
X215068044Y-64400000D01*
X214191956Y-64400000D01*
X214158929Y-64398377D01*
X214126219Y-64393525D01*
X214094143Y-64385491D01*
X214063009Y-64374351D01*
X214033116Y-64360213D01*
X214004753Y-64343213D01*
X213978193Y-64323515D01*
X213953692Y-64301308D01*
X213931485Y-64276807D01*
X213911787Y-64250247D01*
X213894787Y-64221884D01*
X213880649Y-64191991D01*
X213869509Y-64160857D01*
X213861475Y-64128781D01*
X213856623Y-64096071D01*
X213855000Y-64063044D01*
X213855000Y-62936956D01*
X213856623Y-62903929D01*
X213861475Y-62871219D01*
X213869509Y-62839143D01*
X213880649Y-62808009D01*
X213894787Y-62778116D01*
X213911787Y-62749753D01*
X213931485Y-62723193D01*
X213953692Y-62698692D01*
X213978193Y-62676485D01*
X214004753Y-62656787D01*
X214033116Y-62639787D01*
X214063009Y-62625649D01*
X214094143Y-62614509D01*
X214126219Y-62606475D01*
X214158929Y-62601623D01*
X214191956Y-62600000D01*
X215068044Y-62600000D01*
X215101071Y-62601623D01*
X215101071Y-62601623D01*
G37*
D36*
X214630000Y-63500000D03*
D10*
G36*
X219056071Y-62601623D02*
X219088781Y-62606475D01*
X219120857Y-62614509D01*
X219151991Y-62625649D01*
X219181884Y-62639787D01*
X219210247Y-62656787D01*
X219236807Y-62676485D01*
X219261308Y-62698692D01*
X219283515Y-62723193D01*
X219303213Y-62749753D01*
X219320213Y-62778116D01*
X219334351Y-62808009D01*
X219345491Y-62839143D01*
X219353525Y-62871219D01*
X219358377Y-62903929D01*
X219360000Y-62936956D01*
X219360000Y-64063044D01*
X219358377Y-64096071D01*
X219353525Y-64128781D01*
X219345491Y-64160857D01*
X219334351Y-64191991D01*
X219320213Y-64221884D01*
X219303213Y-64250247D01*
X219283515Y-64276807D01*
X219261308Y-64301308D01*
X219236807Y-64323515D01*
X219210247Y-64343213D01*
X219181884Y-64360213D01*
X219151991Y-64374351D01*
X219120857Y-64385491D01*
X219088781Y-64393525D01*
X219056071Y-64398377D01*
X219023044Y-64400000D01*
X218146956Y-64400000D01*
X218113929Y-64398377D01*
X218081219Y-64393525D01*
X218049143Y-64385491D01*
X218018009Y-64374351D01*
X217988116Y-64360213D01*
X217959753Y-64343213D01*
X217933193Y-64323515D01*
X217908692Y-64301308D01*
X217886485Y-64276807D01*
X217866787Y-64250247D01*
X217849787Y-64221884D01*
X217835649Y-64191991D01*
X217824509Y-64160857D01*
X217816475Y-64128781D01*
X217811623Y-64096071D01*
X217810000Y-64063044D01*
X217810000Y-62936956D01*
X217811623Y-62903929D01*
X217816475Y-62871219D01*
X217824509Y-62839143D01*
X217835649Y-62808009D01*
X217849787Y-62778116D01*
X217866787Y-62749753D01*
X217886485Y-62723193D01*
X217908692Y-62698692D01*
X217933193Y-62676485D01*
X217959753Y-62656787D01*
X217988116Y-62639787D01*
X218018009Y-62625649D01*
X218049143Y-62614509D01*
X218081219Y-62606475D01*
X218113929Y-62601623D01*
X218146956Y-62600000D01*
X219023044Y-62600000D01*
X219056071Y-62601623D01*
X219056071Y-62601623D01*
G37*
D36*
X218585000Y-63500000D03*
D10*
G36*
X217006071Y-62601623D02*
X217038781Y-62606475D01*
X217070857Y-62614509D01*
X217101991Y-62625649D01*
X217131884Y-62639787D01*
X217160247Y-62656787D01*
X217186807Y-62676485D01*
X217211308Y-62698692D01*
X217233515Y-62723193D01*
X217253213Y-62749753D01*
X217270213Y-62778116D01*
X217284351Y-62808009D01*
X217295491Y-62839143D01*
X217303525Y-62871219D01*
X217308377Y-62903929D01*
X217310000Y-62936956D01*
X217310000Y-64063044D01*
X217308377Y-64096071D01*
X217303525Y-64128781D01*
X217295491Y-64160857D01*
X217284351Y-64191991D01*
X217270213Y-64221884D01*
X217253213Y-64250247D01*
X217233515Y-64276807D01*
X217211308Y-64301308D01*
X217186807Y-64323515D01*
X217160247Y-64343213D01*
X217131884Y-64360213D01*
X217101991Y-64374351D01*
X217070857Y-64385491D01*
X217038781Y-64393525D01*
X217006071Y-64398377D01*
X216973044Y-64400000D01*
X216096956Y-64400000D01*
X216063929Y-64398377D01*
X216031219Y-64393525D01*
X215999143Y-64385491D01*
X215968009Y-64374351D01*
X215938116Y-64360213D01*
X215909753Y-64343213D01*
X215883193Y-64323515D01*
X215858692Y-64301308D01*
X215836485Y-64276807D01*
X215816787Y-64250247D01*
X215799787Y-64221884D01*
X215785649Y-64191991D01*
X215774509Y-64160857D01*
X215766475Y-64128781D01*
X215761623Y-64096071D01*
X215760000Y-64063044D01*
X215760000Y-62936956D01*
X215761623Y-62903929D01*
X215766475Y-62871219D01*
X215774509Y-62839143D01*
X215785649Y-62808009D01*
X215799787Y-62778116D01*
X215816787Y-62749753D01*
X215836485Y-62723193D01*
X215858692Y-62698692D01*
X215883193Y-62676485D01*
X215909753Y-62656787D01*
X215938116Y-62639787D01*
X215968009Y-62625649D01*
X215999143Y-62614509D01*
X216031219Y-62606475D01*
X216063929Y-62601623D01*
X216096956Y-62600000D01*
X216973044Y-62600000D01*
X217006071Y-62601623D01*
X217006071Y-62601623D01*
G37*
D36*
X216535000Y-63500000D03*
D10*
G36*
X215101071Y-53466623D02*
X215133781Y-53471475D01*
X215165857Y-53479509D01*
X215196991Y-53490649D01*
X215226884Y-53504787D01*
X215255247Y-53521787D01*
X215281807Y-53541485D01*
X215306308Y-53563692D01*
X215328515Y-53588193D01*
X215348213Y-53614753D01*
X215365213Y-53643116D01*
X215379351Y-53673009D01*
X215390491Y-53704143D01*
X215398525Y-53736219D01*
X215403377Y-53768929D01*
X215405000Y-53801956D01*
X215405000Y-54928044D01*
X215403377Y-54961071D01*
X215398525Y-54993781D01*
X215390491Y-55025857D01*
X215379351Y-55056991D01*
X215365213Y-55086884D01*
X215348213Y-55115247D01*
X215328515Y-55141807D01*
X215306308Y-55166308D01*
X215281807Y-55188515D01*
X215255247Y-55208213D01*
X215226884Y-55225213D01*
X215196991Y-55239351D01*
X215165857Y-55250491D01*
X215133781Y-55258525D01*
X215101071Y-55263377D01*
X215068044Y-55265000D01*
X214191956Y-55265000D01*
X214158929Y-55263377D01*
X214126219Y-55258525D01*
X214094143Y-55250491D01*
X214063009Y-55239351D01*
X214033116Y-55225213D01*
X214004753Y-55208213D01*
X213978193Y-55188515D01*
X213953692Y-55166308D01*
X213931485Y-55141807D01*
X213911787Y-55115247D01*
X213894787Y-55086884D01*
X213880649Y-55056991D01*
X213869509Y-55025857D01*
X213861475Y-54993781D01*
X213856623Y-54961071D01*
X213855000Y-54928044D01*
X213855000Y-53801956D01*
X213856623Y-53768929D01*
X213861475Y-53736219D01*
X213869509Y-53704143D01*
X213880649Y-53673009D01*
X213894787Y-53643116D01*
X213911787Y-53614753D01*
X213931485Y-53588193D01*
X213953692Y-53563692D01*
X213978193Y-53541485D01*
X214004753Y-53521787D01*
X214033116Y-53504787D01*
X214063009Y-53490649D01*
X214094143Y-53479509D01*
X214126219Y-53471475D01*
X214158929Y-53466623D01*
X214191956Y-53465000D01*
X215068044Y-53465000D01*
X215101071Y-53466623D01*
X215101071Y-53466623D01*
G37*
D36*
X214630000Y-54365000D03*
D10*
G36*
X213051071Y-53466623D02*
X213083781Y-53471475D01*
X213115857Y-53479509D01*
X213146991Y-53490649D01*
X213176884Y-53504787D01*
X213205247Y-53521787D01*
X213231807Y-53541485D01*
X213256308Y-53563692D01*
X213278515Y-53588193D01*
X213298213Y-53614753D01*
X213315213Y-53643116D01*
X213329351Y-53673009D01*
X213340491Y-53704143D01*
X213348525Y-53736219D01*
X213353377Y-53768929D01*
X213355000Y-53801956D01*
X213355000Y-54928044D01*
X213353377Y-54961071D01*
X213348525Y-54993781D01*
X213340491Y-55025857D01*
X213329351Y-55056991D01*
X213315213Y-55086884D01*
X213298213Y-55115247D01*
X213278515Y-55141807D01*
X213256308Y-55166308D01*
X213231807Y-55188515D01*
X213205247Y-55208213D01*
X213176884Y-55225213D01*
X213146991Y-55239351D01*
X213115857Y-55250491D01*
X213083781Y-55258525D01*
X213051071Y-55263377D01*
X213018044Y-55265000D01*
X212141956Y-55265000D01*
X212108929Y-55263377D01*
X212076219Y-55258525D01*
X212044143Y-55250491D01*
X212013009Y-55239351D01*
X211983116Y-55225213D01*
X211954753Y-55208213D01*
X211928193Y-55188515D01*
X211903692Y-55166308D01*
X211881485Y-55141807D01*
X211861787Y-55115247D01*
X211844787Y-55086884D01*
X211830649Y-55056991D01*
X211819509Y-55025857D01*
X211811475Y-54993781D01*
X211806623Y-54961071D01*
X211805000Y-54928044D01*
X211805000Y-53801956D01*
X211806623Y-53768929D01*
X211811475Y-53736219D01*
X211819509Y-53704143D01*
X211830649Y-53673009D01*
X211844787Y-53643116D01*
X211861787Y-53614753D01*
X211881485Y-53588193D01*
X211903692Y-53563692D01*
X211928193Y-53541485D01*
X211954753Y-53521787D01*
X211983116Y-53504787D01*
X212013009Y-53490649D01*
X212044143Y-53479509D01*
X212076219Y-53471475D01*
X212108929Y-53466623D01*
X212141956Y-53465000D01*
X213018044Y-53465000D01*
X213051071Y-53466623D01*
X213051071Y-53466623D01*
G37*
D36*
X212580000Y-54365000D03*
D10*
G36*
X222211071Y-57791623D02*
X222243781Y-57796475D01*
X222275857Y-57804509D01*
X222306991Y-57815649D01*
X222336884Y-57829787D01*
X222365247Y-57846787D01*
X222391807Y-57866485D01*
X222416308Y-57888692D01*
X222438515Y-57913193D01*
X222458213Y-57939753D01*
X222475213Y-57968116D01*
X222489351Y-57998009D01*
X222500491Y-58029143D01*
X222508525Y-58061219D01*
X222513377Y-58093929D01*
X222515000Y-58126956D01*
X222515000Y-59003044D01*
X222513377Y-59036071D01*
X222508525Y-59068781D01*
X222500491Y-59100857D01*
X222489351Y-59131991D01*
X222475213Y-59161884D01*
X222458213Y-59190247D01*
X222438515Y-59216807D01*
X222416308Y-59241308D01*
X222391807Y-59263515D01*
X222365247Y-59283213D01*
X222336884Y-59300213D01*
X222306991Y-59314351D01*
X222275857Y-59325491D01*
X222243781Y-59333525D01*
X222211071Y-59338377D01*
X222178044Y-59340000D01*
X221051956Y-59340000D01*
X221018929Y-59338377D01*
X220986219Y-59333525D01*
X220954143Y-59325491D01*
X220923009Y-59314351D01*
X220893116Y-59300213D01*
X220864753Y-59283213D01*
X220838193Y-59263515D01*
X220813692Y-59241308D01*
X220791485Y-59216807D01*
X220771787Y-59190247D01*
X220754787Y-59161884D01*
X220740649Y-59131991D01*
X220729509Y-59100857D01*
X220721475Y-59068781D01*
X220716623Y-59036071D01*
X220715000Y-59003044D01*
X220715000Y-58126956D01*
X220716623Y-58093929D01*
X220721475Y-58061219D01*
X220729509Y-58029143D01*
X220740649Y-57998009D01*
X220754787Y-57968116D01*
X220771787Y-57939753D01*
X220791485Y-57913193D01*
X220813692Y-57888692D01*
X220838193Y-57866485D01*
X220864753Y-57846787D01*
X220893116Y-57829787D01*
X220923009Y-57815649D01*
X220954143Y-57804509D01*
X220986219Y-57796475D01*
X221018929Y-57791623D01*
X221051956Y-57790000D01*
X222178044Y-57790000D01*
X222211071Y-57791623D01*
X222211071Y-57791623D01*
G37*
D36*
X221615000Y-58565000D03*
D10*
G36*
X222211071Y-55741623D02*
X222243781Y-55746475D01*
X222275857Y-55754509D01*
X222306991Y-55765649D01*
X222336884Y-55779787D01*
X222365247Y-55796787D01*
X222391807Y-55816485D01*
X222416308Y-55838692D01*
X222438515Y-55863193D01*
X222458213Y-55889753D01*
X222475213Y-55918116D01*
X222489351Y-55948009D01*
X222500491Y-55979143D01*
X222508525Y-56011219D01*
X222513377Y-56043929D01*
X222515000Y-56076956D01*
X222515000Y-56953044D01*
X222513377Y-56986071D01*
X222508525Y-57018781D01*
X222500491Y-57050857D01*
X222489351Y-57081991D01*
X222475213Y-57111884D01*
X222458213Y-57140247D01*
X222438515Y-57166807D01*
X222416308Y-57191308D01*
X222391807Y-57213515D01*
X222365247Y-57233213D01*
X222336884Y-57250213D01*
X222306991Y-57264351D01*
X222275857Y-57275491D01*
X222243781Y-57283525D01*
X222211071Y-57288377D01*
X222178044Y-57290000D01*
X221051956Y-57290000D01*
X221018929Y-57288377D01*
X220986219Y-57283525D01*
X220954143Y-57275491D01*
X220923009Y-57264351D01*
X220893116Y-57250213D01*
X220864753Y-57233213D01*
X220838193Y-57213515D01*
X220813692Y-57191308D01*
X220791485Y-57166807D01*
X220771787Y-57140247D01*
X220754787Y-57111884D01*
X220740649Y-57081991D01*
X220729509Y-57050857D01*
X220721475Y-57018781D01*
X220716623Y-56986071D01*
X220715000Y-56953044D01*
X220715000Y-56076956D01*
X220716623Y-56043929D01*
X220721475Y-56011219D01*
X220729509Y-55979143D01*
X220740649Y-55948009D01*
X220754787Y-55918116D01*
X220771787Y-55889753D01*
X220791485Y-55863193D01*
X220813692Y-55838692D01*
X220838193Y-55816485D01*
X220864753Y-55796787D01*
X220893116Y-55779787D01*
X220923009Y-55765649D01*
X220954143Y-55754509D01*
X220986219Y-55746475D01*
X221018929Y-55741623D01*
X221051956Y-55740000D01*
X222178044Y-55740000D01*
X222211071Y-55741623D01*
X222211071Y-55741623D01*
G37*
D36*
X221615000Y-56515000D03*
D10*
G36*
X215861071Y-81531623D02*
X215893781Y-81536475D01*
X215925857Y-81544509D01*
X215956991Y-81555649D01*
X215986884Y-81569787D01*
X216015247Y-81586787D01*
X216041807Y-81606485D01*
X216066308Y-81628692D01*
X216088515Y-81653193D01*
X216108213Y-81679753D01*
X216125213Y-81708116D01*
X216139351Y-81738009D01*
X216150491Y-81769143D01*
X216158525Y-81801219D01*
X216163377Y-81833929D01*
X216165000Y-81866956D01*
X216165000Y-82743044D01*
X216163377Y-82776071D01*
X216158525Y-82808781D01*
X216150491Y-82840857D01*
X216139351Y-82871991D01*
X216125213Y-82901884D01*
X216108213Y-82930247D01*
X216088515Y-82956807D01*
X216066308Y-82981308D01*
X216041807Y-83003515D01*
X216015247Y-83023213D01*
X215986884Y-83040213D01*
X215956991Y-83054351D01*
X215925857Y-83065491D01*
X215893781Y-83073525D01*
X215861071Y-83078377D01*
X215828044Y-83080000D01*
X214701956Y-83080000D01*
X214668929Y-83078377D01*
X214636219Y-83073525D01*
X214604143Y-83065491D01*
X214573009Y-83054351D01*
X214543116Y-83040213D01*
X214514753Y-83023213D01*
X214488193Y-83003515D01*
X214463692Y-82981308D01*
X214441485Y-82956807D01*
X214421787Y-82930247D01*
X214404787Y-82901884D01*
X214390649Y-82871991D01*
X214379509Y-82840857D01*
X214371475Y-82808781D01*
X214366623Y-82776071D01*
X214365000Y-82743044D01*
X214365000Y-81866956D01*
X214366623Y-81833929D01*
X214371475Y-81801219D01*
X214379509Y-81769143D01*
X214390649Y-81738009D01*
X214404787Y-81708116D01*
X214421787Y-81679753D01*
X214441485Y-81653193D01*
X214463692Y-81628692D01*
X214488193Y-81606485D01*
X214514753Y-81586787D01*
X214543116Y-81569787D01*
X214573009Y-81555649D01*
X214604143Y-81544509D01*
X214636219Y-81536475D01*
X214668929Y-81531623D01*
X214701956Y-81530000D01*
X215828044Y-81530000D01*
X215861071Y-81531623D01*
X215861071Y-81531623D01*
G37*
D36*
X215265000Y-82305000D03*
D10*
G36*
X215861071Y-79481623D02*
X215893781Y-79486475D01*
X215925857Y-79494509D01*
X215956991Y-79505649D01*
X215986884Y-79519787D01*
X216015247Y-79536787D01*
X216041807Y-79556485D01*
X216066308Y-79578692D01*
X216088515Y-79603193D01*
X216108213Y-79629753D01*
X216125213Y-79658116D01*
X216139351Y-79688009D01*
X216150491Y-79719143D01*
X216158525Y-79751219D01*
X216163377Y-79783929D01*
X216165000Y-79816956D01*
X216165000Y-80693044D01*
X216163377Y-80726071D01*
X216158525Y-80758781D01*
X216150491Y-80790857D01*
X216139351Y-80821991D01*
X216125213Y-80851884D01*
X216108213Y-80880247D01*
X216088515Y-80906807D01*
X216066308Y-80931308D01*
X216041807Y-80953515D01*
X216015247Y-80973213D01*
X215986884Y-80990213D01*
X215956991Y-81004351D01*
X215925857Y-81015491D01*
X215893781Y-81023525D01*
X215861071Y-81028377D01*
X215828044Y-81030000D01*
X214701956Y-81030000D01*
X214668929Y-81028377D01*
X214636219Y-81023525D01*
X214604143Y-81015491D01*
X214573009Y-81004351D01*
X214543116Y-80990213D01*
X214514753Y-80973213D01*
X214488193Y-80953515D01*
X214463692Y-80931308D01*
X214441485Y-80906807D01*
X214421787Y-80880247D01*
X214404787Y-80851884D01*
X214390649Y-80821991D01*
X214379509Y-80790857D01*
X214371475Y-80758781D01*
X214366623Y-80726071D01*
X214365000Y-80693044D01*
X214365000Y-79816956D01*
X214366623Y-79783929D01*
X214371475Y-79751219D01*
X214379509Y-79719143D01*
X214390649Y-79688009D01*
X214404787Y-79658116D01*
X214421787Y-79629753D01*
X214441485Y-79603193D01*
X214463692Y-79578692D01*
X214488193Y-79556485D01*
X214514753Y-79536787D01*
X214543116Y-79519787D01*
X214573009Y-79505649D01*
X214604143Y-79494509D01*
X214636219Y-79486475D01*
X214668929Y-79481623D01*
X214701956Y-79480000D01*
X215828044Y-79480000D01*
X215861071Y-79481623D01*
X215861071Y-79481623D01*
G37*
D36*
X215265000Y-80255000D03*
D10*
G36*
X217385071Y-85771123D02*
X217417781Y-85775975D01*
X217449857Y-85784009D01*
X217480991Y-85795149D01*
X217510884Y-85809287D01*
X217539247Y-85826287D01*
X217565807Y-85845985D01*
X217590308Y-85868192D01*
X217612515Y-85892693D01*
X217632213Y-85919253D01*
X217649213Y-85947616D01*
X217663351Y-85977509D01*
X217674491Y-86008643D01*
X217682525Y-86040719D01*
X217687377Y-86073429D01*
X217689000Y-86106456D01*
X217689000Y-86982544D01*
X217687377Y-87015571D01*
X217682525Y-87048281D01*
X217674491Y-87080357D01*
X217663351Y-87111491D01*
X217649213Y-87141384D01*
X217632213Y-87169747D01*
X217612515Y-87196307D01*
X217590308Y-87220808D01*
X217565807Y-87243015D01*
X217539247Y-87262713D01*
X217510884Y-87279713D01*
X217480991Y-87293851D01*
X217449857Y-87304991D01*
X217417781Y-87313025D01*
X217385071Y-87317877D01*
X217352044Y-87319500D01*
X216225956Y-87319500D01*
X216192929Y-87317877D01*
X216160219Y-87313025D01*
X216128143Y-87304991D01*
X216097009Y-87293851D01*
X216067116Y-87279713D01*
X216038753Y-87262713D01*
X216012193Y-87243015D01*
X215987692Y-87220808D01*
X215965485Y-87196307D01*
X215945787Y-87169747D01*
X215928787Y-87141384D01*
X215914649Y-87111491D01*
X215903509Y-87080357D01*
X215895475Y-87048281D01*
X215890623Y-87015571D01*
X215889000Y-86982544D01*
X215889000Y-86106456D01*
X215890623Y-86073429D01*
X215895475Y-86040719D01*
X215903509Y-86008643D01*
X215914649Y-85977509D01*
X215928787Y-85947616D01*
X215945787Y-85919253D01*
X215965485Y-85892693D01*
X215987692Y-85868192D01*
X216012193Y-85845985D01*
X216038753Y-85826287D01*
X216067116Y-85809287D01*
X216097009Y-85795149D01*
X216128143Y-85784009D01*
X216160219Y-85775975D01*
X216192929Y-85771123D01*
X216225956Y-85769500D01*
X217352044Y-85769500D01*
X217385071Y-85771123D01*
X217385071Y-85771123D01*
G37*
D36*
X216789000Y-86544500D03*
D10*
G36*
X217385071Y-83721123D02*
X217417781Y-83725975D01*
X217449857Y-83734009D01*
X217480991Y-83745149D01*
X217510884Y-83759287D01*
X217539247Y-83776287D01*
X217565807Y-83795985D01*
X217590308Y-83818192D01*
X217612515Y-83842693D01*
X217632213Y-83869253D01*
X217649213Y-83897616D01*
X217663351Y-83927509D01*
X217674491Y-83958643D01*
X217682525Y-83990719D01*
X217687377Y-84023429D01*
X217689000Y-84056456D01*
X217689000Y-84932544D01*
X217687377Y-84965571D01*
X217682525Y-84998281D01*
X217674491Y-85030357D01*
X217663351Y-85061491D01*
X217649213Y-85091384D01*
X217632213Y-85119747D01*
X217612515Y-85146307D01*
X217590308Y-85170808D01*
X217565807Y-85193015D01*
X217539247Y-85212713D01*
X217510884Y-85229713D01*
X217480991Y-85243851D01*
X217449857Y-85254991D01*
X217417781Y-85263025D01*
X217385071Y-85267877D01*
X217352044Y-85269500D01*
X216225956Y-85269500D01*
X216192929Y-85267877D01*
X216160219Y-85263025D01*
X216128143Y-85254991D01*
X216097009Y-85243851D01*
X216067116Y-85229713D01*
X216038753Y-85212713D01*
X216012193Y-85193015D01*
X215987692Y-85170808D01*
X215965485Y-85146307D01*
X215945787Y-85119747D01*
X215928787Y-85091384D01*
X215914649Y-85061491D01*
X215903509Y-85030357D01*
X215895475Y-84998281D01*
X215890623Y-84965571D01*
X215889000Y-84932544D01*
X215889000Y-84056456D01*
X215890623Y-84023429D01*
X215895475Y-83990719D01*
X215903509Y-83958643D01*
X215914649Y-83927509D01*
X215928787Y-83897616D01*
X215945787Y-83869253D01*
X215965485Y-83842693D01*
X215987692Y-83818192D01*
X216012193Y-83795985D01*
X216038753Y-83776287D01*
X216067116Y-83759287D01*
X216097009Y-83745149D01*
X216128143Y-83734009D01*
X216160219Y-83725975D01*
X216192929Y-83721123D01*
X216225956Y-83719500D01*
X217352044Y-83719500D01*
X217385071Y-83721123D01*
X217385071Y-83721123D01*
G37*
D36*
X216789000Y-84494500D03*
D10*
G36*
X191352071Y-54473623D02*
X191384781Y-54478475D01*
X191416857Y-54486509D01*
X191447991Y-54497649D01*
X191477884Y-54511787D01*
X191506247Y-54528787D01*
X191532807Y-54548485D01*
X191557308Y-54570692D01*
X191579515Y-54595193D01*
X191599213Y-54621753D01*
X191616213Y-54650116D01*
X191630351Y-54680009D01*
X191641491Y-54711143D01*
X191649525Y-54743219D01*
X191654377Y-54775929D01*
X191656000Y-54808956D01*
X191656000Y-55935044D01*
X191654377Y-55968071D01*
X191649525Y-56000781D01*
X191641491Y-56032857D01*
X191630351Y-56063991D01*
X191616213Y-56093884D01*
X191599213Y-56122247D01*
X191579515Y-56148807D01*
X191557308Y-56173308D01*
X191532807Y-56195515D01*
X191506247Y-56215213D01*
X191477884Y-56232213D01*
X191447991Y-56246351D01*
X191416857Y-56257491D01*
X191384781Y-56265525D01*
X191352071Y-56270377D01*
X191319044Y-56272000D01*
X190442956Y-56272000D01*
X190409929Y-56270377D01*
X190377219Y-56265525D01*
X190345143Y-56257491D01*
X190314009Y-56246351D01*
X190284116Y-56232213D01*
X190255753Y-56215213D01*
X190229193Y-56195515D01*
X190204692Y-56173308D01*
X190182485Y-56148807D01*
X190162787Y-56122247D01*
X190145787Y-56093884D01*
X190131649Y-56063991D01*
X190120509Y-56032857D01*
X190112475Y-56000781D01*
X190107623Y-55968071D01*
X190106000Y-55935044D01*
X190106000Y-54808956D01*
X190107623Y-54775929D01*
X190112475Y-54743219D01*
X190120509Y-54711143D01*
X190131649Y-54680009D01*
X190145787Y-54650116D01*
X190162787Y-54621753D01*
X190182485Y-54595193D01*
X190204692Y-54570692D01*
X190229193Y-54548485D01*
X190255753Y-54528787D01*
X190284116Y-54511787D01*
X190314009Y-54497649D01*
X190345143Y-54486509D01*
X190377219Y-54478475D01*
X190409929Y-54473623D01*
X190442956Y-54472000D01*
X191319044Y-54472000D01*
X191352071Y-54473623D01*
X191352071Y-54473623D01*
G37*
D36*
X190881000Y-55372000D03*
D10*
G36*
X189302071Y-54473623D02*
X189334781Y-54478475D01*
X189366857Y-54486509D01*
X189397991Y-54497649D01*
X189427884Y-54511787D01*
X189456247Y-54528787D01*
X189482807Y-54548485D01*
X189507308Y-54570692D01*
X189529515Y-54595193D01*
X189549213Y-54621753D01*
X189566213Y-54650116D01*
X189580351Y-54680009D01*
X189591491Y-54711143D01*
X189599525Y-54743219D01*
X189604377Y-54775929D01*
X189606000Y-54808956D01*
X189606000Y-55935044D01*
X189604377Y-55968071D01*
X189599525Y-56000781D01*
X189591491Y-56032857D01*
X189580351Y-56063991D01*
X189566213Y-56093884D01*
X189549213Y-56122247D01*
X189529515Y-56148807D01*
X189507308Y-56173308D01*
X189482807Y-56195515D01*
X189456247Y-56215213D01*
X189427884Y-56232213D01*
X189397991Y-56246351D01*
X189366857Y-56257491D01*
X189334781Y-56265525D01*
X189302071Y-56270377D01*
X189269044Y-56272000D01*
X188392956Y-56272000D01*
X188359929Y-56270377D01*
X188327219Y-56265525D01*
X188295143Y-56257491D01*
X188264009Y-56246351D01*
X188234116Y-56232213D01*
X188205753Y-56215213D01*
X188179193Y-56195515D01*
X188154692Y-56173308D01*
X188132485Y-56148807D01*
X188112787Y-56122247D01*
X188095787Y-56093884D01*
X188081649Y-56063991D01*
X188070509Y-56032857D01*
X188062475Y-56000781D01*
X188057623Y-55968071D01*
X188056000Y-55935044D01*
X188056000Y-54808956D01*
X188057623Y-54775929D01*
X188062475Y-54743219D01*
X188070509Y-54711143D01*
X188081649Y-54680009D01*
X188095787Y-54650116D01*
X188112787Y-54621753D01*
X188132485Y-54595193D01*
X188154692Y-54570692D01*
X188179193Y-54548485D01*
X188205753Y-54528787D01*
X188234116Y-54511787D01*
X188264009Y-54497649D01*
X188295143Y-54486509D01*
X188327219Y-54478475D01*
X188359929Y-54473623D01*
X188392956Y-54472000D01*
X189269044Y-54472000D01*
X189302071Y-54473623D01*
X189302071Y-54473623D01*
G37*
D36*
X188831000Y-55372000D03*
D10*
G36*
X188556071Y-50534623D02*
X188588781Y-50539475D01*
X188620857Y-50547509D01*
X188651991Y-50558649D01*
X188681884Y-50572787D01*
X188710247Y-50589787D01*
X188736807Y-50609485D01*
X188761308Y-50631692D01*
X188783515Y-50656193D01*
X188803213Y-50682753D01*
X188820213Y-50711116D01*
X188834351Y-50741009D01*
X188845491Y-50772143D01*
X188853525Y-50804219D01*
X188858377Y-50836929D01*
X188860000Y-50869956D01*
X188860000Y-51746044D01*
X188858377Y-51779071D01*
X188853525Y-51811781D01*
X188845491Y-51843857D01*
X188834351Y-51874991D01*
X188820213Y-51904884D01*
X188803213Y-51933247D01*
X188783515Y-51959807D01*
X188761308Y-51984308D01*
X188736807Y-52006515D01*
X188710247Y-52026213D01*
X188681884Y-52043213D01*
X188651991Y-52057351D01*
X188620857Y-52068491D01*
X188588781Y-52076525D01*
X188556071Y-52081377D01*
X188523044Y-52083000D01*
X187396956Y-52083000D01*
X187363929Y-52081377D01*
X187331219Y-52076525D01*
X187299143Y-52068491D01*
X187268009Y-52057351D01*
X187238116Y-52043213D01*
X187209753Y-52026213D01*
X187183193Y-52006515D01*
X187158692Y-51984308D01*
X187136485Y-51959807D01*
X187116787Y-51933247D01*
X187099787Y-51904884D01*
X187085649Y-51874991D01*
X187074509Y-51843857D01*
X187066475Y-51811781D01*
X187061623Y-51779071D01*
X187060000Y-51746044D01*
X187060000Y-50869956D01*
X187061623Y-50836929D01*
X187066475Y-50804219D01*
X187074509Y-50772143D01*
X187085649Y-50741009D01*
X187099787Y-50711116D01*
X187116787Y-50682753D01*
X187136485Y-50656193D01*
X187158692Y-50631692D01*
X187183193Y-50609485D01*
X187209753Y-50589787D01*
X187238116Y-50572787D01*
X187268009Y-50558649D01*
X187299143Y-50547509D01*
X187331219Y-50539475D01*
X187363929Y-50534623D01*
X187396956Y-50533000D01*
X188523044Y-50533000D01*
X188556071Y-50534623D01*
X188556071Y-50534623D01*
G37*
D36*
X187960000Y-51308000D03*
D10*
G36*
X188556071Y-48484623D02*
X188588781Y-48489475D01*
X188620857Y-48497509D01*
X188651991Y-48508649D01*
X188681884Y-48522787D01*
X188710247Y-48539787D01*
X188736807Y-48559485D01*
X188761308Y-48581692D01*
X188783515Y-48606193D01*
X188803213Y-48632753D01*
X188820213Y-48661116D01*
X188834351Y-48691009D01*
X188845491Y-48722143D01*
X188853525Y-48754219D01*
X188858377Y-48786929D01*
X188860000Y-48819956D01*
X188860000Y-49696044D01*
X188858377Y-49729071D01*
X188853525Y-49761781D01*
X188845491Y-49793857D01*
X188834351Y-49824991D01*
X188820213Y-49854884D01*
X188803213Y-49883247D01*
X188783515Y-49909807D01*
X188761308Y-49934308D01*
X188736807Y-49956515D01*
X188710247Y-49976213D01*
X188681884Y-49993213D01*
X188651991Y-50007351D01*
X188620857Y-50018491D01*
X188588781Y-50026525D01*
X188556071Y-50031377D01*
X188523044Y-50033000D01*
X187396956Y-50033000D01*
X187363929Y-50031377D01*
X187331219Y-50026525D01*
X187299143Y-50018491D01*
X187268009Y-50007351D01*
X187238116Y-49993213D01*
X187209753Y-49976213D01*
X187183193Y-49956515D01*
X187158692Y-49934308D01*
X187136485Y-49909807D01*
X187116787Y-49883247D01*
X187099787Y-49854884D01*
X187085649Y-49824991D01*
X187074509Y-49793857D01*
X187066475Y-49761781D01*
X187061623Y-49729071D01*
X187060000Y-49696044D01*
X187060000Y-48819956D01*
X187061623Y-48786929D01*
X187066475Y-48754219D01*
X187074509Y-48722143D01*
X187085649Y-48691009D01*
X187099787Y-48661116D01*
X187116787Y-48632753D01*
X187136485Y-48606193D01*
X187158692Y-48581692D01*
X187183193Y-48559485D01*
X187209753Y-48539787D01*
X187238116Y-48522787D01*
X187268009Y-48508649D01*
X187299143Y-48497509D01*
X187331219Y-48489475D01*
X187363929Y-48484623D01*
X187396956Y-48483000D01*
X188523044Y-48483000D01*
X188556071Y-48484623D01*
X188556071Y-48484623D01*
G37*
D36*
X187960000Y-49258000D03*
D10*
G36*
X219925071Y-142355623D02*
X219957781Y-142360475D01*
X219989857Y-142368509D01*
X220020991Y-142379649D01*
X220050884Y-142393787D01*
X220079247Y-142410787D01*
X220105807Y-142430485D01*
X220130308Y-142452692D01*
X220152515Y-142477193D01*
X220172213Y-142503753D01*
X220189213Y-142532116D01*
X220203351Y-142562009D01*
X220214491Y-142593143D01*
X220222525Y-142625219D01*
X220227377Y-142657929D01*
X220229000Y-142690956D01*
X220229000Y-143567044D01*
X220227377Y-143600071D01*
X220222525Y-143632781D01*
X220214491Y-143664857D01*
X220203351Y-143695991D01*
X220189213Y-143725884D01*
X220172213Y-143754247D01*
X220152515Y-143780807D01*
X220130308Y-143805308D01*
X220105807Y-143827515D01*
X220079247Y-143847213D01*
X220050884Y-143864213D01*
X220020991Y-143878351D01*
X219989857Y-143889491D01*
X219957781Y-143897525D01*
X219925071Y-143902377D01*
X219892044Y-143904000D01*
X218765956Y-143904000D01*
X218732929Y-143902377D01*
X218700219Y-143897525D01*
X218668143Y-143889491D01*
X218637009Y-143878351D01*
X218607116Y-143864213D01*
X218578753Y-143847213D01*
X218552193Y-143827515D01*
X218527692Y-143805308D01*
X218505485Y-143780807D01*
X218485787Y-143754247D01*
X218468787Y-143725884D01*
X218454649Y-143695991D01*
X218443509Y-143664857D01*
X218435475Y-143632781D01*
X218430623Y-143600071D01*
X218429000Y-143567044D01*
X218429000Y-142690956D01*
X218430623Y-142657929D01*
X218435475Y-142625219D01*
X218443509Y-142593143D01*
X218454649Y-142562009D01*
X218468787Y-142532116D01*
X218485787Y-142503753D01*
X218505485Y-142477193D01*
X218527692Y-142452692D01*
X218552193Y-142430485D01*
X218578753Y-142410787D01*
X218607116Y-142393787D01*
X218637009Y-142379649D01*
X218668143Y-142368509D01*
X218700219Y-142360475D01*
X218732929Y-142355623D01*
X218765956Y-142354000D01*
X219892044Y-142354000D01*
X219925071Y-142355623D01*
X219925071Y-142355623D01*
G37*
D36*
X219329000Y-143129000D03*
D10*
G36*
X219925071Y-144405623D02*
X219957781Y-144410475D01*
X219989857Y-144418509D01*
X220020991Y-144429649D01*
X220050884Y-144443787D01*
X220079247Y-144460787D01*
X220105807Y-144480485D01*
X220130308Y-144502692D01*
X220152515Y-144527193D01*
X220172213Y-144553753D01*
X220189213Y-144582116D01*
X220203351Y-144612009D01*
X220214491Y-144643143D01*
X220222525Y-144675219D01*
X220227377Y-144707929D01*
X220229000Y-144740956D01*
X220229000Y-145617044D01*
X220227377Y-145650071D01*
X220222525Y-145682781D01*
X220214491Y-145714857D01*
X220203351Y-145745991D01*
X220189213Y-145775884D01*
X220172213Y-145804247D01*
X220152515Y-145830807D01*
X220130308Y-145855308D01*
X220105807Y-145877515D01*
X220079247Y-145897213D01*
X220050884Y-145914213D01*
X220020991Y-145928351D01*
X219989857Y-145939491D01*
X219957781Y-145947525D01*
X219925071Y-145952377D01*
X219892044Y-145954000D01*
X218765956Y-145954000D01*
X218732929Y-145952377D01*
X218700219Y-145947525D01*
X218668143Y-145939491D01*
X218637009Y-145928351D01*
X218607116Y-145914213D01*
X218578753Y-145897213D01*
X218552193Y-145877515D01*
X218527692Y-145855308D01*
X218505485Y-145830807D01*
X218485787Y-145804247D01*
X218468787Y-145775884D01*
X218454649Y-145745991D01*
X218443509Y-145714857D01*
X218435475Y-145682781D01*
X218430623Y-145650071D01*
X218429000Y-145617044D01*
X218429000Y-144740956D01*
X218430623Y-144707929D01*
X218435475Y-144675219D01*
X218443509Y-144643143D01*
X218454649Y-144612009D01*
X218468787Y-144582116D01*
X218485787Y-144553753D01*
X218505485Y-144527193D01*
X218527692Y-144502692D01*
X218552193Y-144480485D01*
X218578753Y-144460787D01*
X218607116Y-144443787D01*
X218637009Y-144429649D01*
X218668143Y-144418509D01*
X218700219Y-144410475D01*
X218732929Y-144405623D01*
X218765956Y-144404000D01*
X219892044Y-144404000D01*
X219925071Y-144405623D01*
X219925071Y-144405623D01*
G37*
D36*
X219329000Y-145179000D03*
D10*
G36*
X219925071Y-146283623D02*
X219957781Y-146288475D01*
X219989857Y-146296509D01*
X220020991Y-146307649D01*
X220050884Y-146321787D01*
X220079247Y-146338787D01*
X220105807Y-146358485D01*
X220130308Y-146380692D01*
X220152515Y-146405193D01*
X220172213Y-146431753D01*
X220189213Y-146460116D01*
X220203351Y-146490009D01*
X220214491Y-146521143D01*
X220222525Y-146553219D01*
X220227377Y-146585929D01*
X220229000Y-146618956D01*
X220229000Y-147495044D01*
X220227377Y-147528071D01*
X220222525Y-147560781D01*
X220214491Y-147592857D01*
X220203351Y-147623991D01*
X220189213Y-147653884D01*
X220172213Y-147682247D01*
X220152515Y-147708807D01*
X220130308Y-147733308D01*
X220105807Y-147755515D01*
X220079247Y-147775213D01*
X220050884Y-147792213D01*
X220020991Y-147806351D01*
X219989857Y-147817491D01*
X219957781Y-147825525D01*
X219925071Y-147830377D01*
X219892044Y-147832000D01*
X218765956Y-147832000D01*
X218732929Y-147830377D01*
X218700219Y-147825525D01*
X218668143Y-147817491D01*
X218637009Y-147806351D01*
X218607116Y-147792213D01*
X218578753Y-147775213D01*
X218552193Y-147755515D01*
X218527692Y-147733308D01*
X218505485Y-147708807D01*
X218485787Y-147682247D01*
X218468787Y-147653884D01*
X218454649Y-147623991D01*
X218443509Y-147592857D01*
X218435475Y-147560781D01*
X218430623Y-147528071D01*
X218429000Y-147495044D01*
X218429000Y-146618956D01*
X218430623Y-146585929D01*
X218435475Y-146553219D01*
X218443509Y-146521143D01*
X218454649Y-146490009D01*
X218468787Y-146460116D01*
X218485787Y-146431753D01*
X218505485Y-146405193D01*
X218527692Y-146380692D01*
X218552193Y-146358485D01*
X218578753Y-146338787D01*
X218607116Y-146321787D01*
X218637009Y-146307649D01*
X218668143Y-146296509D01*
X218700219Y-146288475D01*
X218732929Y-146283623D01*
X218765956Y-146282000D01*
X219892044Y-146282000D01*
X219925071Y-146283623D01*
X219925071Y-146283623D01*
G37*
D36*
X219329000Y-147057000D03*
D10*
G36*
X219925071Y-148333623D02*
X219957781Y-148338475D01*
X219989857Y-148346509D01*
X220020991Y-148357649D01*
X220050884Y-148371787D01*
X220079247Y-148388787D01*
X220105807Y-148408485D01*
X220130308Y-148430692D01*
X220152515Y-148455193D01*
X220172213Y-148481753D01*
X220189213Y-148510116D01*
X220203351Y-148540009D01*
X220214491Y-148571143D01*
X220222525Y-148603219D01*
X220227377Y-148635929D01*
X220229000Y-148668956D01*
X220229000Y-149545044D01*
X220227377Y-149578071D01*
X220222525Y-149610781D01*
X220214491Y-149642857D01*
X220203351Y-149673991D01*
X220189213Y-149703884D01*
X220172213Y-149732247D01*
X220152515Y-149758807D01*
X220130308Y-149783308D01*
X220105807Y-149805515D01*
X220079247Y-149825213D01*
X220050884Y-149842213D01*
X220020991Y-149856351D01*
X219989857Y-149867491D01*
X219957781Y-149875525D01*
X219925071Y-149880377D01*
X219892044Y-149882000D01*
X218765956Y-149882000D01*
X218732929Y-149880377D01*
X218700219Y-149875525D01*
X218668143Y-149867491D01*
X218637009Y-149856351D01*
X218607116Y-149842213D01*
X218578753Y-149825213D01*
X218552193Y-149805515D01*
X218527692Y-149783308D01*
X218505485Y-149758807D01*
X218485787Y-149732247D01*
X218468787Y-149703884D01*
X218454649Y-149673991D01*
X218443509Y-149642857D01*
X218435475Y-149610781D01*
X218430623Y-149578071D01*
X218429000Y-149545044D01*
X218429000Y-148668956D01*
X218430623Y-148635929D01*
X218435475Y-148603219D01*
X218443509Y-148571143D01*
X218454649Y-148540009D01*
X218468787Y-148510116D01*
X218485787Y-148481753D01*
X218505485Y-148455193D01*
X218527692Y-148430692D01*
X218552193Y-148408485D01*
X218578753Y-148388787D01*
X218607116Y-148371787D01*
X218637009Y-148357649D01*
X218668143Y-148346509D01*
X218700219Y-148338475D01*
X218732929Y-148333623D01*
X218765956Y-148332000D01*
X219892044Y-148332000D01*
X219925071Y-148333623D01*
X219925071Y-148333623D01*
G37*
D36*
X219329000Y-149107000D03*
D39*
X254635000Y-90805000D03*
D40*
X254635000Y-65405000D03*
M02*
