M48
;DRILL file {KiCad 6.0.0-rc1-unknown-994a9c5~65~ubuntu18.04.1} date Wed Jul 25 16:16:33 2018
;FORMAT={-:-/ absolute / inch / decimal}
FMAT,2
INCH,TZ
T1C0.0157
T2C0.0197
T3C0.0280
T4C0.0315
T5C0.0354
T6C0.0394
%
G90
G05
M72
T1
X7.435Y-2.315
X7.725Y-3.2
X7.75Y-4.55
X7.95Y-2.775
X8.Y-5.615
X8.05Y-4.55
X8.135Y-2.44
X8.225Y-1.1
X8.24Y-4.49
X8.285Y-3.615
X8.305Y-2.405
X8.33Y-3.535
X8.365Y-3.475
X8.4Y-6.025
X8.41Y-3.43
X8.4682Y-3.4182
X8.49Y-5.785
X8.525Y-2.06
X8.53Y-4.095
X8.5352Y-3.5065
X8.56Y-5.81
X8.585Y-3.565
X8.605Y-2.065
X8.605Y-3.105
X8.605Y-3.375
X8.655Y-5.975
X8.67Y-3.43
X8.67Y-4.495
X8.7Y-4.215
X8.715Y-4.325
X8.715Y-4.52
X8.73Y-3.59
X8.745Y-3.51
X8.75Y-5.535
X8.7865Y-5.3752
X8.8Y-5.975
X8.805Y-3.88
X8.81Y-2.7
X8.81Y-5.48
X8.815Y-2.225
X8.955Y-4.1
X8.965Y-3.595
X9.Y-3.375
X9.02Y-5.42
X9.045Y-3.405
X9.09Y-5.97
X9.105Y-5.46
X9.205Y-5.38
X9.25Y-3.11
X9.275Y-5.525
X9.3Y-1.1
X9.4Y-5.525
X9.51Y-5.525
X9.598Y-5.42
X9.695Y-3.51
X9.7921Y-5.46
X9.87Y-2.09
X9.89Y-5.59
T2
X8.525Y-5.07
X8.5998Y-5.07
T3
X8.9664Y-2.3148
X9.0664Y-2.3148
X9.1664Y-2.3148
X9.2664Y-2.3148
X7.8421Y-2.08
X7.9421Y-2.08
X8.0421Y-2.08
X8.1421Y-2.08
T4
X8.2522Y-5.125
X8.3978Y-4.9281
X8.3978Y-5.3219
X8.35Y-4.275
X8.5421Y-4.275
T5
X8.325Y-3.15
X8.325Y-3.25
T6
X8.75Y-3.2
X8.75Y-3.3
X10.025Y-2.575
X10.025Y-3.575
X9.3Y-5.825
X9.3Y-5.925
X9.4Y-5.825
X9.4Y-5.925
X9.5Y-5.825
X9.5Y-5.925
X8.9Y-2.9
X8.9Y-3.
X8.9Y-3.1
X8.9Y-3.2
X8.9Y-3.3
X8.9Y-3.4
X9.25Y-2.575
X9.35Y-2.575
X9.45Y-2.575
X9.55Y-2.575
X9.65Y-2.575
X9.75Y-2.575
X7.85Y-5.95
X7.95Y-5.95
T0
M30
