%TF.GenerationSoftware,KiCad,Pcbnew,6.0.0-rc1-unknown-994a9c5~65~ubuntu18.04.1*%
%TF.CreationDate,2018-07-25T16:15:22+03:00*%
%TF.ProjectId,counter-pneumatic-v1-G368,636F756E7465722D706E65756D617469,rev?*%
%TF.SameCoordinates,Original*%
%TF.FileFunction,Other,Fab,Top*%
%FSLAX46Y46*%
G04 Gerber Fmt 4.6, Leading zero omitted, Abs format (unit mm)*
G04 Created by KiCad (PCBNEW 6.0.0-rc1-unknown-994a9c5~65~ubuntu18.04.1) date Wed Jul 25 16:15:22 2018*
%MOMM*%
%LPD*%
G01*
G04 APERTURE LIST*
%ADD10C,0.150000*%
%ADD11C,0.100000*%
%ADD12C,0.105000*%
%ADD13C,0.075000*%
%ADD14C,0.200000*%
%ADD15C,0.080000*%
G04 APERTURE END LIST*
D10*
X185420000Y-22860000D02*
X185420000Y-154940000D01*
X256540000Y-22860000D02*
X185420000Y-22860000D01*
X256540000Y-154940000D02*
X256540000Y-22860000D01*
X185420000Y-154940000D02*
X256540000Y-154940000D01*
D11*
X229615000Y-132225000D02*
X253915000Y-132225000D01*
X229615000Y-126665000D02*
X229615000Y-132225000D01*
X227315000Y-124365000D02*
X229615000Y-126665000D01*
X227315000Y-107225000D02*
X227315000Y-124365000D01*
X253915000Y-107225000D02*
X227315000Y-107225000D01*
X253915000Y-132225000D02*
X253915000Y-107225000D01*
X218435000Y-130028000D02*
X218435000Y-128778000D01*
X218030000Y-131278000D02*
X218435000Y-130028000D01*
X216535000Y-130028000D02*
X216535000Y-128778000D01*
X216940000Y-131278000D02*
X216535000Y-130028000D01*
X218985000Y-131278000D02*
X215985000Y-131278000D01*
X218985000Y-139278000D02*
X218985000Y-131278000D01*
X215985000Y-139278000D02*
X218985000Y-139278000D01*
X215985000Y-131278000D02*
X215985000Y-139278000D01*
X186520000Y-63070000D02*
X207180000Y-63070000D01*
X186520000Y-134967500D02*
X186520000Y-63070000D01*
X191682500Y-140130000D02*
X207180000Y-140130000D01*
X207180000Y-140130000D02*
X207180000Y-63070000D01*
X186520000Y-134967500D02*
X191682500Y-140130000D01*
X224790000Y-87630000D02*
X224790000Y-72390000D01*
X227330000Y-87630000D02*
X224790000Y-87630000D01*
X227330000Y-73025000D02*
X227330000Y-87630000D01*
X226695000Y-72390000D02*
X227330000Y-73025000D01*
X224790000Y-72390000D02*
X226695000Y-72390000D01*
X222290000Y-147860000D02*
X225390000Y-147860000D01*
X225390000Y-147860000D02*
X225390000Y-149660000D01*
X222940000Y-149660000D02*
X225390000Y-149660000D01*
X222290000Y-147860000D02*
X222290000Y-149010000D01*
X222940000Y-149660000D02*
X222290000Y-149010000D01*
X213889000Y-57351000D02*
X214889000Y-56351000D01*
X213889000Y-61251000D02*
X213889000Y-57351000D01*
X217789000Y-61251000D02*
X213889000Y-61251000D01*
X217789000Y-56351000D02*
X217789000Y-61251000D01*
X214889000Y-56351000D02*
X217789000Y-56351000D01*
D10*
X213670000Y-94655000D02*
X214670000Y-93655000D01*
X213670000Y-100655000D02*
X213670000Y-94655000D01*
X220670000Y-100655000D02*
X213670000Y-100655000D01*
X220670000Y-93655000D02*
X220670000Y-100655000D01*
X214670000Y-93655000D02*
X220670000Y-93655000D01*
D11*
X217530000Y-110585000D02*
G75*
G03X217530000Y-106585000I0J2000000D01*
G01*
X211530000Y-110585000D02*
G75*
G02X211530000Y-106585000I0J2000000D01*
G01*
X217655000Y-110910000D02*
G75*
G03X217655000Y-106260000I0J2325000D01*
G01*
X211405000Y-110910000D02*
G75*
G02X211405000Y-106260000I0J2325000D01*
G01*
X211530000Y-110585000D02*
X217530000Y-110585000D01*
X211530000Y-106585000D02*
X217530000Y-106585000D01*
X211405000Y-110910000D02*
X217655000Y-110910000D01*
X211405000Y-106260000D02*
X217655000Y-106260000D01*
X202565000Y-149860000D02*
X203200000Y-150495000D01*
X198120000Y-149860000D02*
X202565000Y-149860000D01*
X198120000Y-152400000D02*
X198120000Y-149860000D01*
X203200000Y-152400000D02*
X198120000Y-152400000D01*
X203200000Y-150495000D02*
X203200000Y-152400000D01*
X242570000Y-147955000D02*
X242570000Y-151765000D01*
X242570000Y-151765000D02*
X234950000Y-151765000D01*
X234950000Y-151765000D02*
X234950000Y-146685000D01*
X234950000Y-146685000D02*
X241300000Y-146685000D01*
X241300000Y-146685000D02*
X242570000Y-147955000D01*
X209985334Y-78779984D02*
G75*
G03X212924694Y-78780000I1469666J-2500016D01*
G01*
X213955000Y-81280000D02*
G75*
G03X213955000Y-81280000I-2500000J0D01*
G01*
X212924694Y-78780000D02*
X209985306Y-78780000D01*
X212180000Y-147320000D02*
G75*
G03X212180000Y-147320000I-1700000J0D01*
G01*
X207480000Y-150320000D02*
X207480000Y-144320000D01*
X213480000Y-150320000D02*
X207480000Y-150320000D01*
X213480000Y-144320000D02*
X213480000Y-150320000D01*
X207480000Y-144320000D02*
X213480000Y-144320000D01*
X215820000Y-70025000D02*
X215820000Y-76025000D01*
X215820000Y-76025000D02*
X209820000Y-76025000D01*
X209820000Y-76025000D02*
X209820000Y-70025000D01*
X209820000Y-70025000D02*
X215820000Y-70025000D01*
X214520000Y-73025000D02*
G75*
G03X214520000Y-73025000I-1700000J0D01*
G01*
X216498000Y-123759000D02*
X216498000Y-120859000D01*
X216498000Y-120859000D02*
X221398000Y-120859000D01*
X221398000Y-120859000D02*
X221398000Y-124759000D01*
X221398000Y-124759000D02*
X217498000Y-124759000D01*
X217498000Y-124759000D02*
X216498000Y-123759000D01*
X216570000Y-145145000D02*
X216570000Y-143145000D01*
X217770000Y-145145000D02*
X216570000Y-145145000D01*
X217770000Y-143145000D02*
X217770000Y-145145000D01*
X216570000Y-143145000D02*
X217770000Y-143145000D01*
X230540000Y-146017500D02*
X231740000Y-146017500D01*
X231740000Y-146017500D02*
X231740000Y-148017500D01*
X231740000Y-148017500D02*
X230540000Y-148017500D01*
X230540000Y-148017500D02*
X230540000Y-146017500D01*
X238160000Y-135914176D02*
X239360000Y-135914176D01*
X239360000Y-135914176D02*
X239360000Y-137914176D01*
X239360000Y-137914176D02*
X238160000Y-137914176D01*
X238160000Y-137914176D02*
X238160000Y-135914176D01*
X227060000Y-100295000D02*
X225060000Y-100295000D01*
X227060000Y-99095000D02*
X227060000Y-100295000D01*
X225060000Y-99095000D02*
X227060000Y-99095000D01*
X225060000Y-100295000D02*
X225060000Y-99095000D01*
X240831902Y-135914176D02*
X242031902Y-135914176D01*
X242031902Y-135914176D02*
X242031902Y-137914176D01*
X242031902Y-137914176D02*
X240831902Y-137914176D01*
X240831902Y-137914176D02*
X240831902Y-135914176D01*
X227060000Y-97755000D02*
X225060000Y-97755000D01*
X227060000Y-96555000D02*
X227060000Y-97755000D01*
X225060000Y-96555000D02*
X227060000Y-96555000D01*
X225060000Y-97755000D02*
X225060000Y-96555000D01*
X219040000Y-74810000D02*
X219040000Y-76810000D01*
X217840000Y-74810000D02*
X219040000Y-74810000D01*
X217840000Y-76810000D02*
X217840000Y-74810000D01*
X219040000Y-76810000D02*
X217840000Y-76810000D01*
X212690000Y-115300000D02*
X211490000Y-115300000D01*
X211490000Y-115300000D02*
X211490000Y-113300000D01*
X211490000Y-113300000D02*
X212690000Y-113300000D01*
X212690000Y-113300000D02*
X212690000Y-115300000D01*
X215230000Y-113300000D02*
X215230000Y-115300000D01*
X214030000Y-113300000D02*
X215230000Y-113300000D01*
X214030000Y-115300000D02*
X214030000Y-113300000D01*
X215230000Y-115300000D02*
X214030000Y-115300000D01*
X218560000Y-53756000D02*
X218560000Y-54956000D01*
X218560000Y-54956000D02*
X216560000Y-54956000D01*
X216560000Y-54956000D02*
X216560000Y-53756000D01*
X216560000Y-53756000D02*
X218560000Y-53756000D01*
X203200000Y-146180000D02*
X203200000Y-145680000D01*
X203600000Y-146180000D02*
X203200000Y-146780000D01*
X202800000Y-146180000D02*
X203600000Y-146180000D01*
X203200000Y-146780000D02*
X202800000Y-146180000D01*
X203200000Y-146780000D02*
X203750000Y-146780000D01*
X203200000Y-146780000D02*
X202650000Y-146780000D01*
X203200000Y-147180000D02*
X203200000Y-146780000D01*
X204100000Y-147830000D02*
X202300000Y-147830000D01*
X204100000Y-145030000D02*
X204100000Y-147830000D01*
X202300000Y-145030000D02*
X204100000Y-145030000D01*
X202300000Y-147830000D02*
X202300000Y-145030000D01*
X222885000Y-85090000D02*
X220980000Y-85090000D01*
X220980000Y-85090000D02*
X220980000Y-80010000D01*
X220980000Y-80010000D02*
X223520000Y-80010000D01*
X223520000Y-80010000D02*
X223520000Y-84455000D01*
X223520000Y-84455000D02*
X222885000Y-85090000D01*
X233680000Y-66675000D02*
X233680000Y-64770000D01*
X233680000Y-64770000D02*
X234315000Y-64135000D01*
X234315000Y-64135000D02*
X248920000Y-64135000D01*
X248920000Y-64135000D02*
X248920000Y-66675000D01*
X248920000Y-66675000D02*
X233680000Y-66675000D01*
X190820000Y-51500000D02*
X193270000Y-51500000D01*
X190250000Y-50950000D02*
X190250000Y-50100000D01*
X190820000Y-51500000D02*
X190250000Y-50950000D01*
X190250000Y-50100000D02*
X193290000Y-50100000D01*
X193290000Y-51500000D02*
X193290000Y-50100000D01*
X217770000Y-149162500D02*
X217770000Y-151162500D01*
X216570000Y-149162500D02*
X217770000Y-149162500D01*
X216570000Y-151162500D02*
X216570000Y-149162500D01*
X217770000Y-151162500D02*
X216570000Y-151162500D01*
X212605000Y-66640000D02*
X212605000Y-65440000D01*
X212605000Y-65440000D02*
X214605000Y-65440000D01*
X214605000Y-65440000D02*
X214605000Y-66640000D01*
X214605000Y-66640000D02*
X212605000Y-66640000D01*
X212605000Y-51470000D02*
X214605000Y-51470000D01*
X212605000Y-52670000D02*
X212605000Y-51470000D01*
X214605000Y-52670000D02*
X212605000Y-52670000D01*
X214605000Y-51470000D02*
X214605000Y-52670000D01*
X218560000Y-65440000D02*
X218560000Y-66640000D01*
X218560000Y-66640000D02*
X216560000Y-66640000D01*
X216560000Y-66640000D02*
X216560000Y-65440000D01*
X216560000Y-65440000D02*
X218560000Y-65440000D01*
X221015000Y-62350000D02*
X221015000Y-60350000D01*
X222215000Y-62350000D02*
X221015000Y-62350000D01*
X222215000Y-60350000D02*
X222215000Y-62350000D01*
X221015000Y-60350000D02*
X222215000Y-60350000D01*
X212605000Y-64100000D02*
X212605000Y-62900000D01*
X212605000Y-62900000D02*
X214605000Y-62900000D01*
X214605000Y-62900000D02*
X214605000Y-64100000D01*
X214605000Y-64100000D02*
X212605000Y-64100000D01*
X218560000Y-62900000D02*
X218560000Y-64100000D01*
X218560000Y-64100000D02*
X216560000Y-64100000D01*
X216560000Y-64100000D02*
X216560000Y-62900000D01*
X216560000Y-62900000D02*
X218560000Y-62900000D01*
X214605000Y-53765000D02*
X214605000Y-54965000D01*
X214605000Y-54965000D02*
X212605000Y-54965000D01*
X212605000Y-54965000D02*
X212605000Y-53765000D01*
X212605000Y-53765000D02*
X214605000Y-53765000D01*
X221015000Y-58540000D02*
X221015000Y-56540000D01*
X222215000Y-58540000D02*
X221015000Y-58540000D01*
X222215000Y-56540000D02*
X222215000Y-58540000D01*
X221015000Y-56540000D02*
X222215000Y-56540000D01*
X214665000Y-82280000D02*
X214665000Y-80280000D01*
X215865000Y-82280000D02*
X214665000Y-82280000D01*
X215865000Y-80280000D02*
X215865000Y-82280000D01*
X214665000Y-80280000D02*
X215865000Y-80280000D01*
X216189000Y-86519500D02*
X216189000Y-84519500D01*
X217389000Y-86519500D02*
X216189000Y-86519500D01*
X217389000Y-84519500D02*
X217389000Y-86519500D01*
X216189000Y-84519500D02*
X217389000Y-84519500D01*
X190856000Y-55972000D02*
X188856000Y-55972000D01*
X190856000Y-54772000D02*
X190856000Y-55972000D01*
X188856000Y-54772000D02*
X190856000Y-54772000D01*
X188856000Y-55972000D02*
X188856000Y-54772000D01*
X188560000Y-51283000D02*
X187360000Y-51283000D01*
X187360000Y-51283000D02*
X187360000Y-49283000D01*
X187360000Y-49283000D02*
X188560000Y-49283000D01*
X188560000Y-49283000D02*
X188560000Y-51283000D01*
X218729000Y-143154000D02*
X219929000Y-143154000D01*
X219929000Y-143154000D02*
X219929000Y-145154000D01*
X219929000Y-145154000D02*
X218729000Y-145154000D01*
X218729000Y-145154000D02*
X218729000Y-143154000D01*
X218729000Y-147082000D02*
X219929000Y-147082000D01*
X219929000Y-147082000D02*
X219929000Y-149082000D01*
X219929000Y-149082000D02*
X218729000Y-149082000D01*
X218729000Y-149082000D02*
X218729000Y-147082000D01*
X252835000Y-83055000D02*
X256435000Y-83055000D01*
X256435000Y-83055000D02*
X256435000Y-73155000D01*
X256435000Y-73155000D02*
X252835000Y-73155000D01*
X252835000Y-73155000D02*
X252835000Y-83055000D01*
X254635000Y-90805000D02*
X254635000Y-83055000D01*
X254635000Y-65405000D02*
X254635000Y-73155000D01*
D10*
X242974761Y-117180952D02*
X243022380Y-117038095D01*
X243022380Y-116800000D01*
X242974761Y-116704761D01*
X242927142Y-116657142D01*
X242831904Y-116609523D01*
X242736666Y-116609523D01*
X242641428Y-116657142D01*
X242593809Y-116704761D01*
X242546190Y-116800000D01*
X242498571Y-116990476D01*
X242450952Y-117085714D01*
X242403333Y-117133333D01*
X242308095Y-117180952D01*
X242212857Y-117180952D01*
X242117619Y-117133333D01*
X242070000Y-117085714D01*
X242022380Y-116990476D01*
X242022380Y-116752380D01*
X242070000Y-116609523D01*
X243022380Y-116180952D02*
X242022380Y-116180952D01*
X242022380Y-115942857D01*
X242070000Y-115800000D01*
X242165238Y-115704761D01*
X242260476Y-115657142D01*
X242450952Y-115609523D01*
X242593809Y-115609523D01*
X242784285Y-115657142D01*
X242879523Y-115704761D01*
X242974761Y-115800000D01*
X243022380Y-115942857D01*
X243022380Y-116180952D01*
X243117619Y-115419047D02*
X243117619Y-114657142D01*
X242927142Y-113847619D02*
X242974761Y-113895238D01*
X243022380Y-114038095D01*
X243022380Y-114133333D01*
X242974761Y-114276190D01*
X242879523Y-114371428D01*
X242784285Y-114419047D01*
X242593809Y-114466666D01*
X242450952Y-114466666D01*
X242260476Y-114419047D01*
X242165238Y-114371428D01*
X242070000Y-114276190D01*
X242022380Y-114133333D01*
X242022380Y-114038095D01*
X242070000Y-113895238D01*
X242117619Y-113847619D01*
X243022380Y-112990476D02*
X242498571Y-112990476D01*
X242403333Y-113038095D01*
X242355714Y-113133333D01*
X242355714Y-113323809D01*
X242403333Y-113419047D01*
X242974761Y-112990476D02*
X243022380Y-113085714D01*
X243022380Y-113323809D01*
X242974761Y-113419047D01*
X242879523Y-113466666D01*
X242784285Y-113466666D01*
X242689047Y-113419047D01*
X242641428Y-113323809D01*
X242641428Y-113085714D01*
X242593809Y-112990476D01*
X243022380Y-112514285D02*
X242355714Y-112514285D01*
X242546190Y-112514285D02*
X242450952Y-112466666D01*
X242403333Y-112419047D01*
X242355714Y-112323809D01*
X242355714Y-112228571D01*
X243022380Y-111466666D02*
X242022380Y-111466666D01*
X242974761Y-111466666D02*
X243022380Y-111561904D01*
X243022380Y-111752380D01*
X242974761Y-111847619D01*
X242927142Y-111895238D01*
X242831904Y-111942857D01*
X242546190Y-111942857D01*
X242450952Y-111895238D01*
X242403333Y-111847619D01*
X242355714Y-111752380D01*
X242355714Y-111561904D01*
X242403333Y-111466666D01*
X240117380Y-114633333D02*
X240831666Y-114633333D01*
X240974523Y-114680952D01*
X241069761Y-114776190D01*
X241117380Y-114919047D01*
X241117380Y-115014285D01*
X240117380Y-114252380D02*
X240117380Y-113633333D01*
X240498333Y-113966666D01*
X240498333Y-113823809D01*
X240545952Y-113728571D01*
X240593571Y-113680952D01*
X240688809Y-113633333D01*
X240926904Y-113633333D01*
X241022142Y-113680952D01*
X241069761Y-113728571D01*
X241117380Y-113823809D01*
X241117380Y-114109523D01*
X241069761Y-114204761D01*
X241022142Y-114252380D01*
X212193142Y-132270238D02*
X212240761Y-132317857D01*
X212288380Y-132460714D01*
X212288380Y-132555952D01*
X212240761Y-132698809D01*
X212145523Y-132794047D01*
X212050285Y-132841666D01*
X211859809Y-132889285D01*
X211716952Y-132889285D01*
X211526476Y-132841666D01*
X211431238Y-132794047D01*
X211336000Y-132698809D01*
X211288380Y-132555952D01*
X211288380Y-132460714D01*
X211336000Y-132317857D01*
X211383619Y-132270238D01*
X212288380Y-131270238D02*
X211812190Y-131603571D01*
X212288380Y-131841666D02*
X211288380Y-131841666D01*
X211288380Y-131460714D01*
X211336000Y-131365476D01*
X211383619Y-131317857D01*
X211478857Y-131270238D01*
X211621714Y-131270238D01*
X211716952Y-131317857D01*
X211764571Y-131365476D01*
X211812190Y-131460714D01*
X211812190Y-131841666D01*
X211383619Y-130889285D02*
X211336000Y-130841666D01*
X211288380Y-130746428D01*
X211288380Y-130508333D01*
X211336000Y-130413095D01*
X211383619Y-130365476D01*
X211478857Y-130317857D01*
X211574095Y-130317857D01*
X211716952Y-130365476D01*
X212288380Y-130936904D01*
X212288380Y-130317857D01*
X211288380Y-129698809D02*
X211288380Y-129603571D01*
X211336000Y-129508333D01*
X211383619Y-129460714D01*
X211478857Y-129413095D01*
X211669333Y-129365476D01*
X211907428Y-129365476D01*
X212097904Y-129413095D01*
X212193142Y-129460714D01*
X212240761Y-129508333D01*
X212288380Y-129603571D01*
X212288380Y-129698809D01*
X212240761Y-129794047D01*
X212193142Y-129841666D01*
X212097904Y-129889285D01*
X211907428Y-129936904D01*
X211669333Y-129936904D01*
X211478857Y-129889285D01*
X211383619Y-129841666D01*
X211336000Y-129794047D01*
X211288380Y-129698809D01*
X211288380Y-129032142D02*
X211288380Y-128413095D01*
X211669333Y-128746428D01*
X211669333Y-128603571D01*
X211716952Y-128508333D01*
X211764571Y-128460714D01*
X211859809Y-128413095D01*
X212097904Y-128413095D01*
X212193142Y-128460714D01*
X212240761Y-128508333D01*
X212288380Y-128603571D01*
X212288380Y-128889285D01*
X212240761Y-128984523D01*
X212193142Y-129032142D01*
X211383619Y-128032142D02*
X211336000Y-127984523D01*
X211288380Y-127889285D01*
X211288380Y-127651190D01*
X211336000Y-127555952D01*
X211383619Y-127508333D01*
X211478857Y-127460714D01*
X211574095Y-127460714D01*
X211716952Y-127508333D01*
X212288380Y-128079761D01*
X212288380Y-127460714D01*
X220432380Y-141477142D02*
X220432380Y-140858095D01*
X220813333Y-141191428D01*
X220813333Y-141048571D01*
X220860952Y-140953333D01*
X220908571Y-140905714D01*
X221003809Y-140858095D01*
X221241904Y-140858095D01*
X221337142Y-140905714D01*
X221384761Y-140953333D01*
X221432380Y-141048571D01*
X221432380Y-141334285D01*
X221384761Y-141429523D01*
X221337142Y-141477142D01*
X220527619Y-140477142D02*
X220480000Y-140429523D01*
X220432380Y-140334285D01*
X220432380Y-140096190D01*
X220480000Y-140000952D01*
X220527619Y-139953333D01*
X220622857Y-139905714D01*
X220718095Y-139905714D01*
X220860952Y-139953333D01*
X221432380Y-140524761D01*
X221432380Y-139905714D01*
X220432380Y-139572380D02*
X220432380Y-138905714D01*
X221432380Y-139334285D01*
X220432380Y-138096190D02*
X220432380Y-138286666D01*
X220480000Y-138381904D01*
X220527619Y-138429523D01*
X220670476Y-138524761D01*
X220860952Y-138572380D01*
X221241904Y-138572380D01*
X221337142Y-138524761D01*
X221384761Y-138477142D01*
X221432380Y-138381904D01*
X221432380Y-138191428D01*
X221384761Y-138096190D01*
X221337142Y-138048571D01*
X221241904Y-138000952D01*
X221003809Y-138000952D01*
X220908571Y-138048571D01*
X220860952Y-138096190D01*
X220813333Y-138191428D01*
X220813333Y-138381904D01*
X220860952Y-138477142D01*
X220908571Y-138524761D01*
X221003809Y-138572380D01*
X220860952Y-137429523D02*
X220813333Y-137524761D01*
X220765714Y-137572380D01*
X220670476Y-137620000D01*
X220622857Y-137620000D01*
X220527619Y-137572380D01*
X220480000Y-137524761D01*
X220432380Y-137429523D01*
X220432380Y-137239047D01*
X220480000Y-137143809D01*
X220527619Y-137096190D01*
X220622857Y-137048571D01*
X220670476Y-137048571D01*
X220765714Y-137096190D01*
X220813333Y-137143809D01*
X220860952Y-137239047D01*
X220860952Y-137429523D01*
X220908571Y-137524761D01*
X220956190Y-137572380D01*
X221051428Y-137620000D01*
X221241904Y-137620000D01*
X221337142Y-137572380D01*
X221384761Y-137524761D01*
X221432380Y-137429523D01*
X221432380Y-137239047D01*
X221384761Y-137143809D01*
X221337142Y-137096190D01*
X221241904Y-137048571D01*
X221051428Y-137048571D01*
X220956190Y-137096190D01*
X220908571Y-137143809D01*
X220860952Y-137239047D01*
X221432380Y-135858095D02*
X220432380Y-135858095D01*
X220908571Y-135858095D02*
X220908571Y-135286666D01*
X221432380Y-135286666D02*
X220432380Y-135286666D01*
X220765714Y-134905714D02*
X220765714Y-134381904D01*
X221432380Y-134905714D01*
X221432380Y-134381904D01*
X221432380Y-132715238D02*
X221432380Y-133286666D01*
X221432380Y-133000952D02*
X220432380Y-133000952D01*
X220575238Y-133096190D01*
X220670476Y-133191428D01*
X220718095Y-133286666D01*
X220527619Y-132334285D02*
X220480000Y-132286666D01*
X220432380Y-132191428D01*
X220432380Y-131953333D01*
X220480000Y-131858095D01*
X220527619Y-131810476D01*
X220622857Y-131762857D01*
X220718095Y-131762857D01*
X220860952Y-131810476D01*
X221432380Y-132381904D01*
X221432380Y-131762857D01*
X221384761Y-131286666D02*
X221432380Y-131286666D01*
X221527619Y-131334285D01*
X221575238Y-131381904D01*
X220432380Y-130381904D02*
X220432380Y-130858095D01*
X220908571Y-130905714D01*
X220860952Y-130858095D01*
X220813333Y-130762857D01*
X220813333Y-130524761D01*
X220860952Y-130429523D01*
X220908571Y-130381904D01*
X221003809Y-130334285D01*
X221241904Y-130334285D01*
X221337142Y-130381904D01*
X221384761Y-130429523D01*
X221432380Y-130524761D01*
X221432380Y-130762857D01*
X221384761Y-130858095D01*
X221337142Y-130905714D01*
X220765714Y-129143809D02*
X221765714Y-129143809D01*
X220813333Y-129143809D02*
X220765714Y-129048571D01*
X220765714Y-128858095D01*
X220813333Y-128762857D01*
X220860952Y-128715238D01*
X220956190Y-128667619D01*
X221241904Y-128667619D01*
X221337142Y-128715238D01*
X221384761Y-128762857D01*
X221432380Y-128858095D01*
X221432380Y-129048571D01*
X221384761Y-129143809D01*
X220908571Y-127905714D02*
X220908571Y-128239047D01*
X221432380Y-128239047D02*
X220432380Y-128239047D01*
X220432380Y-127762857D01*
D12*
X217768333Y-135611333D02*
X218101666Y-135611333D01*
X217401666Y-135844666D02*
X217768333Y-135611333D01*
X217401666Y-135378000D01*
X217468333Y-135178000D02*
X217435000Y-135144666D01*
X217401666Y-135078000D01*
X217401666Y-134911333D01*
X217435000Y-134844666D01*
X217468333Y-134811333D01*
X217535000Y-134778000D01*
X217601666Y-134778000D01*
X217701666Y-134811333D01*
X218101666Y-135211333D01*
X218101666Y-134778000D01*
D10*
X200477380Y-103219047D02*
X200477380Y-103790476D01*
X200477380Y-103504761D02*
X199477380Y-103504761D01*
X199620238Y-103600000D01*
X199715476Y-103695238D01*
X199763095Y-103790476D01*
X199905952Y-102647619D02*
X199858333Y-102742857D01*
X199810714Y-102790476D01*
X199715476Y-102838095D01*
X199667857Y-102838095D01*
X199572619Y-102790476D01*
X199525000Y-102742857D01*
X199477380Y-102647619D01*
X199477380Y-102457142D01*
X199525000Y-102361904D01*
X199572619Y-102314285D01*
X199667857Y-102266666D01*
X199715476Y-102266666D01*
X199810714Y-102314285D01*
X199858333Y-102361904D01*
X199905952Y-102457142D01*
X199905952Y-102647619D01*
X199953571Y-102742857D01*
X200001190Y-102790476D01*
X200096428Y-102838095D01*
X200286904Y-102838095D01*
X200382142Y-102790476D01*
X200429761Y-102742857D01*
X200477380Y-102647619D01*
X200477380Y-102457142D01*
X200429761Y-102361904D01*
X200382142Y-102314285D01*
X200286904Y-102266666D01*
X200096428Y-102266666D01*
X200001190Y-102314285D01*
X199953571Y-102361904D01*
X199905952Y-102457142D01*
X199477380Y-101409523D02*
X199477380Y-101600000D01*
X199525000Y-101695238D01*
X199572619Y-101742857D01*
X199715476Y-101838095D01*
X199905952Y-101885714D01*
X200286904Y-101885714D01*
X200382142Y-101838095D01*
X200429761Y-101790476D01*
X200477380Y-101695238D01*
X200477380Y-101504761D01*
X200429761Y-101409523D01*
X200382142Y-101361904D01*
X200286904Y-101314285D01*
X200048809Y-101314285D01*
X199953571Y-101361904D01*
X199905952Y-101409523D01*
X199858333Y-101504761D01*
X199858333Y-101695238D01*
X199905952Y-101790476D01*
X199953571Y-101838095D01*
X200048809Y-101885714D01*
X199477380Y-100409523D02*
X199477380Y-100885714D01*
X199953571Y-100933333D01*
X199905952Y-100885714D01*
X199858333Y-100790476D01*
X199858333Y-100552380D01*
X199905952Y-100457142D01*
X199953571Y-100409523D01*
X200048809Y-100361904D01*
X200286904Y-100361904D01*
X200382142Y-100409523D01*
X200429761Y-100457142D01*
X200477380Y-100552380D01*
X200477380Y-100790476D01*
X200429761Y-100885714D01*
X200382142Y-100933333D01*
X199477380Y-99742857D02*
X199477380Y-99647619D01*
X199525000Y-99552380D01*
X199572619Y-99504761D01*
X199667857Y-99457142D01*
X199858333Y-99409523D01*
X200096428Y-99409523D01*
X200286904Y-99457142D01*
X200382142Y-99504761D01*
X200429761Y-99552380D01*
X200477380Y-99647619D01*
X200477380Y-99742857D01*
X200429761Y-99838095D01*
X200382142Y-99885714D01*
X200286904Y-99933333D01*
X200096428Y-99980952D01*
X199858333Y-99980952D01*
X199667857Y-99933333D01*
X199572619Y-99885714D01*
X199525000Y-99838095D01*
X199477380Y-99742857D01*
X196778571Y-102385714D02*
X196826190Y-102242857D01*
X196873809Y-102195238D01*
X196969047Y-102147619D01*
X197111904Y-102147619D01*
X197207142Y-102195238D01*
X197254761Y-102242857D01*
X197302380Y-102338095D01*
X197302380Y-102719047D01*
X196302380Y-102719047D01*
X196302380Y-102385714D01*
X196350000Y-102290476D01*
X196397619Y-102242857D01*
X196492857Y-102195238D01*
X196588095Y-102195238D01*
X196683333Y-102242857D01*
X196730952Y-102290476D01*
X196778571Y-102385714D01*
X196778571Y-102719047D01*
X196302380Y-101861904D02*
X196302380Y-101290476D01*
X197302380Y-101576190D02*
X196302380Y-101576190D01*
X197302380Y-100433333D02*
X197302380Y-101004761D01*
X197302380Y-100719047D02*
X196302380Y-100719047D01*
X196445238Y-100814285D01*
X196540476Y-100909523D01*
X196588095Y-101004761D01*
X229592142Y-86160714D02*
X229639761Y-86208333D01*
X229687380Y-86351190D01*
X229687380Y-86446428D01*
X229639761Y-86589285D01*
X229544523Y-86684523D01*
X229449285Y-86732142D01*
X229258809Y-86779761D01*
X229115952Y-86779761D01*
X228925476Y-86732142D01*
X228830238Y-86684523D01*
X228735000Y-86589285D01*
X228687380Y-86446428D01*
X228687380Y-86351190D01*
X228735000Y-86208333D01*
X228782619Y-86160714D01*
X229687380Y-85589285D02*
X229639761Y-85684523D01*
X229592142Y-85732142D01*
X229496904Y-85779761D01*
X229211190Y-85779761D01*
X229115952Y-85732142D01*
X229068333Y-85684523D01*
X229020714Y-85589285D01*
X229020714Y-85446428D01*
X229068333Y-85351190D01*
X229115952Y-85303571D01*
X229211190Y-85255952D01*
X229496904Y-85255952D01*
X229592142Y-85303571D01*
X229639761Y-85351190D01*
X229687380Y-85446428D01*
X229687380Y-85589285D01*
X229020714Y-84827380D02*
X229687380Y-84827380D01*
X229115952Y-84827380D02*
X229068333Y-84779761D01*
X229020714Y-84684523D01*
X229020714Y-84541666D01*
X229068333Y-84446428D01*
X229163571Y-84398809D01*
X229687380Y-84398809D01*
X229020714Y-83922619D02*
X229687380Y-83922619D01*
X229115952Y-83922619D02*
X229068333Y-83875000D01*
X229020714Y-83779761D01*
X229020714Y-83636904D01*
X229068333Y-83541666D01*
X229163571Y-83494047D01*
X229687380Y-83494047D01*
X229782619Y-83255952D02*
X229782619Y-82494047D01*
X228687380Y-82065476D02*
X228687380Y-81970238D01*
X228735000Y-81875000D01*
X228782619Y-81827380D01*
X228877857Y-81779761D01*
X229068333Y-81732142D01*
X229306428Y-81732142D01*
X229496904Y-81779761D01*
X229592142Y-81827380D01*
X229639761Y-81875000D01*
X229687380Y-81970238D01*
X229687380Y-82065476D01*
X229639761Y-82160714D01*
X229592142Y-82208333D01*
X229496904Y-82255952D01*
X229306428Y-82303571D01*
X229068333Y-82303571D01*
X228877857Y-82255952D01*
X228782619Y-82208333D01*
X228735000Y-82160714D01*
X228687380Y-82065476D01*
X229687380Y-80779761D02*
X229687380Y-81351190D01*
X229687380Y-81065476D02*
X228687380Y-81065476D01*
X228830238Y-81160714D01*
X228925476Y-81255952D01*
X228973095Y-81351190D01*
X229687380Y-80446428D02*
X229020714Y-79922619D01*
X229020714Y-80446428D02*
X229687380Y-79922619D01*
X228687380Y-79351190D02*
X228687380Y-79255952D01*
X228735000Y-79160714D01*
X228782619Y-79113095D01*
X228877857Y-79065476D01*
X229068333Y-79017857D01*
X229306428Y-79017857D01*
X229496904Y-79065476D01*
X229592142Y-79113095D01*
X229639761Y-79160714D01*
X229687380Y-79255952D01*
X229687380Y-79351190D01*
X229639761Y-79446428D01*
X229592142Y-79494047D01*
X229496904Y-79541666D01*
X229306428Y-79589285D01*
X229068333Y-79589285D01*
X228877857Y-79541666D01*
X228782619Y-79494047D01*
X228735000Y-79446428D01*
X228687380Y-79351190D01*
X228687380Y-78160714D02*
X228687380Y-78351190D01*
X228735000Y-78446428D01*
X228782619Y-78494047D01*
X228925476Y-78589285D01*
X229115952Y-78636904D01*
X229496904Y-78636904D01*
X229592142Y-78589285D01*
X229639761Y-78541666D01*
X229687380Y-78446428D01*
X229687380Y-78255952D01*
X229639761Y-78160714D01*
X229592142Y-78113095D01*
X229496904Y-78065476D01*
X229258809Y-78065476D01*
X229163571Y-78113095D01*
X229115952Y-78160714D01*
X229068333Y-78255952D01*
X229068333Y-78446428D01*
X229115952Y-78541666D01*
X229163571Y-78589285D01*
X229258809Y-78636904D01*
X229782619Y-77875000D02*
X229782619Y-77113095D01*
X229163571Y-76541666D02*
X229163571Y-76875000D01*
X229687380Y-76875000D02*
X228687380Y-76875000D01*
X228687380Y-76398809D01*
X229639761Y-75636904D02*
X229687380Y-75732142D01*
X229687380Y-75922619D01*
X229639761Y-76017857D01*
X229544523Y-76065476D01*
X229163571Y-76065476D01*
X229068333Y-76017857D01*
X229020714Y-75922619D01*
X229020714Y-75732142D01*
X229068333Y-75636904D01*
X229163571Y-75589285D01*
X229258809Y-75589285D01*
X229354047Y-76065476D01*
X229687380Y-75160714D02*
X229020714Y-75160714D01*
X229115952Y-75160714D02*
X229068333Y-75113095D01*
X229020714Y-75017857D01*
X229020714Y-74875000D01*
X229068333Y-74779761D01*
X229163571Y-74732142D01*
X229687380Y-74732142D01*
X229163571Y-74732142D02*
X229068333Y-74684523D01*
X229020714Y-74589285D01*
X229020714Y-74446428D01*
X229068333Y-74351190D01*
X229163571Y-74303571D01*
X229687380Y-74303571D01*
X229687380Y-73398809D02*
X229163571Y-73398809D01*
X229068333Y-73446428D01*
X229020714Y-73541666D01*
X229020714Y-73732142D01*
X229068333Y-73827380D01*
X229639761Y-73398809D02*
X229687380Y-73494047D01*
X229687380Y-73732142D01*
X229639761Y-73827380D01*
X229544523Y-73875000D01*
X229449285Y-73875000D01*
X229354047Y-73827380D01*
X229306428Y-73732142D01*
X229306428Y-73494047D01*
X229258809Y-73398809D01*
X229687380Y-72779761D02*
X229639761Y-72875000D01*
X229544523Y-72922619D01*
X228687380Y-72922619D01*
X229639761Y-72017857D02*
X229687380Y-72113095D01*
X229687380Y-72303571D01*
X229639761Y-72398809D01*
X229544523Y-72446428D01*
X229163571Y-72446428D01*
X229068333Y-72398809D01*
X229020714Y-72303571D01*
X229020714Y-72113095D01*
X229068333Y-72017857D01*
X229163571Y-71970238D01*
X229258809Y-71970238D01*
X229354047Y-72446428D01*
X225512380Y-80343333D02*
X226226666Y-80343333D01*
X226369523Y-80390952D01*
X226464761Y-80486190D01*
X226512380Y-80629047D01*
X226512380Y-80724285D01*
X226512380Y-79343333D02*
X226512380Y-79914761D01*
X226512380Y-79629047D02*
X225512380Y-79629047D01*
X225655238Y-79724285D01*
X225750476Y-79819523D01*
X225798095Y-79914761D01*
X224353380Y-146231809D02*
X223353380Y-146231809D01*
X224353380Y-145660380D01*
X223353380Y-145660380D01*
X224258142Y-144612761D02*
X224305761Y-144660380D01*
X224353380Y-144803238D01*
X224353380Y-144898476D01*
X224305761Y-145041333D01*
X224210523Y-145136571D01*
X224115285Y-145184190D01*
X223924809Y-145231809D01*
X223781952Y-145231809D01*
X223591476Y-145184190D01*
X223496238Y-145136571D01*
X223401000Y-145041333D01*
X223353380Y-144898476D01*
X223353380Y-144803238D01*
X223401000Y-144660380D01*
X223448619Y-144612761D01*
X224353380Y-144184190D02*
X223353380Y-144184190D01*
X223353380Y-143803238D01*
X223401000Y-143708000D01*
X223448619Y-143660380D01*
X223543857Y-143612761D01*
X223686714Y-143612761D01*
X223781952Y-143660380D01*
X223829571Y-143708000D01*
X223877190Y-143803238D01*
X223877190Y-144184190D01*
X223353380Y-142708000D02*
X223353380Y-143184190D01*
X223829571Y-143231809D01*
X223781952Y-143184190D01*
X223734333Y-143088952D01*
X223734333Y-142850857D01*
X223781952Y-142755619D01*
X223829571Y-142708000D01*
X223924809Y-142660380D01*
X224162904Y-142660380D01*
X224258142Y-142708000D01*
X224305761Y-142755619D01*
X224353380Y-142850857D01*
X224353380Y-143088952D01*
X224305761Y-143184190D01*
X224258142Y-143231809D01*
X223353380Y-141755619D02*
X223353380Y-142231809D01*
X223829571Y-142279428D01*
X223781952Y-142231809D01*
X223734333Y-142136571D01*
X223734333Y-141898476D01*
X223781952Y-141803238D01*
X223829571Y-141755619D01*
X223924809Y-141708000D01*
X224162904Y-141708000D01*
X224258142Y-141755619D01*
X224305761Y-141803238D01*
X224353380Y-141898476D01*
X224353380Y-142136571D01*
X224305761Y-142231809D01*
X224258142Y-142279428D01*
X224353380Y-140755619D02*
X224353380Y-141327047D01*
X224353380Y-141041333D02*
X223353380Y-141041333D01*
X223496238Y-141136571D01*
X223591476Y-141231809D01*
X223639095Y-141327047D01*
X224305761Y-140374666D02*
X224353380Y-140231809D01*
X224353380Y-139993714D01*
X224305761Y-139898476D01*
X224258142Y-139850857D01*
X224162904Y-139803238D01*
X224067666Y-139803238D01*
X223972428Y-139850857D01*
X223924809Y-139898476D01*
X223877190Y-139993714D01*
X223829571Y-140184190D01*
X223781952Y-140279428D01*
X223734333Y-140327047D01*
X223639095Y-140374666D01*
X223543857Y-140374666D01*
X223448619Y-140327047D01*
X223401000Y-140279428D01*
X223353380Y-140184190D01*
X223353380Y-139946095D01*
X223401000Y-139803238D01*
X224353380Y-139374666D02*
X223353380Y-139374666D01*
X224353380Y-138803238D01*
X223353380Y-138803238D01*
X223353380Y-138422285D02*
X223353380Y-137803238D01*
X223734333Y-138136571D01*
X223734333Y-137993714D01*
X223781952Y-137898476D01*
X223829571Y-137850857D01*
X223924809Y-137803238D01*
X224162904Y-137803238D01*
X224258142Y-137850857D01*
X224305761Y-137898476D01*
X224353380Y-137993714D01*
X224353380Y-138279428D01*
X224305761Y-138374666D01*
X224258142Y-138422285D01*
X223353380Y-137469904D02*
X223353380Y-136850857D01*
X223734333Y-137184190D01*
X223734333Y-137041333D01*
X223781952Y-136946095D01*
X223829571Y-136898476D01*
X223924809Y-136850857D01*
X224162904Y-136850857D01*
X224258142Y-136898476D01*
X224305761Y-136946095D01*
X224353380Y-137041333D01*
X224353380Y-137327047D01*
X224305761Y-137422285D01*
X224258142Y-137469904D01*
X223353380Y-136565142D02*
X223353380Y-135993714D01*
X224353380Y-136279428D02*
X223353380Y-136279428D01*
X224353380Y-135136571D02*
X224353380Y-135708000D01*
X224353380Y-135422285D02*
X223353380Y-135422285D01*
X223496238Y-135517523D01*
X223591476Y-135612761D01*
X223639095Y-135708000D01*
X223401000Y-134184190D02*
X223353380Y-134279428D01*
X223353380Y-134422285D01*
X223401000Y-134565142D01*
X223496238Y-134660380D01*
X223591476Y-134708000D01*
X223781952Y-134755619D01*
X223924809Y-134755619D01*
X224115285Y-134708000D01*
X224210523Y-134660380D01*
X224305761Y-134565142D01*
X224353380Y-134422285D01*
X224353380Y-134327047D01*
X224305761Y-134184190D01*
X224258142Y-134136571D01*
X223924809Y-134136571D01*
X223924809Y-134327047D01*
D13*
X223566190Y-149140952D02*
X223970952Y-149140952D01*
X224018571Y-149117142D01*
X224042380Y-149093333D01*
X224066190Y-149045714D01*
X224066190Y-148950476D01*
X224042380Y-148902857D01*
X224018571Y-148879047D01*
X223970952Y-148855238D01*
X223566190Y-148855238D01*
X223732857Y-148402857D02*
X224066190Y-148402857D01*
X223542380Y-148521904D02*
X223899523Y-148640952D01*
X223899523Y-148331428D01*
D10*
X214148523Y-62753380D02*
X213672333Y-62753380D01*
X213672333Y-61753380D01*
X214481857Y-62753380D02*
X214481857Y-61753380D01*
X214815190Y-62467666D01*
X215148523Y-61753380D01*
X215148523Y-62753380D01*
X215529476Y-61753380D02*
X216148523Y-61753380D01*
X215815190Y-62134333D01*
X215958047Y-62134333D01*
X216053285Y-62181952D01*
X216100904Y-62229571D01*
X216148523Y-62324809D01*
X216148523Y-62562904D01*
X216100904Y-62658142D01*
X216053285Y-62705761D01*
X215958047Y-62753380D01*
X215672333Y-62753380D01*
X215577095Y-62705761D01*
X215529476Y-62658142D01*
X217053285Y-61753380D02*
X216577095Y-61753380D01*
X216529476Y-62229571D01*
X216577095Y-62181952D01*
X216672333Y-62134333D01*
X216910428Y-62134333D01*
X217005666Y-62181952D01*
X217053285Y-62229571D01*
X217100904Y-62324809D01*
X217100904Y-62562904D01*
X217053285Y-62658142D01*
X217005666Y-62705761D01*
X216910428Y-62753380D01*
X216672333Y-62753380D01*
X216577095Y-62705761D01*
X216529476Y-62658142D01*
X217672333Y-62181952D02*
X217577095Y-62134333D01*
X217529476Y-62086714D01*
X217481857Y-61991476D01*
X217481857Y-61943857D01*
X217529476Y-61848619D01*
X217577095Y-61801000D01*
X217672333Y-61753380D01*
X217862809Y-61753380D01*
X217958047Y-61801000D01*
X218005666Y-61848619D01*
X218053285Y-61943857D01*
X218053285Y-61991476D01*
X218005666Y-62086714D01*
X217958047Y-62134333D01*
X217862809Y-62181952D01*
X217672333Y-62181952D01*
X217577095Y-62229571D01*
X217529476Y-62277190D01*
X217481857Y-62372428D01*
X217481857Y-62562904D01*
X217529476Y-62658142D01*
X217577095Y-62705761D01*
X217672333Y-62753380D01*
X217862809Y-62753380D01*
X217958047Y-62705761D01*
X218005666Y-62658142D01*
X218053285Y-62562904D01*
X218053285Y-62372428D01*
X218005666Y-62277190D01*
X217958047Y-62229571D01*
X217862809Y-62181952D01*
X215291380Y-59562904D02*
X216100904Y-59562904D01*
X216196142Y-59515285D01*
X216243761Y-59467666D01*
X216291380Y-59372428D01*
X216291380Y-59181952D01*
X216243761Y-59086714D01*
X216196142Y-59039095D01*
X216100904Y-58991476D01*
X215291380Y-58991476D01*
X215291380Y-58039095D02*
X215291380Y-58515285D01*
X215767571Y-58562904D01*
X215719952Y-58515285D01*
X215672333Y-58420047D01*
X215672333Y-58181952D01*
X215719952Y-58086714D01*
X215767571Y-58039095D01*
X215862809Y-57991476D01*
X216100904Y-57991476D01*
X216196142Y-58039095D01*
X216243761Y-58086714D01*
X216291380Y-58181952D01*
X216291380Y-58420047D01*
X216243761Y-58515285D01*
X216196142Y-58562904D01*
X210351666Y-102091428D02*
X210351666Y-101615238D01*
X210637380Y-102186666D02*
X209637380Y-101853333D01*
X210637380Y-101520000D01*
X209637380Y-101329523D02*
X209637380Y-100758095D01*
X210637380Y-101043809D02*
X209637380Y-101043809D01*
X210637380Y-100424761D02*
X209637380Y-100424761D01*
X210351666Y-100091428D01*
X209637380Y-99758095D01*
X210637380Y-99758095D01*
X210113571Y-99281904D02*
X210113571Y-98948571D01*
X210637380Y-98805714D02*
X210637380Y-99281904D01*
X209637380Y-99281904D01*
X209637380Y-98805714D01*
X209685000Y-97853333D02*
X209637380Y-97948571D01*
X209637380Y-98091428D01*
X209685000Y-98234285D01*
X209780238Y-98329523D01*
X209875476Y-98377142D01*
X210065952Y-98424761D01*
X210208809Y-98424761D01*
X210399285Y-98377142D01*
X210494523Y-98329523D01*
X210589761Y-98234285D01*
X210637380Y-98091428D01*
X210637380Y-97996190D01*
X210589761Y-97853333D01*
X210542142Y-97805714D01*
X210208809Y-97805714D01*
X210208809Y-97996190D01*
X210351666Y-97424761D02*
X210351666Y-96948571D01*
X210637380Y-97520000D02*
X209637380Y-97186666D01*
X210637380Y-96853333D01*
X209637380Y-96615238D02*
X209637380Y-95996190D01*
X210018333Y-96329523D01*
X210018333Y-96186666D01*
X210065952Y-96091428D01*
X210113571Y-96043809D01*
X210208809Y-95996190D01*
X210446904Y-95996190D01*
X210542142Y-96043809D01*
X210589761Y-96091428D01*
X210637380Y-96186666D01*
X210637380Y-96472380D01*
X210589761Y-96567619D01*
X210542142Y-96615238D01*
X209732619Y-95615238D02*
X209685000Y-95567619D01*
X209637380Y-95472380D01*
X209637380Y-95234285D01*
X209685000Y-95139047D01*
X209732619Y-95091428D01*
X209827857Y-95043809D01*
X209923095Y-95043809D01*
X210065952Y-95091428D01*
X210637380Y-95662857D01*
X210637380Y-95043809D01*
X210065952Y-94472380D02*
X210018333Y-94567619D01*
X209970714Y-94615238D01*
X209875476Y-94662857D01*
X209827857Y-94662857D01*
X209732619Y-94615238D01*
X209685000Y-94567619D01*
X209637380Y-94472380D01*
X209637380Y-94281904D01*
X209685000Y-94186666D01*
X209732619Y-94139047D01*
X209827857Y-94091428D01*
X209875476Y-94091428D01*
X209970714Y-94139047D01*
X210018333Y-94186666D01*
X210065952Y-94281904D01*
X210065952Y-94472380D01*
X210113571Y-94567619D01*
X210161190Y-94615238D01*
X210256428Y-94662857D01*
X210446904Y-94662857D01*
X210542142Y-94615238D01*
X210589761Y-94567619D01*
X210637380Y-94472380D01*
X210637380Y-94281904D01*
X210589761Y-94186666D01*
X210542142Y-94139047D01*
X210446904Y-94091428D01*
X210256428Y-94091428D01*
X210161190Y-94139047D01*
X210113571Y-94186666D01*
X210065952Y-94281904D01*
X210256428Y-93662857D02*
X210256428Y-92900952D01*
X210351666Y-92472380D02*
X210351666Y-91996190D01*
X210637380Y-92567619D02*
X209637380Y-92234285D01*
X210637380Y-91900952D01*
X209637380Y-91567619D02*
X210446904Y-91567619D01*
X210542142Y-91520000D01*
X210589761Y-91472380D01*
X210637380Y-91377142D01*
X210637380Y-91186666D01*
X210589761Y-91091428D01*
X210542142Y-91043809D01*
X210446904Y-90996190D01*
X209637380Y-90996190D01*
X216408095Y-96607380D02*
X216408095Y-97416904D01*
X216455714Y-97512142D01*
X216503333Y-97559761D01*
X216598571Y-97607380D01*
X216789047Y-97607380D01*
X216884285Y-97559761D01*
X216931904Y-97512142D01*
X216979523Y-97416904D01*
X216979523Y-96607380D01*
X217360476Y-96607380D02*
X218027142Y-96607380D01*
X217598571Y-97607380D01*
X222067380Y-110656428D02*
X222067380Y-111227857D01*
X222067380Y-110942142D02*
X221067380Y-110942142D01*
X221210238Y-111037380D01*
X221305476Y-111132619D01*
X221353095Y-111227857D01*
X221162619Y-110275476D02*
X221115000Y-110227857D01*
X221067380Y-110132619D01*
X221067380Y-109894523D01*
X221115000Y-109799285D01*
X221162619Y-109751666D01*
X221257857Y-109704047D01*
X221353095Y-109704047D01*
X221495952Y-109751666D01*
X222067380Y-110323095D01*
X222067380Y-109704047D01*
X222067380Y-108513571D02*
X221067380Y-108513571D01*
X221781666Y-108180238D01*
X221067380Y-107846904D01*
X222067380Y-107846904D01*
X222067380Y-107370714D02*
X221067380Y-107370714D01*
X221543571Y-107370714D02*
X221543571Y-106799285D01*
X222067380Y-106799285D02*
X221067380Y-106799285D01*
X221400714Y-106418333D02*
X221400714Y-105894523D01*
X222067380Y-106418333D01*
X222067380Y-105894523D01*
X214506190Y-109061190D02*
X214982380Y-109061190D01*
X213982380Y-109394523D02*
X214506190Y-109061190D01*
X213982380Y-108727857D01*
X214982380Y-107870714D02*
X214982380Y-108442142D01*
X214982380Y-108156428D02*
X213982380Y-108156428D01*
X214125238Y-108251666D01*
X214220476Y-108346904D01*
X214268095Y-108442142D01*
X196826142Y-153852095D02*
X196873761Y-153899714D01*
X196921380Y-154042571D01*
X196921380Y-154137809D01*
X196873761Y-154280666D01*
X196778523Y-154375904D01*
X196683285Y-154423523D01*
X196492809Y-154471142D01*
X196349952Y-154471142D01*
X196159476Y-154423523D01*
X196064238Y-154375904D01*
X195969000Y-154280666D01*
X195921380Y-154137809D01*
X195921380Y-154042571D01*
X195969000Y-153899714D01*
X196016619Y-153852095D01*
X196921380Y-153280666D02*
X196873761Y-153375904D01*
X196826142Y-153423523D01*
X196730904Y-153471142D01*
X196445190Y-153471142D01*
X196349952Y-153423523D01*
X196302333Y-153375904D01*
X196254714Y-153280666D01*
X196254714Y-153137809D01*
X196302333Y-153042571D01*
X196349952Y-152994952D01*
X196445190Y-152947333D01*
X196730904Y-152947333D01*
X196826142Y-152994952D01*
X196873761Y-153042571D01*
X196921380Y-153137809D01*
X196921380Y-153280666D01*
X196254714Y-152518761D02*
X196921380Y-152518761D01*
X196349952Y-152518761D02*
X196302333Y-152471142D01*
X196254714Y-152375904D01*
X196254714Y-152233047D01*
X196302333Y-152137809D01*
X196397571Y-152090190D01*
X196921380Y-152090190D01*
X196254714Y-151614000D02*
X196921380Y-151614000D01*
X196349952Y-151614000D02*
X196302333Y-151566380D01*
X196254714Y-151471142D01*
X196254714Y-151328285D01*
X196302333Y-151233047D01*
X196397571Y-151185428D01*
X196921380Y-151185428D01*
X197016619Y-150947333D02*
X197016619Y-150185428D01*
X195921380Y-149756857D02*
X195921380Y-149661619D01*
X195969000Y-149566380D01*
X196016619Y-149518761D01*
X196111857Y-149471142D01*
X196302333Y-149423523D01*
X196540428Y-149423523D01*
X196730904Y-149471142D01*
X196826142Y-149518761D01*
X196873761Y-149566380D01*
X196921380Y-149661619D01*
X196921380Y-149756857D01*
X196873761Y-149852095D01*
X196826142Y-149899714D01*
X196730904Y-149947333D01*
X196540428Y-149994952D01*
X196302333Y-149994952D01*
X196111857Y-149947333D01*
X196016619Y-149899714D01*
X195969000Y-149852095D01*
X195921380Y-149756857D01*
X196921380Y-148471142D02*
X196921380Y-149042571D01*
X196921380Y-148756857D02*
X195921380Y-148756857D01*
X196064238Y-148852095D01*
X196159476Y-148947333D01*
X196207095Y-149042571D01*
X196921380Y-148137809D02*
X196254714Y-147614000D01*
X196254714Y-148137809D02*
X196921380Y-147614000D01*
X195921380Y-147042571D02*
X195921380Y-146947333D01*
X195969000Y-146852095D01*
X196016619Y-146804476D01*
X196111857Y-146756857D01*
X196302333Y-146709238D01*
X196540428Y-146709238D01*
X196730904Y-146756857D01*
X196826142Y-146804476D01*
X196873761Y-146852095D01*
X196921380Y-146947333D01*
X196921380Y-147042571D01*
X196873761Y-147137809D01*
X196826142Y-147185428D01*
X196730904Y-147233047D01*
X196540428Y-147280666D01*
X196302333Y-147280666D01*
X196111857Y-147233047D01*
X196016619Y-147185428D01*
X195969000Y-147137809D01*
X195921380Y-147042571D01*
X196016619Y-146328285D02*
X195969000Y-146280666D01*
X195921380Y-146185428D01*
X195921380Y-145947333D01*
X195969000Y-145852095D01*
X196016619Y-145804476D01*
X196111857Y-145756857D01*
X196207095Y-145756857D01*
X196349952Y-145804476D01*
X196921380Y-146375904D01*
X196921380Y-145756857D01*
X200326666Y-150582380D02*
X200326666Y-151296666D01*
X200279047Y-151439523D01*
X200183809Y-151534761D01*
X200040952Y-151582380D01*
X199945714Y-151582380D01*
X200755238Y-150677619D02*
X200802857Y-150630000D01*
X200898095Y-150582380D01*
X201136190Y-150582380D01*
X201231428Y-150630000D01*
X201279047Y-150677619D01*
X201326666Y-150772857D01*
X201326666Y-150868095D01*
X201279047Y-151010952D01*
X200707619Y-151582380D01*
X201326666Y-151582380D01*
X234056666Y-153320238D02*
X234056666Y-152844047D01*
X234342380Y-153415476D02*
X233342380Y-153082142D01*
X234342380Y-152748809D01*
X233342380Y-152558333D02*
X234342380Y-152225000D01*
X233342380Y-151891666D01*
X234342380Y-150986904D02*
X233866190Y-151320238D01*
X234342380Y-151558333D02*
X233342380Y-151558333D01*
X233342380Y-151177380D01*
X233390000Y-151082142D01*
X233437619Y-151034523D01*
X233532857Y-150986904D01*
X233675714Y-150986904D01*
X233770952Y-151034523D01*
X233818571Y-151082142D01*
X233866190Y-151177380D01*
X233866190Y-151558333D01*
X233961428Y-150558333D02*
X233961428Y-149796428D01*
X234342380Y-149320238D02*
X233342380Y-149320238D01*
X234294761Y-148891666D02*
X234342380Y-148748809D01*
X234342380Y-148510714D01*
X234294761Y-148415476D01*
X234247142Y-148367857D01*
X234151904Y-148320238D01*
X234056666Y-148320238D01*
X233961428Y-148367857D01*
X233913809Y-148415476D01*
X233866190Y-148510714D01*
X233818571Y-148701190D01*
X233770952Y-148796428D01*
X233723333Y-148844047D01*
X233628095Y-148891666D01*
X233532857Y-148891666D01*
X233437619Y-148844047D01*
X233390000Y-148796428D01*
X233342380Y-148701190D01*
X233342380Y-148463095D01*
X233390000Y-148320238D01*
X234342380Y-147891666D02*
X233342380Y-147891666D01*
X233342380Y-147510714D01*
X233390000Y-147415476D01*
X233437619Y-147367857D01*
X233532857Y-147320238D01*
X233675714Y-147320238D01*
X233770952Y-147367857D01*
X233818571Y-147415476D01*
X233866190Y-147510714D01*
X233866190Y-147891666D01*
X233961428Y-146891666D02*
X233961428Y-146129761D01*
X233342380Y-145225000D02*
X233342380Y-145415476D01*
X233390000Y-145510714D01*
X233437619Y-145558333D01*
X233580476Y-145653571D01*
X233770952Y-145701190D01*
X234151904Y-145701190D01*
X234247142Y-145653571D01*
X234294761Y-145605952D01*
X234342380Y-145510714D01*
X234342380Y-145320238D01*
X234294761Y-145225000D01*
X234247142Y-145177380D01*
X234151904Y-145129761D01*
X233913809Y-145129761D01*
X233818571Y-145177380D01*
X233770952Y-145225000D01*
X233723333Y-145320238D01*
X233723333Y-145510714D01*
X233770952Y-145605952D01*
X233818571Y-145653571D01*
X233913809Y-145701190D01*
X239117142Y-150439285D02*
X239164761Y-150486904D01*
X239212380Y-150629761D01*
X239212380Y-150725000D01*
X239164761Y-150867857D01*
X239069523Y-150963095D01*
X238974285Y-151010714D01*
X238783809Y-151058333D01*
X238640952Y-151058333D01*
X238450476Y-151010714D01*
X238355238Y-150963095D01*
X238260000Y-150867857D01*
X238212380Y-150725000D01*
X238212380Y-150629761D01*
X238260000Y-150486904D01*
X238307619Y-150439285D01*
X238212380Y-149820238D02*
X238212380Y-149629761D01*
X238260000Y-149534523D01*
X238355238Y-149439285D01*
X238545714Y-149391666D01*
X238879047Y-149391666D01*
X239069523Y-149439285D01*
X239164761Y-149534523D01*
X239212380Y-149629761D01*
X239212380Y-149820238D01*
X239164761Y-149915476D01*
X239069523Y-150010714D01*
X238879047Y-150058333D01*
X238545714Y-150058333D01*
X238355238Y-150010714D01*
X238260000Y-149915476D01*
X238212380Y-149820238D01*
X239212380Y-148963095D02*
X238212380Y-148963095D01*
X239212380Y-148391666D01*
X238212380Y-148391666D01*
X239212380Y-147391666D02*
X239212380Y-147963095D01*
X239212380Y-147677380D02*
X238212380Y-147677380D01*
X238355238Y-147772619D01*
X238450476Y-147867857D01*
X238498095Y-147963095D01*
X210002380Y-86367857D02*
X210002380Y-86844047D01*
X209002380Y-86844047D01*
X209478571Y-86034523D02*
X209478571Y-85701190D01*
X210002380Y-85558333D02*
X210002380Y-86034523D01*
X209002380Y-86034523D01*
X209002380Y-85558333D01*
X210002380Y-85129761D02*
X209002380Y-85129761D01*
X209002380Y-84891666D01*
X209050000Y-84748809D01*
X209145238Y-84653571D01*
X209240476Y-84605952D01*
X209430952Y-84558333D01*
X209573809Y-84558333D01*
X209764285Y-84605952D01*
X209859523Y-84653571D01*
X209954761Y-84748809D01*
X210002380Y-84891666D01*
X210002380Y-85129761D01*
D14*
X211816904Y-81850476D02*
X211016904Y-81850476D01*
X211016904Y-81660000D01*
X211055000Y-81545714D01*
X211131190Y-81469523D01*
X211207380Y-81431428D01*
X211359761Y-81393333D01*
X211474047Y-81393333D01*
X211626428Y-81431428D01*
X211702619Y-81469523D01*
X211778809Y-81545714D01*
X211816904Y-81660000D01*
X211816904Y-81850476D01*
X211816904Y-80631428D02*
X211816904Y-81088571D01*
X211816904Y-80860000D02*
X211016904Y-80860000D01*
X211131190Y-80936190D01*
X211207380Y-81012380D01*
X211245476Y-81088571D01*
D10*
X207432380Y-151974761D02*
X207575238Y-152022380D01*
X207813333Y-152022380D01*
X207908571Y-151974761D01*
X207956190Y-151927142D01*
X208003809Y-151831904D01*
X208003809Y-151736666D01*
X207956190Y-151641428D01*
X207908571Y-151593809D01*
X207813333Y-151546190D01*
X207622857Y-151498571D01*
X207527619Y-151450952D01*
X207480000Y-151403333D01*
X207432380Y-151308095D01*
X207432380Y-151212857D01*
X207480000Y-151117619D01*
X207527619Y-151070000D01*
X207622857Y-151022380D01*
X207860952Y-151022380D01*
X208003809Y-151070000D01*
X208337142Y-151022380D02*
X208575238Y-152022380D01*
X208765714Y-151308095D01*
X208956190Y-152022380D01*
X209194285Y-151022380D01*
X209337142Y-152117619D02*
X210099047Y-152117619D01*
X210337142Y-152022380D02*
X210337142Y-151022380D01*
X210718095Y-151022380D01*
X210813333Y-151070000D01*
X210860952Y-151117619D01*
X210908571Y-151212857D01*
X210908571Y-151355714D01*
X210860952Y-151450952D01*
X210813333Y-151498571D01*
X210718095Y-151546190D01*
X210337142Y-151546190D01*
X211765714Y-151355714D02*
X211765714Y-152022380D01*
X211337142Y-151355714D02*
X211337142Y-151879523D01*
X211384761Y-151974761D01*
X211480000Y-152022380D01*
X211622857Y-152022380D01*
X211718095Y-151974761D01*
X211765714Y-151927142D01*
X212194285Y-151974761D02*
X212289523Y-152022380D01*
X212480000Y-152022380D01*
X212575238Y-151974761D01*
X212622857Y-151879523D01*
X212622857Y-151831904D01*
X212575238Y-151736666D01*
X212480000Y-151689047D01*
X212337142Y-151689047D01*
X212241904Y-151641428D01*
X212194285Y-151546190D01*
X212194285Y-151498571D01*
X212241904Y-151403333D01*
X212337142Y-151355714D01*
X212480000Y-151355714D01*
X212575238Y-151403333D01*
X213051428Y-152022380D02*
X213051428Y-151022380D01*
X213480000Y-152022380D02*
X213480000Y-151498571D01*
X213432380Y-151403333D01*
X213337142Y-151355714D01*
X213194285Y-151355714D01*
X213099047Y-151403333D01*
X213051428Y-151450952D01*
X209146666Y-143824761D02*
X209289523Y-143872380D01*
X209527619Y-143872380D01*
X209622857Y-143824761D01*
X209670476Y-143777142D01*
X209718095Y-143681904D01*
X209718095Y-143586666D01*
X209670476Y-143491428D01*
X209622857Y-143443809D01*
X209527619Y-143396190D01*
X209337142Y-143348571D01*
X209241904Y-143300952D01*
X209194285Y-143253333D01*
X209146666Y-143158095D01*
X209146666Y-143062857D01*
X209194285Y-142967619D01*
X209241904Y-142920000D01*
X209337142Y-142872380D01*
X209575238Y-142872380D01*
X209718095Y-142920000D01*
X210051428Y-142872380D02*
X210289523Y-143872380D01*
X210480000Y-143158095D01*
X210670476Y-143872380D01*
X210908571Y-142872380D01*
X211813333Y-143872380D02*
X211241904Y-143872380D01*
X211527619Y-143872380D02*
X211527619Y-142872380D01*
X211432380Y-143015238D01*
X211337142Y-143110476D01*
X211241904Y-143158095D01*
X208974761Y-76072619D02*
X209022380Y-75929761D01*
X209022380Y-75691666D01*
X208974761Y-75596428D01*
X208927142Y-75548809D01*
X208831904Y-75501190D01*
X208736666Y-75501190D01*
X208641428Y-75548809D01*
X208593809Y-75596428D01*
X208546190Y-75691666D01*
X208498571Y-75882142D01*
X208450952Y-75977380D01*
X208403333Y-76025000D01*
X208308095Y-76072619D01*
X208212857Y-76072619D01*
X208117619Y-76025000D01*
X208070000Y-75977380D01*
X208022380Y-75882142D01*
X208022380Y-75644047D01*
X208070000Y-75501190D01*
X208022380Y-75167857D02*
X209022380Y-74929761D01*
X208308095Y-74739285D01*
X209022380Y-74548809D01*
X208022380Y-74310714D01*
X209117619Y-74167857D02*
X209117619Y-73405952D01*
X209022380Y-73167857D02*
X208022380Y-73167857D01*
X208022380Y-72786904D01*
X208070000Y-72691666D01*
X208117619Y-72644047D01*
X208212857Y-72596428D01*
X208355714Y-72596428D01*
X208450952Y-72644047D01*
X208498571Y-72691666D01*
X208546190Y-72786904D01*
X208546190Y-73167857D01*
X208355714Y-71739285D02*
X209022380Y-71739285D01*
X208355714Y-72167857D02*
X208879523Y-72167857D01*
X208974761Y-72120238D01*
X209022380Y-72025000D01*
X209022380Y-71882142D01*
X208974761Y-71786904D01*
X208927142Y-71739285D01*
X208974761Y-71310714D02*
X209022380Y-71215476D01*
X209022380Y-71025000D01*
X208974761Y-70929761D01*
X208879523Y-70882142D01*
X208831904Y-70882142D01*
X208736666Y-70929761D01*
X208689047Y-71025000D01*
X208689047Y-71167857D01*
X208641428Y-71263095D01*
X208546190Y-71310714D01*
X208498571Y-71310714D01*
X208403333Y-71263095D01*
X208355714Y-71167857D01*
X208355714Y-71025000D01*
X208403333Y-70929761D01*
X209022380Y-70453571D02*
X208022380Y-70453571D01*
X209022380Y-70025000D02*
X208498571Y-70025000D01*
X208403333Y-70072619D01*
X208355714Y-70167857D01*
X208355714Y-70310714D01*
X208403333Y-70405952D01*
X208450952Y-70453571D01*
X217124761Y-74358333D02*
X217172380Y-74215476D01*
X217172380Y-73977380D01*
X217124761Y-73882142D01*
X217077142Y-73834523D01*
X216981904Y-73786904D01*
X216886666Y-73786904D01*
X216791428Y-73834523D01*
X216743809Y-73882142D01*
X216696190Y-73977380D01*
X216648571Y-74167857D01*
X216600952Y-74263095D01*
X216553333Y-74310714D01*
X216458095Y-74358333D01*
X216362857Y-74358333D01*
X216267619Y-74310714D01*
X216220000Y-74263095D01*
X216172380Y-74167857D01*
X216172380Y-73929761D01*
X216220000Y-73786904D01*
X216172380Y-73453571D02*
X217172380Y-73215476D01*
X216458095Y-73025000D01*
X217172380Y-72834523D01*
X216172380Y-72596428D01*
X216267619Y-72263095D02*
X216220000Y-72215476D01*
X216172380Y-72120238D01*
X216172380Y-71882142D01*
X216220000Y-71786904D01*
X216267619Y-71739285D01*
X216362857Y-71691666D01*
X216458095Y-71691666D01*
X216600952Y-71739285D01*
X217172380Y-72310714D01*
X217172380Y-71691666D01*
X222900380Y-127499476D02*
X221900380Y-127499476D01*
X221900380Y-127261380D01*
X221948000Y-127118523D01*
X222043238Y-127023285D01*
X222138476Y-126975666D01*
X222328952Y-126928047D01*
X222471809Y-126928047D01*
X222662285Y-126975666D01*
X222757523Y-127023285D01*
X222852761Y-127118523D01*
X222900380Y-127261380D01*
X222900380Y-127499476D01*
X222852761Y-126547095D02*
X222900380Y-126404238D01*
X222900380Y-126166142D01*
X222852761Y-126070904D01*
X222805142Y-126023285D01*
X222709904Y-125975666D01*
X222614666Y-125975666D01*
X222519428Y-126023285D01*
X222471809Y-126070904D01*
X222424190Y-126166142D01*
X222376571Y-126356619D01*
X222328952Y-126451857D01*
X222281333Y-126499476D01*
X222186095Y-126547095D01*
X222090857Y-126547095D01*
X221995619Y-126499476D01*
X221948000Y-126451857D01*
X221900380Y-126356619D01*
X221900380Y-126118523D01*
X221948000Y-125975666D01*
X222900380Y-125023285D02*
X222900380Y-125594714D01*
X222900380Y-125309000D02*
X221900380Y-125309000D01*
X222043238Y-125404238D01*
X222138476Y-125499476D01*
X222186095Y-125594714D01*
X221900380Y-124689952D02*
X221900380Y-124070904D01*
X222281333Y-124404238D01*
X222281333Y-124261380D01*
X222328952Y-124166142D01*
X222376571Y-124118523D01*
X222471809Y-124070904D01*
X222709904Y-124070904D01*
X222805142Y-124118523D01*
X222852761Y-124166142D01*
X222900380Y-124261380D01*
X222900380Y-124547095D01*
X222852761Y-124642333D01*
X222805142Y-124689952D01*
X221900380Y-123737571D02*
X221900380Y-123118523D01*
X222281333Y-123451857D01*
X222281333Y-123309000D01*
X222328952Y-123213761D01*
X222376571Y-123166142D01*
X222471809Y-123118523D01*
X222709904Y-123118523D01*
X222805142Y-123166142D01*
X222852761Y-123213761D01*
X222900380Y-123309000D01*
X222900380Y-123594714D01*
X222852761Y-123689952D01*
X222805142Y-123737571D01*
X222328952Y-122547095D02*
X222281333Y-122642333D01*
X222233714Y-122689952D01*
X222138476Y-122737571D01*
X222090857Y-122737571D01*
X221995619Y-122689952D01*
X221948000Y-122642333D01*
X221900380Y-122547095D01*
X221900380Y-122356619D01*
X221948000Y-122261380D01*
X221995619Y-122213761D01*
X222090857Y-122166142D01*
X222138476Y-122166142D01*
X222233714Y-122213761D01*
X222281333Y-122261380D01*
X222328952Y-122356619D01*
X222328952Y-122547095D01*
X222376571Y-122642333D01*
X222424190Y-122689952D01*
X222519428Y-122737571D01*
X222709904Y-122737571D01*
X222805142Y-122689952D01*
X222852761Y-122642333D01*
X222900380Y-122547095D01*
X222900380Y-122356619D01*
X222852761Y-122261380D01*
X222805142Y-122213761D01*
X222709904Y-122166142D01*
X222519428Y-122166142D01*
X222424190Y-122213761D01*
X222376571Y-122261380D01*
X222328952Y-122356619D01*
X221900380Y-121832809D02*
X221900380Y-121166142D01*
X222900380Y-121832809D01*
X222900380Y-121166142D01*
X222519428Y-120785190D02*
X222519428Y-120023285D01*
X221900380Y-119642333D02*
X221900380Y-119023285D01*
X222281333Y-119356619D01*
X222281333Y-119213761D01*
X222328952Y-119118523D01*
X222376571Y-119070904D01*
X222471809Y-119023285D01*
X222709904Y-119023285D01*
X222805142Y-119070904D01*
X222852761Y-119118523D01*
X222900380Y-119213761D01*
X222900380Y-119499476D01*
X222852761Y-119594714D01*
X222805142Y-119642333D01*
X221900380Y-118689952D02*
X221900380Y-118070904D01*
X222281333Y-118404238D01*
X222281333Y-118261380D01*
X222328952Y-118166142D01*
X222376571Y-118118523D01*
X222471809Y-118070904D01*
X222709904Y-118070904D01*
X222805142Y-118118523D01*
X222852761Y-118166142D01*
X222900380Y-118261380D01*
X222900380Y-118547095D01*
X222852761Y-118642333D01*
X222805142Y-118689952D01*
X218400380Y-123570904D02*
X219209904Y-123570904D01*
X219305142Y-123523285D01*
X219352761Y-123475666D01*
X219400380Y-123380428D01*
X219400380Y-123189952D01*
X219352761Y-123094714D01*
X219305142Y-123047095D01*
X219209904Y-122999476D01*
X218400380Y-122999476D01*
X218828952Y-122380428D02*
X218781333Y-122475666D01*
X218733714Y-122523285D01*
X218638476Y-122570904D01*
X218590857Y-122570904D01*
X218495619Y-122523285D01*
X218448000Y-122475666D01*
X218400380Y-122380428D01*
X218400380Y-122189952D01*
X218448000Y-122094714D01*
X218495619Y-122047095D01*
X218590857Y-121999476D01*
X218638476Y-121999476D01*
X218733714Y-122047095D01*
X218781333Y-122094714D01*
X218828952Y-122189952D01*
X218828952Y-122380428D01*
X218876571Y-122475666D01*
X218924190Y-122523285D01*
X219019428Y-122570904D01*
X219209904Y-122570904D01*
X219305142Y-122523285D01*
X219352761Y-122475666D01*
X219400380Y-122380428D01*
X219400380Y-122189952D01*
X219352761Y-122094714D01*
X219305142Y-122047095D01*
X219209904Y-121999476D01*
X219019428Y-121999476D01*
X218924190Y-122047095D01*
X218876571Y-122094714D01*
X218828952Y-122189952D01*
X190970476Y-150102380D02*
X190970476Y-149102380D01*
X191303809Y-149816666D01*
X191637142Y-149102380D01*
X191637142Y-150102380D01*
X192113333Y-150102380D02*
X192113333Y-149102380D01*
X192684761Y-150102380D02*
X192256190Y-149530952D01*
X192684761Y-149102380D02*
X192113333Y-149673809D01*
X193541904Y-149435714D02*
X193541904Y-150102380D01*
X193303809Y-149054761D02*
X193065714Y-149769047D01*
X193684761Y-149769047D01*
X248970476Y-150102380D02*
X248970476Y-149102380D01*
X249303809Y-149816666D01*
X249637142Y-149102380D01*
X249637142Y-150102380D01*
X250113333Y-150102380D02*
X250113333Y-149102380D01*
X250684761Y-150102380D02*
X250256190Y-149530952D01*
X250684761Y-149102380D02*
X250113333Y-149673809D01*
X251541904Y-149102380D02*
X251351428Y-149102380D01*
X251256190Y-149150000D01*
X251208571Y-149197619D01*
X251113333Y-149340476D01*
X251065714Y-149530952D01*
X251065714Y-149911904D01*
X251113333Y-150007142D01*
X251160952Y-150054761D01*
X251256190Y-150102380D01*
X251446666Y-150102380D01*
X251541904Y-150054761D01*
X251589523Y-150007142D01*
X251637142Y-149911904D01*
X251637142Y-149673809D01*
X251589523Y-149578571D01*
X251541904Y-149530952D01*
X251446666Y-149483333D01*
X251256190Y-149483333D01*
X251160952Y-149530952D01*
X251113333Y-149578571D01*
X251065714Y-149673809D01*
X190970476Y-28602380D02*
X190970476Y-27602380D01*
X191303809Y-28316666D01*
X191637142Y-27602380D01*
X191637142Y-28602380D01*
X192113333Y-28602380D02*
X192113333Y-27602380D01*
X192684761Y-28602380D02*
X192256190Y-28030952D01*
X192684761Y-27602380D02*
X192113333Y-28173809D01*
X193018095Y-27602380D02*
X193684761Y-27602380D01*
X193256190Y-28602380D01*
X248970476Y-28602380D02*
X248970476Y-27602380D01*
X249303809Y-28316666D01*
X249637142Y-27602380D01*
X249637142Y-28602380D01*
X250113333Y-28602380D02*
X250113333Y-27602380D01*
X250684761Y-28602380D02*
X250256190Y-28030952D01*
X250684761Y-27602380D02*
X250113333Y-28173809D01*
X251160952Y-28602380D02*
X251351428Y-28602380D01*
X251446666Y-28554761D01*
X251494285Y-28507142D01*
X251589523Y-28364285D01*
X251637142Y-28173809D01*
X251637142Y-27792857D01*
X251589523Y-27697619D01*
X251541904Y-27650000D01*
X251446666Y-27602380D01*
X251256190Y-27602380D01*
X251160952Y-27650000D01*
X251113333Y-27697619D01*
X251065714Y-27792857D01*
X251065714Y-28030952D01*
X251113333Y-28126190D01*
X251160952Y-28173809D01*
X251256190Y-28221428D01*
X251446666Y-28221428D01*
X251541904Y-28173809D01*
X251589523Y-28126190D01*
X251637142Y-28030952D01*
X248494285Y-59352380D02*
X248494285Y-58352380D01*
X248827619Y-59066666D01*
X249160952Y-58352380D01*
X249160952Y-59352380D01*
X249637142Y-59352380D02*
X249637142Y-58352380D01*
X250208571Y-59352380D02*
X249780000Y-58780952D01*
X250208571Y-58352380D02*
X249637142Y-58923809D01*
X251160952Y-59352380D02*
X250589523Y-59352380D01*
X250875238Y-59352380D02*
X250875238Y-58352380D01*
X250780000Y-58495238D01*
X250684761Y-58590476D01*
X250589523Y-58638095D01*
X251780000Y-58352380D02*
X251875238Y-58352380D01*
X251970476Y-58400000D01*
X252018095Y-58447619D01*
X252065714Y-58542857D01*
X252113333Y-58733333D01*
X252113333Y-58971428D01*
X252065714Y-59161904D01*
X252018095Y-59257142D01*
X251970476Y-59304761D01*
X251875238Y-59352380D01*
X251780000Y-59352380D01*
X251684761Y-59304761D01*
X251637142Y-59257142D01*
X251589523Y-59161904D01*
X251541904Y-58971428D01*
X251541904Y-58733333D01*
X251589523Y-58542857D01*
X251637142Y-58447619D01*
X251684761Y-58400000D01*
X251780000Y-58352380D01*
X215972380Y-144740238D02*
X215972380Y-145311666D01*
X215972380Y-145025952D02*
X214972380Y-145025952D01*
X215115238Y-145121190D01*
X215210476Y-145216428D01*
X215258095Y-145311666D01*
X215305714Y-143883095D02*
X215972380Y-143883095D01*
X215305714Y-144311666D02*
X215829523Y-144311666D01*
X215924761Y-144264047D01*
X215972380Y-144168809D01*
X215972380Y-144025952D01*
X215924761Y-143930714D01*
X215877142Y-143883095D01*
X215448571Y-143073571D02*
X215448571Y-143406904D01*
X215972380Y-143406904D02*
X214972380Y-143406904D01*
X214972380Y-142930714D01*
D15*
X217348571Y-144228333D02*
X217372380Y-144252142D01*
X217396190Y-144323571D01*
X217396190Y-144371190D01*
X217372380Y-144442619D01*
X217324761Y-144490238D01*
X217277142Y-144514047D01*
X217181904Y-144537857D01*
X217110476Y-144537857D01*
X217015238Y-144514047D01*
X216967619Y-144490238D01*
X216920000Y-144442619D01*
X216896190Y-144371190D01*
X216896190Y-144323571D01*
X216920000Y-144252142D01*
X216943809Y-144228333D01*
X217396190Y-143752142D02*
X217396190Y-144037857D01*
X217396190Y-143895000D02*
X216896190Y-143895000D01*
X216967619Y-143942619D01*
X217015238Y-143990238D01*
X217039047Y-144037857D01*
D10*
X229942380Y-147612738D02*
X229942380Y-148184166D01*
X229942380Y-147898452D02*
X228942380Y-147898452D01*
X229085238Y-147993690D01*
X229180476Y-148088928D01*
X229228095Y-148184166D01*
X229275714Y-146755595D02*
X229942380Y-146755595D01*
X229275714Y-147184166D02*
X229799523Y-147184166D01*
X229894761Y-147136547D01*
X229942380Y-147041309D01*
X229942380Y-146898452D01*
X229894761Y-146803214D01*
X229847142Y-146755595D01*
X229418571Y-145946071D02*
X229418571Y-146279404D01*
X229942380Y-146279404D02*
X228942380Y-146279404D01*
X228942380Y-145803214D01*
D15*
X231318571Y-147100833D02*
X231342380Y-147124642D01*
X231366190Y-147196071D01*
X231366190Y-147243690D01*
X231342380Y-147315119D01*
X231294761Y-147362738D01*
X231247142Y-147386547D01*
X231151904Y-147410357D01*
X231080476Y-147410357D01*
X230985238Y-147386547D01*
X230937619Y-147362738D01*
X230890000Y-147315119D01*
X230866190Y-147243690D01*
X230866190Y-147196071D01*
X230890000Y-147124642D01*
X230913809Y-147100833D01*
X230913809Y-146910357D02*
X230890000Y-146886547D01*
X230866190Y-146838928D01*
X230866190Y-146719880D01*
X230890000Y-146672261D01*
X230913809Y-146648452D01*
X230961428Y-146624642D01*
X231009047Y-146624642D01*
X231080476Y-146648452D01*
X231366190Y-146934166D01*
X231366190Y-146624642D01*
D10*
X237307380Y-137509414D02*
X237307380Y-138080842D01*
X237307380Y-137795128D02*
X236307380Y-137795128D01*
X236450238Y-137890366D01*
X236545476Y-137985604D01*
X236593095Y-138080842D01*
X236640714Y-136652271D02*
X237307380Y-136652271D01*
X236640714Y-137080842D02*
X237164523Y-137080842D01*
X237259761Y-137033223D01*
X237307380Y-136937985D01*
X237307380Y-136795128D01*
X237259761Y-136699890D01*
X237212142Y-136652271D01*
X236783571Y-135842747D02*
X236783571Y-136176080D01*
X237307380Y-136176080D02*
X236307380Y-136176080D01*
X236307380Y-135699890D01*
D15*
X238938571Y-136997509D02*
X238962380Y-137021318D01*
X238986190Y-137092747D01*
X238986190Y-137140366D01*
X238962380Y-137211795D01*
X238914761Y-137259414D01*
X238867142Y-137283223D01*
X238771904Y-137307033D01*
X238700476Y-137307033D01*
X238605238Y-137283223D01*
X238557619Y-137259414D01*
X238510000Y-137211795D01*
X238486190Y-137140366D01*
X238486190Y-137092747D01*
X238510000Y-137021318D01*
X238533809Y-136997509D01*
X238486190Y-136830842D02*
X238486190Y-136521318D01*
X238676666Y-136687985D01*
X238676666Y-136616556D01*
X238700476Y-136568937D01*
X238724285Y-136545128D01*
X238771904Y-136521318D01*
X238890952Y-136521318D01*
X238938571Y-136545128D01*
X238962380Y-136568937D01*
X238986190Y-136616556D01*
X238986190Y-136759414D01*
X238962380Y-136807033D01*
X238938571Y-136830842D01*
D10*
X228687380Y-103242857D02*
X228687380Y-103147619D01*
X228735000Y-103052380D01*
X228782619Y-103004761D01*
X228877857Y-102957142D01*
X229068333Y-102909523D01*
X229306428Y-102909523D01*
X229496904Y-102957142D01*
X229592142Y-103004761D01*
X229639761Y-103052380D01*
X229687380Y-103147619D01*
X229687380Y-103242857D01*
X229639761Y-103338095D01*
X229592142Y-103385714D01*
X229496904Y-103433333D01*
X229306428Y-103480952D01*
X229068333Y-103480952D01*
X228877857Y-103433333D01*
X228782619Y-103385714D01*
X228735000Y-103338095D01*
X228687380Y-103242857D01*
X229639761Y-102433333D02*
X229687380Y-102433333D01*
X229782619Y-102480952D01*
X229830238Y-102528571D01*
X229687380Y-101480952D02*
X229687380Y-102052380D01*
X229687380Y-101766666D02*
X228687380Y-101766666D01*
X228830238Y-101861904D01*
X228925476Y-101957142D01*
X228973095Y-102052380D01*
X229020714Y-100623809D02*
X229687380Y-100623809D01*
X229020714Y-101052380D02*
X229544523Y-101052380D01*
X229639761Y-101004761D01*
X229687380Y-100909523D01*
X229687380Y-100766666D01*
X229639761Y-100671428D01*
X229592142Y-100623809D01*
X229163571Y-99814285D02*
X229163571Y-100147619D01*
X229687380Y-100147619D02*
X228687380Y-100147619D01*
X228687380Y-99671428D01*
D15*
X225976666Y-99873571D02*
X225952857Y-99897380D01*
X225881428Y-99921190D01*
X225833809Y-99921190D01*
X225762380Y-99897380D01*
X225714761Y-99849761D01*
X225690952Y-99802142D01*
X225667142Y-99706904D01*
X225667142Y-99635476D01*
X225690952Y-99540238D01*
X225714761Y-99492619D01*
X225762380Y-99445000D01*
X225833809Y-99421190D01*
X225881428Y-99421190D01*
X225952857Y-99445000D01*
X225976666Y-99468809D01*
X226405238Y-99587857D02*
X226405238Y-99921190D01*
X226286190Y-99397380D02*
X226167142Y-99754523D01*
X226476666Y-99754523D01*
D10*
X243292380Y-138557033D02*
X243292380Y-138461795D01*
X243340000Y-138366556D01*
X243387619Y-138318937D01*
X243482857Y-138271318D01*
X243673333Y-138223699D01*
X243911428Y-138223699D01*
X244101904Y-138271318D01*
X244197142Y-138318937D01*
X244244761Y-138366556D01*
X244292380Y-138461795D01*
X244292380Y-138557033D01*
X244244761Y-138652271D01*
X244197142Y-138699890D01*
X244101904Y-138747509D01*
X243911428Y-138795128D01*
X243673333Y-138795128D01*
X243482857Y-138747509D01*
X243387619Y-138699890D01*
X243340000Y-138652271D01*
X243292380Y-138557033D01*
X244244761Y-137747509D02*
X244292380Y-137747509D01*
X244387619Y-137795128D01*
X244435238Y-137842747D01*
X244292380Y-136795128D02*
X244292380Y-137366556D01*
X244292380Y-137080842D02*
X243292380Y-137080842D01*
X243435238Y-137176080D01*
X243530476Y-137271318D01*
X243578095Y-137366556D01*
X243625714Y-135937985D02*
X244292380Y-135937985D01*
X243625714Y-136366556D02*
X244149523Y-136366556D01*
X244244761Y-136318937D01*
X244292380Y-136223699D01*
X244292380Y-136080842D01*
X244244761Y-135985604D01*
X244197142Y-135937985D01*
X243768571Y-135128461D02*
X243768571Y-135461795D01*
X244292380Y-135461795D02*
X243292380Y-135461795D01*
X243292380Y-134985604D01*
D15*
X241610473Y-136997509D02*
X241634282Y-137021318D01*
X241658092Y-137092747D01*
X241658092Y-137140366D01*
X241634282Y-137211795D01*
X241586663Y-137259414D01*
X241539044Y-137283223D01*
X241443806Y-137307033D01*
X241372378Y-137307033D01*
X241277140Y-137283223D01*
X241229521Y-137259414D01*
X241181902Y-137211795D01*
X241158092Y-137140366D01*
X241158092Y-137092747D01*
X241181902Y-137021318D01*
X241205711Y-136997509D01*
X241158092Y-136545128D02*
X241158092Y-136783223D01*
X241396187Y-136807033D01*
X241372378Y-136783223D01*
X241348568Y-136735604D01*
X241348568Y-136616556D01*
X241372378Y-136568937D01*
X241396187Y-136545128D01*
X241443806Y-136521318D01*
X241562854Y-136521318D01*
X241610473Y-136545128D01*
X241634282Y-136568937D01*
X241658092Y-136616556D01*
X241658092Y-136735604D01*
X241634282Y-136783223D01*
X241610473Y-136807033D01*
D10*
X228687380Y-96892857D02*
X228687380Y-96797619D01*
X228735000Y-96702380D01*
X228782619Y-96654761D01*
X228877857Y-96607142D01*
X229068333Y-96559523D01*
X229306428Y-96559523D01*
X229496904Y-96607142D01*
X229592142Y-96654761D01*
X229639761Y-96702380D01*
X229687380Y-96797619D01*
X229687380Y-96892857D01*
X229639761Y-96988095D01*
X229592142Y-97035714D01*
X229496904Y-97083333D01*
X229306428Y-97130952D01*
X229068333Y-97130952D01*
X228877857Y-97083333D01*
X228782619Y-97035714D01*
X228735000Y-96988095D01*
X228687380Y-96892857D01*
X229639761Y-96083333D02*
X229687380Y-96083333D01*
X229782619Y-96130952D01*
X229830238Y-96178571D01*
X229687380Y-95130952D02*
X229687380Y-95702380D01*
X229687380Y-95416666D02*
X228687380Y-95416666D01*
X228830238Y-95511904D01*
X228925476Y-95607142D01*
X228973095Y-95702380D01*
X229020714Y-94273809D02*
X229687380Y-94273809D01*
X229020714Y-94702380D02*
X229544523Y-94702380D01*
X229639761Y-94654761D01*
X229687380Y-94559523D01*
X229687380Y-94416666D01*
X229639761Y-94321428D01*
X229592142Y-94273809D01*
X229163571Y-93464285D02*
X229163571Y-93797619D01*
X229687380Y-93797619D02*
X228687380Y-93797619D01*
X228687380Y-93321428D01*
D15*
X225976666Y-97333571D02*
X225952857Y-97357380D01*
X225881428Y-97381190D01*
X225833809Y-97381190D01*
X225762380Y-97357380D01*
X225714761Y-97309761D01*
X225690952Y-97262142D01*
X225667142Y-97166904D01*
X225667142Y-97095476D01*
X225690952Y-97000238D01*
X225714761Y-96952619D01*
X225762380Y-96905000D01*
X225833809Y-96881190D01*
X225881428Y-96881190D01*
X225952857Y-96905000D01*
X225976666Y-96928809D01*
X226405238Y-96881190D02*
X226310000Y-96881190D01*
X226262380Y-96905000D01*
X226238571Y-96928809D01*
X226190952Y-97000238D01*
X226167142Y-97095476D01*
X226167142Y-97285952D01*
X226190952Y-97333571D01*
X226214761Y-97357380D01*
X226262380Y-97381190D01*
X226357619Y-97381190D01*
X226405238Y-97357380D01*
X226429047Y-97333571D01*
X226452857Y-97285952D01*
X226452857Y-97166904D01*
X226429047Y-97119285D01*
X226405238Y-97095476D01*
X226357619Y-97071666D01*
X226262380Y-97071666D01*
X226214761Y-97095476D01*
X226190952Y-97119285D01*
X226167142Y-97166904D01*
D10*
X219542380Y-77452857D02*
X219542380Y-77357619D01*
X219590000Y-77262380D01*
X219637619Y-77214761D01*
X219732857Y-77167142D01*
X219923333Y-77119523D01*
X220161428Y-77119523D01*
X220351904Y-77167142D01*
X220447142Y-77214761D01*
X220494761Y-77262380D01*
X220542380Y-77357619D01*
X220542380Y-77452857D01*
X220494761Y-77548095D01*
X220447142Y-77595714D01*
X220351904Y-77643333D01*
X220161428Y-77690952D01*
X219923333Y-77690952D01*
X219732857Y-77643333D01*
X219637619Y-77595714D01*
X219590000Y-77548095D01*
X219542380Y-77452857D01*
X220494761Y-76643333D02*
X220542380Y-76643333D01*
X220637619Y-76690952D01*
X220685238Y-76738571D01*
X220542380Y-75690952D02*
X220542380Y-76262380D01*
X220542380Y-75976666D02*
X219542380Y-75976666D01*
X219685238Y-76071904D01*
X219780476Y-76167142D01*
X219828095Y-76262380D01*
X219875714Y-74833809D02*
X220542380Y-74833809D01*
X219875714Y-75262380D02*
X220399523Y-75262380D01*
X220494761Y-75214761D01*
X220542380Y-75119523D01*
X220542380Y-74976666D01*
X220494761Y-74881428D01*
X220447142Y-74833809D01*
X220018571Y-74024285D02*
X220018571Y-74357619D01*
X220542380Y-74357619D02*
X219542380Y-74357619D01*
X219542380Y-73881428D01*
D15*
X218618571Y-75893333D02*
X218642380Y-75917142D01*
X218666190Y-75988571D01*
X218666190Y-76036190D01*
X218642380Y-76107619D01*
X218594761Y-76155238D01*
X218547142Y-76179047D01*
X218451904Y-76202857D01*
X218380476Y-76202857D01*
X218285238Y-76179047D01*
X218237619Y-76155238D01*
X218190000Y-76107619D01*
X218166190Y-76036190D01*
X218166190Y-75988571D01*
X218190000Y-75917142D01*
X218213809Y-75893333D01*
X218166190Y-75726666D02*
X218166190Y-75393333D01*
X218666190Y-75607619D01*
D10*
X209732619Y-115061904D02*
X209685000Y-115014285D01*
X209637380Y-114919047D01*
X209637380Y-114680952D01*
X209685000Y-114585714D01*
X209732619Y-114538095D01*
X209827857Y-114490476D01*
X209923095Y-114490476D01*
X210065952Y-114538095D01*
X210637380Y-115109523D01*
X210637380Y-114490476D01*
X209732619Y-114109523D02*
X209685000Y-114061904D01*
X209637380Y-113966666D01*
X209637380Y-113728571D01*
X209685000Y-113633333D01*
X209732619Y-113585714D01*
X209827857Y-113538095D01*
X209923095Y-113538095D01*
X210065952Y-113585714D01*
X210637380Y-114157142D01*
X210637380Y-113538095D01*
D15*
X212268571Y-114383333D02*
X212292380Y-114407142D01*
X212316190Y-114478571D01*
X212316190Y-114526190D01*
X212292380Y-114597619D01*
X212244761Y-114645238D01*
X212197142Y-114669047D01*
X212101904Y-114692857D01*
X212030476Y-114692857D01*
X211935238Y-114669047D01*
X211887619Y-114645238D01*
X211840000Y-114597619D01*
X211816190Y-114526190D01*
X211816190Y-114478571D01*
X211840000Y-114407142D01*
X211863809Y-114383333D01*
X212030476Y-114097619D02*
X212006666Y-114145238D01*
X211982857Y-114169047D01*
X211935238Y-114192857D01*
X211911428Y-114192857D01*
X211863809Y-114169047D01*
X211840000Y-114145238D01*
X211816190Y-114097619D01*
X211816190Y-114002380D01*
X211840000Y-113954761D01*
X211863809Y-113930952D01*
X211911428Y-113907142D01*
X211935238Y-113907142D01*
X211982857Y-113930952D01*
X212006666Y-113954761D01*
X212030476Y-114002380D01*
X212030476Y-114097619D01*
X212054285Y-114145238D01*
X212078095Y-114169047D01*
X212125714Y-114192857D01*
X212220952Y-114192857D01*
X212268571Y-114169047D01*
X212292380Y-114145238D01*
X212316190Y-114097619D01*
X212316190Y-114002380D01*
X212292380Y-113954761D01*
X212268571Y-113930952D01*
X212220952Y-113907142D01*
X212125714Y-113907142D01*
X212078095Y-113930952D01*
X212054285Y-113954761D01*
X212030476Y-114002380D01*
D10*
X216082619Y-115061904D02*
X216035000Y-115014285D01*
X215987380Y-114919047D01*
X215987380Y-114680952D01*
X216035000Y-114585714D01*
X216082619Y-114538095D01*
X216177857Y-114490476D01*
X216273095Y-114490476D01*
X216415952Y-114538095D01*
X216987380Y-115109523D01*
X216987380Y-114490476D01*
X216082619Y-114109523D02*
X216035000Y-114061904D01*
X215987380Y-113966666D01*
X215987380Y-113728571D01*
X216035000Y-113633333D01*
X216082619Y-113585714D01*
X216177857Y-113538095D01*
X216273095Y-113538095D01*
X216415952Y-113585714D01*
X216987380Y-114157142D01*
X216987380Y-113538095D01*
D15*
X214808571Y-114383333D02*
X214832380Y-114407142D01*
X214856190Y-114478571D01*
X214856190Y-114526190D01*
X214832380Y-114597619D01*
X214784761Y-114645238D01*
X214737142Y-114669047D01*
X214641904Y-114692857D01*
X214570476Y-114692857D01*
X214475238Y-114669047D01*
X214427619Y-114645238D01*
X214380000Y-114597619D01*
X214356190Y-114526190D01*
X214356190Y-114478571D01*
X214380000Y-114407142D01*
X214403809Y-114383333D01*
X214856190Y-114145238D02*
X214856190Y-114050000D01*
X214832380Y-114002380D01*
X214808571Y-113978571D01*
X214737142Y-113930952D01*
X214641904Y-113907142D01*
X214451428Y-113907142D01*
X214403809Y-113930952D01*
X214380000Y-113954761D01*
X214356190Y-114002380D01*
X214356190Y-114097619D01*
X214380000Y-114145238D01*
X214403809Y-114169047D01*
X214451428Y-114192857D01*
X214570476Y-114192857D01*
X214618095Y-114169047D01*
X214641904Y-114145238D01*
X214665714Y-114097619D01*
X214665714Y-114002380D01*
X214641904Y-113954761D01*
X214618095Y-113930952D01*
X214570476Y-113907142D01*
D10*
X216622380Y-53077857D02*
X216622380Y-52982619D01*
X216670000Y-52887380D01*
X216717619Y-52839761D01*
X216812857Y-52792142D01*
X217003333Y-52744523D01*
X217241428Y-52744523D01*
X217431904Y-52792142D01*
X217527142Y-52839761D01*
X217574761Y-52887380D01*
X217622380Y-52982619D01*
X217622380Y-53077857D01*
X217574761Y-53173095D01*
X217527142Y-53220714D01*
X217431904Y-53268333D01*
X217241428Y-53315952D01*
X217003333Y-53315952D01*
X216812857Y-53268333D01*
X216717619Y-53220714D01*
X216670000Y-53173095D01*
X216622380Y-53077857D01*
X217574761Y-52268333D02*
X217622380Y-52268333D01*
X217717619Y-52315952D01*
X217765238Y-52363571D01*
X217622380Y-51315952D02*
X217622380Y-51887380D01*
X217622380Y-51601666D02*
X216622380Y-51601666D01*
X216765238Y-51696904D01*
X216860476Y-51792142D01*
X216908095Y-51887380D01*
X216955714Y-50458809D02*
X217622380Y-50458809D01*
X216955714Y-50887380D02*
X217479523Y-50887380D01*
X217574761Y-50839761D01*
X217622380Y-50744523D01*
X217622380Y-50601666D01*
X217574761Y-50506428D01*
X217527142Y-50458809D01*
X217098571Y-49649285D02*
X217098571Y-49982619D01*
X217622380Y-49982619D02*
X216622380Y-49982619D01*
X216622380Y-49506428D01*
D15*
X217738571Y-54677428D02*
X217762380Y-54701238D01*
X217786190Y-54772666D01*
X217786190Y-54820285D01*
X217762380Y-54891714D01*
X217714761Y-54939333D01*
X217667142Y-54963142D01*
X217571904Y-54986952D01*
X217500476Y-54986952D01*
X217405238Y-54963142D01*
X217357619Y-54939333D01*
X217310000Y-54891714D01*
X217286190Y-54820285D01*
X217286190Y-54772666D01*
X217310000Y-54701238D01*
X217333809Y-54677428D01*
X217786190Y-54201238D02*
X217786190Y-54486952D01*
X217786190Y-54344095D02*
X217286190Y-54344095D01*
X217357619Y-54391714D01*
X217405238Y-54439333D01*
X217429047Y-54486952D01*
X217286190Y-53891714D02*
X217286190Y-53844095D01*
X217310000Y-53796476D01*
X217333809Y-53772666D01*
X217381428Y-53748857D01*
X217476666Y-53725047D01*
X217595714Y-53725047D01*
X217690952Y-53748857D01*
X217738571Y-53772666D01*
X217762380Y-53796476D01*
X217786190Y-53844095D01*
X217786190Y-53891714D01*
X217762380Y-53939333D01*
X217738571Y-53963142D01*
X217690952Y-53986952D01*
X217595714Y-54010761D01*
X217476666Y-54010761D01*
X217381428Y-53986952D01*
X217333809Y-53963142D01*
X217310000Y-53939333D01*
X217286190Y-53891714D01*
D10*
X205752380Y-149668095D02*
X204752380Y-149668095D01*
X205466666Y-149334761D01*
X204752380Y-149001428D01*
X205752380Y-149001428D01*
X205228571Y-148191904D02*
X205276190Y-148049047D01*
X205323809Y-148001428D01*
X205419047Y-147953809D01*
X205561904Y-147953809D01*
X205657142Y-148001428D01*
X205704761Y-148049047D01*
X205752380Y-148144285D01*
X205752380Y-148525238D01*
X204752380Y-148525238D01*
X204752380Y-148191904D01*
X204800000Y-148096666D01*
X204847619Y-148049047D01*
X204942857Y-148001428D01*
X205038095Y-148001428D01*
X205133333Y-148049047D01*
X205180952Y-148096666D01*
X205228571Y-148191904D01*
X205228571Y-148525238D01*
X205752380Y-146953809D02*
X205276190Y-147287142D01*
X205752380Y-147525238D02*
X204752380Y-147525238D01*
X204752380Y-147144285D01*
X204800000Y-147049047D01*
X204847619Y-147001428D01*
X204942857Y-146953809D01*
X205085714Y-146953809D01*
X205180952Y-147001428D01*
X205228571Y-147049047D01*
X205276190Y-147144285D01*
X205276190Y-147525238D01*
X204752380Y-146334761D02*
X204752380Y-146239523D01*
X204800000Y-146144285D01*
X204847619Y-146096666D01*
X204942857Y-146049047D01*
X205133333Y-146001428D01*
X205371428Y-146001428D01*
X205561904Y-146049047D01*
X205657142Y-146096666D01*
X205704761Y-146144285D01*
X205752380Y-146239523D01*
X205752380Y-146334761D01*
X205704761Y-146430000D01*
X205657142Y-146477619D01*
X205561904Y-146525238D01*
X205371428Y-146572857D01*
X205133333Y-146572857D01*
X204942857Y-146525238D01*
X204847619Y-146477619D01*
X204800000Y-146430000D01*
X204752380Y-146334761D01*
X204752380Y-145096666D02*
X204752380Y-145572857D01*
X205228571Y-145620476D01*
X205180952Y-145572857D01*
X205133333Y-145477619D01*
X205133333Y-145239523D01*
X205180952Y-145144285D01*
X205228571Y-145096666D01*
X205323809Y-145049047D01*
X205561904Y-145049047D01*
X205657142Y-145096666D01*
X205704761Y-145144285D01*
X205752380Y-145239523D01*
X205752380Y-145477619D01*
X205704761Y-145572857D01*
X205657142Y-145620476D01*
X204752380Y-144715714D02*
X204752380Y-144096666D01*
X205133333Y-144430000D01*
X205133333Y-144287142D01*
X205180952Y-144191904D01*
X205228571Y-144144285D01*
X205323809Y-144096666D01*
X205561904Y-144096666D01*
X205657142Y-144144285D01*
X205704761Y-144191904D01*
X205752380Y-144287142D01*
X205752380Y-144572857D01*
X205704761Y-144668095D01*
X205657142Y-144715714D01*
X204752380Y-143477619D02*
X204752380Y-143382380D01*
X204800000Y-143287142D01*
X204847619Y-143239523D01*
X204942857Y-143191904D01*
X205133333Y-143144285D01*
X205371428Y-143144285D01*
X205561904Y-143191904D01*
X205657142Y-143239523D01*
X205704761Y-143287142D01*
X205752380Y-143382380D01*
X205752380Y-143477619D01*
X205704761Y-143572857D01*
X205657142Y-143620476D01*
X205561904Y-143668095D01*
X205371428Y-143715714D01*
X205133333Y-143715714D01*
X204942857Y-143668095D01*
X204847619Y-143620476D01*
X204800000Y-143572857D01*
X204752380Y-143477619D01*
X201652380Y-147168095D02*
X200652380Y-147168095D01*
X200652380Y-146930000D01*
X200700000Y-146787142D01*
X200795238Y-146691904D01*
X200890476Y-146644285D01*
X201080952Y-146596666D01*
X201223809Y-146596666D01*
X201414285Y-146644285D01*
X201509523Y-146691904D01*
X201604761Y-146787142D01*
X201652380Y-146930000D01*
X201652380Y-147168095D01*
X200747619Y-146215714D02*
X200700000Y-146168095D01*
X200652380Y-146072857D01*
X200652380Y-145834761D01*
X200700000Y-145739523D01*
X200747619Y-145691904D01*
X200842857Y-145644285D01*
X200938095Y-145644285D01*
X201080952Y-145691904D01*
X201652380Y-146263333D01*
X201652380Y-145644285D01*
X221321428Y-78402380D02*
X221321428Y-79116666D01*
X221273809Y-79259523D01*
X221178571Y-79354761D01*
X221035714Y-79402380D01*
X220940476Y-79402380D01*
X221797619Y-79402380D02*
X221797619Y-78402380D01*
X222130952Y-79116666D01*
X222464285Y-78402380D01*
X222464285Y-79402380D01*
X222940476Y-79402380D02*
X222940476Y-78402380D01*
X223321428Y-78402380D01*
X223416666Y-78450000D01*
X223464285Y-78497619D01*
X223511904Y-78592857D01*
X223511904Y-78735714D01*
X223464285Y-78830952D01*
X223416666Y-78878571D01*
X223321428Y-78926190D01*
X222940476Y-78926190D01*
X221702380Y-82883333D02*
X222416666Y-82883333D01*
X222559523Y-82930952D01*
X222654761Y-83026190D01*
X222702380Y-83169047D01*
X222702380Y-83264285D01*
X222035714Y-81978571D02*
X222702380Y-81978571D01*
X221654761Y-82216666D02*
X222369047Y-82454761D01*
X222369047Y-81835714D01*
X244832142Y-81715714D02*
X244879761Y-81763333D01*
X244927380Y-81906190D01*
X244927380Y-82001428D01*
X244879761Y-82144285D01*
X244784523Y-82239523D01*
X244689285Y-82287142D01*
X244498809Y-82334761D01*
X244355952Y-82334761D01*
X244165476Y-82287142D01*
X244070238Y-82239523D01*
X243975000Y-82144285D01*
X243927380Y-82001428D01*
X243927380Y-81906190D01*
X243975000Y-81763333D01*
X244022619Y-81715714D01*
X244927380Y-81144285D02*
X244879761Y-81239523D01*
X244832142Y-81287142D01*
X244736904Y-81334761D01*
X244451190Y-81334761D01*
X244355952Y-81287142D01*
X244308333Y-81239523D01*
X244260714Y-81144285D01*
X244260714Y-81001428D01*
X244308333Y-80906190D01*
X244355952Y-80858571D01*
X244451190Y-80810952D01*
X244736904Y-80810952D01*
X244832142Y-80858571D01*
X244879761Y-80906190D01*
X244927380Y-81001428D01*
X244927380Y-81144285D01*
X244260714Y-80382380D02*
X244927380Y-80382380D01*
X244355952Y-80382380D02*
X244308333Y-80334761D01*
X244260714Y-80239523D01*
X244260714Y-80096666D01*
X244308333Y-80001428D01*
X244403571Y-79953809D01*
X244927380Y-79953809D01*
X244260714Y-79477619D02*
X244927380Y-79477619D01*
X244355952Y-79477619D02*
X244308333Y-79430000D01*
X244260714Y-79334761D01*
X244260714Y-79191904D01*
X244308333Y-79096666D01*
X244403571Y-79049047D01*
X244927380Y-79049047D01*
X245022619Y-78810952D02*
X245022619Y-78049047D01*
X243927380Y-77620476D02*
X243927380Y-77525238D01*
X243975000Y-77430000D01*
X244022619Y-77382380D01*
X244117857Y-77334761D01*
X244308333Y-77287142D01*
X244546428Y-77287142D01*
X244736904Y-77334761D01*
X244832142Y-77382380D01*
X244879761Y-77430000D01*
X244927380Y-77525238D01*
X244927380Y-77620476D01*
X244879761Y-77715714D01*
X244832142Y-77763333D01*
X244736904Y-77810952D01*
X244546428Y-77858571D01*
X244308333Y-77858571D01*
X244117857Y-77810952D01*
X244022619Y-77763333D01*
X243975000Y-77715714D01*
X243927380Y-77620476D01*
X244927380Y-76334761D02*
X244927380Y-76906190D01*
X244927380Y-76620476D02*
X243927380Y-76620476D01*
X244070238Y-76715714D01*
X244165476Y-76810952D01*
X244213095Y-76906190D01*
X244927380Y-76001428D02*
X244260714Y-75477619D01*
X244260714Y-76001428D02*
X244927380Y-75477619D01*
X243927380Y-74906190D02*
X243927380Y-74810952D01*
X243975000Y-74715714D01*
X244022619Y-74668095D01*
X244117857Y-74620476D01*
X244308333Y-74572857D01*
X244546428Y-74572857D01*
X244736904Y-74620476D01*
X244832142Y-74668095D01*
X244879761Y-74715714D01*
X244927380Y-74810952D01*
X244927380Y-74906190D01*
X244879761Y-75001428D01*
X244832142Y-75049047D01*
X244736904Y-75096666D01*
X244546428Y-75144285D01*
X244308333Y-75144285D01*
X244117857Y-75096666D01*
X244022619Y-75049047D01*
X243975000Y-75001428D01*
X243927380Y-74906190D01*
X243927380Y-73715714D02*
X243927380Y-73906190D01*
X243975000Y-74001428D01*
X244022619Y-74049047D01*
X244165476Y-74144285D01*
X244355952Y-74191904D01*
X244736904Y-74191904D01*
X244832142Y-74144285D01*
X244879761Y-74096666D01*
X244927380Y-74001428D01*
X244927380Y-73810952D01*
X244879761Y-73715714D01*
X244832142Y-73668095D01*
X244736904Y-73620476D01*
X244498809Y-73620476D01*
X244403571Y-73668095D01*
X244355952Y-73715714D01*
X244308333Y-73810952D01*
X244308333Y-74001428D01*
X244355952Y-74096666D01*
X244403571Y-74144285D01*
X244498809Y-74191904D01*
X245022619Y-73430000D02*
X245022619Y-72668095D01*
X244403571Y-72096666D02*
X244403571Y-72430000D01*
X244927380Y-72430000D02*
X243927380Y-72430000D01*
X243927380Y-71953809D01*
X244879761Y-71191904D02*
X244927380Y-71287142D01*
X244927380Y-71477619D01*
X244879761Y-71572857D01*
X244784523Y-71620476D01*
X244403571Y-71620476D01*
X244308333Y-71572857D01*
X244260714Y-71477619D01*
X244260714Y-71287142D01*
X244308333Y-71191904D01*
X244403571Y-71144285D01*
X244498809Y-71144285D01*
X244594047Y-71620476D01*
X244927380Y-70715714D02*
X244260714Y-70715714D01*
X244355952Y-70715714D02*
X244308333Y-70668095D01*
X244260714Y-70572857D01*
X244260714Y-70430000D01*
X244308333Y-70334761D01*
X244403571Y-70287142D01*
X244927380Y-70287142D01*
X244403571Y-70287142D02*
X244308333Y-70239523D01*
X244260714Y-70144285D01*
X244260714Y-70001428D01*
X244308333Y-69906190D01*
X244403571Y-69858571D01*
X244927380Y-69858571D01*
X244927380Y-68953809D02*
X244403571Y-68953809D01*
X244308333Y-69001428D01*
X244260714Y-69096666D01*
X244260714Y-69287142D01*
X244308333Y-69382380D01*
X244879761Y-68953809D02*
X244927380Y-69049047D01*
X244927380Y-69287142D01*
X244879761Y-69382380D01*
X244784523Y-69430000D01*
X244689285Y-69430000D01*
X244594047Y-69382380D01*
X244546428Y-69287142D01*
X244546428Y-69049047D01*
X244498809Y-68953809D01*
X244927380Y-68334761D02*
X244879761Y-68430000D01*
X244784523Y-68477619D01*
X243927380Y-68477619D01*
X244879761Y-67572857D02*
X244927380Y-67668095D01*
X244927380Y-67858571D01*
X244879761Y-67953809D01*
X244784523Y-68001428D01*
X244403571Y-68001428D01*
X244308333Y-67953809D01*
X244260714Y-67858571D01*
X244260714Y-67668095D01*
X244308333Y-67572857D01*
X244403571Y-67525238D01*
X244498809Y-67525238D01*
X244594047Y-68001428D01*
X240752380Y-65738333D02*
X241466666Y-65738333D01*
X241609523Y-65785952D01*
X241704761Y-65881190D01*
X241752380Y-66024047D01*
X241752380Y-66119285D01*
X240752380Y-64785952D02*
X240752380Y-65262142D01*
X241228571Y-65309761D01*
X241180952Y-65262142D01*
X241133333Y-65166904D01*
X241133333Y-64928809D01*
X241180952Y-64833571D01*
X241228571Y-64785952D01*
X241323809Y-64738333D01*
X241561904Y-64738333D01*
X241657142Y-64785952D01*
X241704761Y-64833571D01*
X241752380Y-64928809D01*
X241752380Y-65166904D01*
X241704761Y-65262142D01*
X241657142Y-65309761D01*
X195492619Y-55427142D02*
X195445000Y-55522380D01*
X195349761Y-55617619D01*
X195206904Y-55760476D01*
X195159285Y-55855714D01*
X195159285Y-55950952D01*
X195397380Y-55903333D02*
X195349761Y-55998571D01*
X195254523Y-56093809D01*
X195064047Y-56141428D01*
X194730714Y-56141428D01*
X194540238Y-56093809D01*
X194445000Y-55998571D01*
X194397380Y-55903333D01*
X194397380Y-55712857D01*
X194445000Y-55617619D01*
X194540238Y-55522380D01*
X194730714Y-55474761D01*
X195064047Y-55474761D01*
X195254523Y-55522380D01*
X195349761Y-55617619D01*
X195397380Y-55712857D01*
X195397380Y-55903333D01*
X195492619Y-55284285D02*
X195492619Y-54522380D01*
X195397380Y-54284285D02*
X194397380Y-54284285D01*
X194397380Y-53903333D01*
X194445000Y-53808095D01*
X194492619Y-53760476D01*
X194587857Y-53712857D01*
X194730714Y-53712857D01*
X194825952Y-53760476D01*
X194873571Y-53808095D01*
X194921190Y-53903333D01*
X194921190Y-54284285D01*
X195397380Y-53284285D02*
X194397380Y-53284285D01*
X195397380Y-52712857D01*
X194397380Y-52712857D01*
X195397380Y-52236666D02*
X194397380Y-52236666D01*
X194397380Y-51855714D01*
X194445000Y-51760476D01*
X194492619Y-51712857D01*
X194587857Y-51665238D01*
X194730714Y-51665238D01*
X194825952Y-51712857D01*
X194873571Y-51760476D01*
X194921190Y-51855714D01*
X194921190Y-52236666D01*
X195492619Y-51474761D02*
X195492619Y-50712857D01*
X194873571Y-50141428D02*
X194921190Y-49998571D01*
X194968809Y-49950952D01*
X195064047Y-49903333D01*
X195206904Y-49903333D01*
X195302142Y-49950952D01*
X195349761Y-49998571D01*
X195397380Y-50093809D01*
X195397380Y-50474761D01*
X194397380Y-50474761D01*
X194397380Y-50141428D01*
X194445000Y-50046190D01*
X194492619Y-49998571D01*
X194587857Y-49950952D01*
X194683095Y-49950952D01*
X194778333Y-49998571D01*
X194825952Y-50046190D01*
X194873571Y-50141428D01*
X194873571Y-50474761D01*
X194873571Y-49474761D02*
X194873571Y-49141428D01*
X195397380Y-48998571D02*
X195397380Y-49474761D01*
X194397380Y-49474761D01*
X194397380Y-48998571D01*
X195302142Y-47998571D02*
X195349761Y-48046190D01*
X195397380Y-48189047D01*
X195397380Y-48284285D01*
X195349761Y-48427142D01*
X195254523Y-48522380D01*
X195159285Y-48570000D01*
X194968809Y-48617619D01*
X194825952Y-48617619D01*
X194635476Y-48570000D01*
X194540238Y-48522380D01*
X194445000Y-48427142D01*
X194397380Y-48284285D01*
X194397380Y-48189047D01*
X194445000Y-48046190D01*
X194492619Y-47998571D01*
D13*
X192043809Y-50847619D02*
X192020000Y-50895238D01*
X191972380Y-50942857D01*
X191900952Y-51014285D01*
X191877142Y-51061904D01*
X191877142Y-51109523D01*
X191996190Y-51085714D02*
X191972380Y-51133333D01*
X191924761Y-51180952D01*
X191829523Y-51204761D01*
X191662857Y-51204761D01*
X191567619Y-51180952D01*
X191520000Y-51133333D01*
X191496190Y-51085714D01*
X191496190Y-50990476D01*
X191520000Y-50942857D01*
X191567619Y-50895238D01*
X191662857Y-50871428D01*
X191829523Y-50871428D01*
X191924761Y-50895238D01*
X191972380Y-50942857D01*
X191996190Y-50990476D01*
X191996190Y-51085714D01*
X191996190Y-50395238D02*
X191996190Y-50680952D01*
X191996190Y-50538095D02*
X191496190Y-50538095D01*
X191567619Y-50585714D01*
X191615238Y-50633333D01*
X191639047Y-50680952D01*
D10*
X218527380Y-154185714D02*
X218527380Y-153566666D01*
X218908333Y-153900000D01*
X218908333Y-153757142D01*
X218955952Y-153661904D01*
X219003571Y-153614285D01*
X219098809Y-153566666D01*
X219336904Y-153566666D01*
X219432142Y-153614285D01*
X219479761Y-153661904D01*
X219527380Y-153757142D01*
X219527380Y-154042857D01*
X219479761Y-154138095D01*
X219432142Y-154185714D01*
X218527380Y-152947619D02*
X218527380Y-152852380D01*
X218575000Y-152757142D01*
X218622619Y-152709523D01*
X218717857Y-152661904D01*
X218908333Y-152614285D01*
X219146428Y-152614285D01*
X219336904Y-152661904D01*
X219432142Y-152709523D01*
X219479761Y-152757142D01*
X219527380Y-152852380D01*
X219527380Y-152947619D01*
X219479761Y-153042857D01*
X219432142Y-153090476D01*
X219336904Y-153138095D01*
X219146428Y-153185714D01*
X218908333Y-153185714D01*
X218717857Y-153138095D01*
X218622619Y-153090476D01*
X218575000Y-153042857D01*
X218527380Y-152947619D01*
X218527380Y-151995238D02*
X218527380Y-151900000D01*
X218575000Y-151804761D01*
X218622619Y-151757142D01*
X218717857Y-151709523D01*
X218908333Y-151661904D01*
X219146428Y-151661904D01*
X219336904Y-151709523D01*
X219432142Y-151757142D01*
X219479761Y-151804761D01*
X219527380Y-151900000D01*
X219527380Y-151995238D01*
X219479761Y-152090476D01*
X219432142Y-152138095D01*
X219336904Y-152185714D01*
X219146428Y-152233333D01*
X218908333Y-152233333D01*
X218717857Y-152185714D01*
X218622619Y-152138095D01*
X218575000Y-152090476D01*
X218527380Y-151995238D01*
X219527380Y-151233333D02*
X218527380Y-151233333D01*
X219527380Y-150661904D02*
X218955952Y-151090476D01*
X218527380Y-150661904D02*
X219098809Y-151233333D01*
D15*
X217396190Y-150245833D02*
X217158095Y-150412500D01*
X217396190Y-150531547D02*
X216896190Y-150531547D01*
X216896190Y-150341071D01*
X216920000Y-150293452D01*
X216943809Y-150269642D01*
X216991428Y-150245833D01*
X217062857Y-150245833D01*
X217110476Y-150269642D01*
X217134285Y-150293452D01*
X217158095Y-150341071D01*
X217158095Y-150531547D01*
X217396190Y-149769642D02*
X217396190Y-150055357D01*
X217396190Y-149912500D02*
X216896190Y-149912500D01*
X216967619Y-149960119D01*
X217015238Y-150007738D01*
X217039047Y-150055357D01*
D10*
X210367619Y-67936904D02*
X210320000Y-67889285D01*
X210272380Y-67794047D01*
X210272380Y-67555952D01*
X210320000Y-67460714D01*
X210367619Y-67413095D01*
X210462857Y-67365476D01*
X210558095Y-67365476D01*
X210700952Y-67413095D01*
X211272380Y-67984523D01*
X211272380Y-67365476D01*
X211272380Y-66936904D02*
X210272380Y-66936904D01*
X211272380Y-66365476D02*
X210700952Y-66794047D01*
X210272380Y-66365476D02*
X210843809Y-66936904D01*
X210367619Y-65984523D02*
X210320000Y-65936904D01*
X210272380Y-65841666D01*
X210272380Y-65603571D01*
X210320000Y-65508333D01*
X210367619Y-65460714D01*
X210462857Y-65413095D01*
X210558095Y-65413095D01*
X210700952Y-65460714D01*
X211272380Y-66032142D01*
X211272380Y-65413095D01*
D15*
X213831190Y-66123333D02*
X213593095Y-66290000D01*
X213831190Y-66409047D02*
X213331190Y-66409047D01*
X213331190Y-66218571D01*
X213355000Y-66170952D01*
X213378809Y-66147142D01*
X213426428Y-66123333D01*
X213497857Y-66123333D01*
X213545476Y-66147142D01*
X213569285Y-66170952D01*
X213593095Y-66218571D01*
X213593095Y-66409047D01*
X213378809Y-65932857D02*
X213355000Y-65909047D01*
X213331190Y-65861428D01*
X213331190Y-65742380D01*
X213355000Y-65694761D01*
X213378809Y-65670952D01*
X213426428Y-65647142D01*
X213474047Y-65647142D01*
X213545476Y-65670952D01*
X213831190Y-65956666D01*
X213831190Y-65647142D01*
D10*
X213152619Y-50791904D02*
X213105000Y-50744285D01*
X213057380Y-50649047D01*
X213057380Y-50410952D01*
X213105000Y-50315714D01*
X213152619Y-50268095D01*
X213247857Y-50220476D01*
X213343095Y-50220476D01*
X213485952Y-50268095D01*
X214057380Y-50839523D01*
X214057380Y-50220476D01*
X214057380Y-49791904D02*
X213057380Y-49791904D01*
X214057380Y-49220476D02*
X213485952Y-49649047D01*
X213057380Y-49220476D02*
X213628809Y-49791904D01*
X213152619Y-48839523D02*
X213105000Y-48791904D01*
X213057380Y-48696666D01*
X213057380Y-48458571D01*
X213105000Y-48363333D01*
X213152619Y-48315714D01*
X213247857Y-48268095D01*
X213343095Y-48268095D01*
X213485952Y-48315714D01*
X214057380Y-48887142D01*
X214057380Y-48268095D01*
D15*
X213831190Y-52153333D02*
X213593095Y-52320000D01*
X213831190Y-52439047D02*
X213331190Y-52439047D01*
X213331190Y-52248571D01*
X213355000Y-52200952D01*
X213378809Y-52177142D01*
X213426428Y-52153333D01*
X213497857Y-52153333D01*
X213545476Y-52177142D01*
X213569285Y-52200952D01*
X213593095Y-52248571D01*
X213593095Y-52439047D01*
X213331190Y-51986666D02*
X213331190Y-51677142D01*
X213521666Y-51843809D01*
X213521666Y-51772380D01*
X213545476Y-51724761D01*
X213569285Y-51700952D01*
X213616904Y-51677142D01*
X213735952Y-51677142D01*
X213783571Y-51700952D01*
X213807380Y-51724761D01*
X213831190Y-51772380D01*
X213831190Y-51915238D01*
X213807380Y-51962857D01*
X213783571Y-51986666D01*
D10*
X218622619Y-69841904D02*
X218575000Y-69794285D01*
X218527380Y-69699047D01*
X218527380Y-69460952D01*
X218575000Y-69365714D01*
X218622619Y-69318095D01*
X218717857Y-69270476D01*
X218813095Y-69270476D01*
X218955952Y-69318095D01*
X219527380Y-69889523D01*
X219527380Y-69270476D01*
X219527380Y-68841904D02*
X218527380Y-68841904D01*
X219527380Y-68270476D02*
X218955952Y-68699047D01*
X218527380Y-68270476D02*
X219098809Y-68841904D01*
X218622619Y-67889523D02*
X218575000Y-67841904D01*
X218527380Y-67746666D01*
X218527380Y-67508571D01*
X218575000Y-67413333D01*
X218622619Y-67365714D01*
X218717857Y-67318095D01*
X218813095Y-67318095D01*
X218955952Y-67365714D01*
X219527380Y-67937142D01*
X219527380Y-67318095D01*
D15*
X217786190Y-66123333D02*
X217548095Y-66290000D01*
X217786190Y-66409047D02*
X217286190Y-66409047D01*
X217286190Y-66218571D01*
X217310000Y-66170952D01*
X217333809Y-66147142D01*
X217381428Y-66123333D01*
X217452857Y-66123333D01*
X217500476Y-66147142D01*
X217524285Y-66170952D01*
X217548095Y-66218571D01*
X217548095Y-66409047D01*
X217452857Y-65694761D02*
X217786190Y-65694761D01*
X217262380Y-65813809D02*
X217619523Y-65932857D01*
X217619523Y-65623333D01*
D10*
X223067619Y-62611904D02*
X223020000Y-62564285D01*
X222972380Y-62469047D01*
X222972380Y-62230952D01*
X223020000Y-62135714D01*
X223067619Y-62088095D01*
X223162857Y-62040476D01*
X223258095Y-62040476D01*
X223400952Y-62088095D01*
X223972380Y-62659523D01*
X223972380Y-62040476D01*
X223972380Y-61611904D02*
X222972380Y-61611904D01*
X223972380Y-61040476D02*
X223400952Y-61469047D01*
X222972380Y-61040476D02*
X223543809Y-61611904D01*
X223067619Y-60659523D02*
X223020000Y-60611904D01*
X222972380Y-60516666D01*
X222972380Y-60278571D01*
X223020000Y-60183333D01*
X223067619Y-60135714D01*
X223162857Y-60088095D01*
X223258095Y-60088095D01*
X223400952Y-60135714D01*
X223972380Y-60707142D01*
X223972380Y-60088095D01*
D15*
X221841190Y-61433333D02*
X221603095Y-61600000D01*
X221841190Y-61719047D02*
X221341190Y-61719047D01*
X221341190Y-61528571D01*
X221365000Y-61480952D01*
X221388809Y-61457142D01*
X221436428Y-61433333D01*
X221507857Y-61433333D01*
X221555476Y-61457142D01*
X221579285Y-61480952D01*
X221603095Y-61528571D01*
X221603095Y-61719047D01*
X221341190Y-60980952D02*
X221341190Y-61219047D01*
X221579285Y-61242857D01*
X221555476Y-61219047D01*
X221531666Y-61171428D01*
X221531666Y-61052380D01*
X221555476Y-61004761D01*
X221579285Y-60980952D01*
X221626904Y-60957142D01*
X221745952Y-60957142D01*
X221793571Y-60980952D01*
X221817380Y-61004761D01*
X221841190Y-61052380D01*
X221841190Y-61171428D01*
X221817380Y-61219047D01*
X221793571Y-61242857D01*
D10*
X211272380Y-64031666D02*
X211272380Y-64603095D01*
X211272380Y-64317380D02*
X210272380Y-64317380D01*
X210415238Y-64412619D01*
X210510476Y-64507857D01*
X210558095Y-64603095D01*
X210272380Y-63412619D02*
X210272380Y-63317380D01*
X210320000Y-63222142D01*
X210367619Y-63174523D01*
X210462857Y-63126904D01*
X210653333Y-63079285D01*
X210891428Y-63079285D01*
X211081904Y-63126904D01*
X211177142Y-63174523D01*
X211224761Y-63222142D01*
X211272380Y-63317380D01*
X211272380Y-63412619D01*
X211224761Y-63507857D01*
X211177142Y-63555476D01*
X211081904Y-63603095D01*
X210891428Y-63650714D01*
X210653333Y-63650714D01*
X210462857Y-63603095D01*
X210367619Y-63555476D01*
X210320000Y-63507857D01*
X210272380Y-63412619D01*
X210272380Y-62460238D02*
X210272380Y-62365000D01*
X210320000Y-62269761D01*
X210367619Y-62222142D01*
X210462857Y-62174523D01*
X210653333Y-62126904D01*
X210891428Y-62126904D01*
X211081904Y-62174523D01*
X211177142Y-62222142D01*
X211224761Y-62269761D01*
X211272380Y-62365000D01*
X211272380Y-62460238D01*
X211224761Y-62555476D01*
X211177142Y-62603095D01*
X211081904Y-62650714D01*
X210891428Y-62698333D01*
X210653333Y-62698333D01*
X210462857Y-62650714D01*
X210367619Y-62603095D01*
X210320000Y-62555476D01*
X210272380Y-62460238D01*
X211272380Y-61698333D02*
X210272380Y-61698333D01*
X211272380Y-61126904D02*
X210700952Y-61555476D01*
X210272380Y-61126904D02*
X210843809Y-61698333D01*
D15*
X213831190Y-63583333D02*
X213593095Y-63750000D01*
X213831190Y-63869047D02*
X213331190Y-63869047D01*
X213331190Y-63678571D01*
X213355000Y-63630952D01*
X213378809Y-63607142D01*
X213426428Y-63583333D01*
X213497857Y-63583333D01*
X213545476Y-63607142D01*
X213569285Y-63630952D01*
X213593095Y-63678571D01*
X213593095Y-63869047D01*
X213331190Y-63154761D02*
X213331190Y-63250000D01*
X213355000Y-63297619D01*
X213378809Y-63321428D01*
X213450238Y-63369047D01*
X213545476Y-63392857D01*
X213735952Y-63392857D01*
X213783571Y-63369047D01*
X213807380Y-63345238D01*
X213831190Y-63297619D01*
X213831190Y-63202380D01*
X213807380Y-63154761D01*
X213783571Y-63130952D01*
X213735952Y-63107142D01*
X213616904Y-63107142D01*
X213569285Y-63130952D01*
X213545476Y-63154761D01*
X213521666Y-63202380D01*
X213521666Y-63297619D01*
X213545476Y-63345238D01*
X213569285Y-63369047D01*
X213616904Y-63392857D01*
D10*
X221432380Y-66571666D02*
X221432380Y-67143095D01*
X221432380Y-66857380D02*
X220432380Y-66857380D01*
X220575238Y-66952619D01*
X220670476Y-67047857D01*
X220718095Y-67143095D01*
X220432380Y-65952619D02*
X220432380Y-65857380D01*
X220480000Y-65762142D01*
X220527619Y-65714523D01*
X220622857Y-65666904D01*
X220813333Y-65619285D01*
X221051428Y-65619285D01*
X221241904Y-65666904D01*
X221337142Y-65714523D01*
X221384761Y-65762142D01*
X221432380Y-65857380D01*
X221432380Y-65952619D01*
X221384761Y-66047857D01*
X221337142Y-66095476D01*
X221241904Y-66143095D01*
X221051428Y-66190714D01*
X220813333Y-66190714D01*
X220622857Y-66143095D01*
X220527619Y-66095476D01*
X220480000Y-66047857D01*
X220432380Y-65952619D01*
X220432380Y-65000238D02*
X220432380Y-64905000D01*
X220480000Y-64809761D01*
X220527619Y-64762142D01*
X220622857Y-64714523D01*
X220813333Y-64666904D01*
X221051428Y-64666904D01*
X221241904Y-64714523D01*
X221337142Y-64762142D01*
X221384761Y-64809761D01*
X221432380Y-64905000D01*
X221432380Y-65000238D01*
X221384761Y-65095476D01*
X221337142Y-65143095D01*
X221241904Y-65190714D01*
X221051428Y-65238333D01*
X220813333Y-65238333D01*
X220622857Y-65190714D01*
X220527619Y-65143095D01*
X220480000Y-65095476D01*
X220432380Y-65000238D01*
X221432380Y-64238333D02*
X220432380Y-64238333D01*
X221432380Y-63666904D02*
X220860952Y-64095476D01*
X220432380Y-63666904D02*
X221003809Y-64238333D01*
D15*
X217786190Y-63583333D02*
X217548095Y-63750000D01*
X217786190Y-63869047D02*
X217286190Y-63869047D01*
X217286190Y-63678571D01*
X217310000Y-63630952D01*
X217333809Y-63607142D01*
X217381428Y-63583333D01*
X217452857Y-63583333D01*
X217500476Y-63607142D01*
X217524285Y-63630952D01*
X217548095Y-63678571D01*
X217548095Y-63869047D01*
X217286190Y-63416666D02*
X217286190Y-63083333D01*
X217786190Y-63297619D01*
D10*
X211272380Y-56411666D02*
X211272380Y-56983095D01*
X211272380Y-56697380D02*
X210272380Y-56697380D01*
X210415238Y-56792619D01*
X210510476Y-56887857D01*
X210558095Y-56983095D01*
X210272380Y-55792619D02*
X210272380Y-55697380D01*
X210320000Y-55602142D01*
X210367619Y-55554523D01*
X210462857Y-55506904D01*
X210653333Y-55459285D01*
X210891428Y-55459285D01*
X211081904Y-55506904D01*
X211177142Y-55554523D01*
X211224761Y-55602142D01*
X211272380Y-55697380D01*
X211272380Y-55792619D01*
X211224761Y-55887857D01*
X211177142Y-55935476D01*
X211081904Y-55983095D01*
X210891428Y-56030714D01*
X210653333Y-56030714D01*
X210462857Y-55983095D01*
X210367619Y-55935476D01*
X210320000Y-55887857D01*
X210272380Y-55792619D01*
X210272380Y-54840238D02*
X210272380Y-54745000D01*
X210320000Y-54649761D01*
X210367619Y-54602142D01*
X210462857Y-54554523D01*
X210653333Y-54506904D01*
X210891428Y-54506904D01*
X211081904Y-54554523D01*
X211177142Y-54602142D01*
X211224761Y-54649761D01*
X211272380Y-54745000D01*
X211272380Y-54840238D01*
X211224761Y-54935476D01*
X211177142Y-54983095D01*
X211081904Y-55030714D01*
X210891428Y-55078333D01*
X210653333Y-55078333D01*
X210462857Y-55030714D01*
X210367619Y-54983095D01*
X210320000Y-54935476D01*
X210272380Y-54840238D01*
X211272380Y-54078333D02*
X210272380Y-54078333D01*
X211272380Y-53506904D02*
X210700952Y-53935476D01*
X210272380Y-53506904D02*
X210843809Y-54078333D01*
D15*
X213831190Y-54448333D02*
X213593095Y-54615000D01*
X213831190Y-54734047D02*
X213331190Y-54734047D01*
X213331190Y-54543571D01*
X213355000Y-54495952D01*
X213378809Y-54472142D01*
X213426428Y-54448333D01*
X213497857Y-54448333D01*
X213545476Y-54472142D01*
X213569285Y-54495952D01*
X213593095Y-54543571D01*
X213593095Y-54734047D01*
X213545476Y-54162619D02*
X213521666Y-54210238D01*
X213497857Y-54234047D01*
X213450238Y-54257857D01*
X213426428Y-54257857D01*
X213378809Y-54234047D01*
X213355000Y-54210238D01*
X213331190Y-54162619D01*
X213331190Y-54067380D01*
X213355000Y-54019761D01*
X213378809Y-53995952D01*
X213426428Y-53972142D01*
X213450238Y-53972142D01*
X213497857Y-53995952D01*
X213521666Y-54019761D01*
X213545476Y-54067380D01*
X213545476Y-54162619D01*
X213569285Y-54210238D01*
X213593095Y-54234047D01*
X213640714Y-54257857D01*
X213735952Y-54257857D01*
X213783571Y-54234047D01*
X213807380Y-54210238D01*
X213831190Y-54162619D01*
X213831190Y-54067380D01*
X213807380Y-54019761D01*
X213783571Y-53995952D01*
X213735952Y-53972142D01*
X213640714Y-53972142D01*
X213593095Y-53995952D01*
X213569285Y-54019761D01*
X213545476Y-54067380D01*
D10*
X223972380Y-58316666D02*
X223972380Y-58888095D01*
X223972380Y-58602380D02*
X222972380Y-58602380D01*
X223115238Y-58697619D01*
X223210476Y-58792857D01*
X223258095Y-58888095D01*
X222972380Y-57697619D02*
X222972380Y-57602380D01*
X223020000Y-57507142D01*
X223067619Y-57459523D01*
X223162857Y-57411904D01*
X223353333Y-57364285D01*
X223591428Y-57364285D01*
X223781904Y-57411904D01*
X223877142Y-57459523D01*
X223924761Y-57507142D01*
X223972380Y-57602380D01*
X223972380Y-57697619D01*
X223924761Y-57792857D01*
X223877142Y-57840476D01*
X223781904Y-57888095D01*
X223591428Y-57935714D01*
X223353333Y-57935714D01*
X223162857Y-57888095D01*
X223067619Y-57840476D01*
X223020000Y-57792857D01*
X222972380Y-57697619D01*
X222972380Y-56745238D02*
X222972380Y-56650000D01*
X223020000Y-56554761D01*
X223067619Y-56507142D01*
X223162857Y-56459523D01*
X223353333Y-56411904D01*
X223591428Y-56411904D01*
X223781904Y-56459523D01*
X223877142Y-56507142D01*
X223924761Y-56554761D01*
X223972380Y-56650000D01*
X223972380Y-56745238D01*
X223924761Y-56840476D01*
X223877142Y-56888095D01*
X223781904Y-56935714D01*
X223591428Y-56983333D01*
X223353333Y-56983333D01*
X223162857Y-56935714D01*
X223067619Y-56888095D01*
X223020000Y-56840476D01*
X222972380Y-56745238D01*
X223972380Y-55983333D02*
X222972380Y-55983333D01*
X223972380Y-55411904D02*
X223400952Y-55840476D01*
X222972380Y-55411904D02*
X223543809Y-55983333D01*
D15*
X221841190Y-57623333D02*
X221603095Y-57790000D01*
X221841190Y-57909047D02*
X221341190Y-57909047D01*
X221341190Y-57718571D01*
X221365000Y-57670952D01*
X221388809Y-57647142D01*
X221436428Y-57623333D01*
X221507857Y-57623333D01*
X221555476Y-57647142D01*
X221579285Y-57670952D01*
X221603095Y-57718571D01*
X221603095Y-57909047D01*
X221841190Y-57385238D02*
X221841190Y-57290000D01*
X221817380Y-57242380D01*
X221793571Y-57218571D01*
X221722142Y-57170952D01*
X221626904Y-57147142D01*
X221436428Y-57147142D01*
X221388809Y-57170952D01*
X221365000Y-57194761D01*
X221341190Y-57242380D01*
X221341190Y-57337619D01*
X221365000Y-57385238D01*
X221388809Y-57409047D01*
X221436428Y-57432857D01*
X221555476Y-57432857D01*
X221603095Y-57409047D01*
X221626904Y-57385238D01*
X221650714Y-57337619D01*
X221650714Y-57242380D01*
X221626904Y-57194761D01*
X221603095Y-57170952D01*
X221555476Y-57147142D01*
D10*
X216622380Y-82565714D02*
X216622380Y-81946666D01*
X217003333Y-82280000D01*
X217003333Y-82137142D01*
X217050952Y-82041904D01*
X217098571Y-81994285D01*
X217193809Y-81946666D01*
X217431904Y-81946666D01*
X217527142Y-81994285D01*
X217574761Y-82041904D01*
X217622380Y-82137142D01*
X217622380Y-82422857D01*
X217574761Y-82518095D01*
X217527142Y-82565714D01*
X216622380Y-81327619D02*
X216622380Y-81232380D01*
X216670000Y-81137142D01*
X216717619Y-81089523D01*
X216812857Y-81041904D01*
X217003333Y-80994285D01*
X217241428Y-80994285D01*
X217431904Y-81041904D01*
X217527142Y-81089523D01*
X217574761Y-81137142D01*
X217622380Y-81232380D01*
X217622380Y-81327619D01*
X217574761Y-81422857D01*
X217527142Y-81470476D01*
X217431904Y-81518095D01*
X217241428Y-81565714D01*
X217003333Y-81565714D01*
X216812857Y-81518095D01*
X216717619Y-81470476D01*
X216670000Y-81422857D01*
X216622380Y-81327619D01*
X216622380Y-80375238D02*
X216622380Y-80280000D01*
X216670000Y-80184761D01*
X216717619Y-80137142D01*
X216812857Y-80089523D01*
X217003333Y-80041904D01*
X217241428Y-80041904D01*
X217431904Y-80089523D01*
X217527142Y-80137142D01*
X217574761Y-80184761D01*
X217622380Y-80280000D01*
X217622380Y-80375238D01*
X217574761Y-80470476D01*
X217527142Y-80518095D01*
X217431904Y-80565714D01*
X217241428Y-80613333D01*
X217003333Y-80613333D01*
X216812857Y-80565714D01*
X216717619Y-80518095D01*
X216670000Y-80470476D01*
X216622380Y-80375238D01*
D15*
X215491190Y-81601428D02*
X215253095Y-81768095D01*
X215491190Y-81887142D02*
X214991190Y-81887142D01*
X214991190Y-81696666D01*
X215015000Y-81649047D01*
X215038809Y-81625238D01*
X215086428Y-81601428D01*
X215157857Y-81601428D01*
X215205476Y-81625238D01*
X215229285Y-81649047D01*
X215253095Y-81696666D01*
X215253095Y-81887142D01*
X215491190Y-81125238D02*
X215491190Y-81410952D01*
X215491190Y-81268095D02*
X214991190Y-81268095D01*
X215062619Y-81315714D01*
X215110238Y-81363333D01*
X215134047Y-81410952D01*
X214991190Y-80815714D02*
X214991190Y-80768095D01*
X215015000Y-80720476D01*
X215038809Y-80696666D01*
X215086428Y-80672857D01*
X215181666Y-80649047D01*
X215300714Y-80649047D01*
X215395952Y-80672857D01*
X215443571Y-80696666D01*
X215467380Y-80720476D01*
X215491190Y-80768095D01*
X215491190Y-80815714D01*
X215467380Y-80863333D01*
X215443571Y-80887142D01*
X215395952Y-80910952D01*
X215300714Y-80934761D01*
X215181666Y-80934761D01*
X215086428Y-80910952D01*
X215038809Y-80887142D01*
X215015000Y-80863333D01*
X214991190Y-80815714D01*
D10*
X215591380Y-87050476D02*
X215591380Y-87621904D01*
X215591380Y-87336190D02*
X214591380Y-87336190D01*
X214734238Y-87431428D01*
X214829476Y-87526666D01*
X214877095Y-87621904D01*
X214591380Y-86431428D02*
X214591380Y-86336190D01*
X214639000Y-86240952D01*
X214686619Y-86193333D01*
X214781857Y-86145714D01*
X214972333Y-86098095D01*
X215210428Y-86098095D01*
X215400904Y-86145714D01*
X215496142Y-86193333D01*
X215543761Y-86240952D01*
X215591380Y-86336190D01*
X215591380Y-86431428D01*
X215543761Y-86526666D01*
X215496142Y-86574285D01*
X215400904Y-86621904D01*
X215210428Y-86669523D01*
X214972333Y-86669523D01*
X214781857Y-86621904D01*
X214686619Y-86574285D01*
X214639000Y-86526666D01*
X214591380Y-86431428D01*
X215591380Y-85669523D02*
X214591380Y-85669523D01*
X215591380Y-85098095D02*
X215019952Y-85526666D01*
X214591380Y-85098095D02*
X215162809Y-85669523D01*
D15*
X217015190Y-85840928D02*
X216777095Y-86007595D01*
X217015190Y-86126642D02*
X216515190Y-86126642D01*
X216515190Y-85936166D01*
X216539000Y-85888547D01*
X216562809Y-85864738D01*
X216610428Y-85840928D01*
X216681857Y-85840928D01*
X216729476Y-85864738D01*
X216753285Y-85888547D01*
X216777095Y-85936166D01*
X216777095Y-86126642D01*
X217015190Y-85364738D02*
X217015190Y-85650452D01*
X217015190Y-85507595D02*
X216515190Y-85507595D01*
X216586619Y-85555214D01*
X216634238Y-85602833D01*
X216658047Y-85650452D01*
X217015190Y-84888547D02*
X217015190Y-85174261D01*
X217015190Y-85031404D02*
X216515190Y-85031404D01*
X216586619Y-85079023D01*
X216634238Y-85126642D01*
X216658047Y-85174261D01*
D10*
X190308380Y-59110476D02*
X190308380Y-59681904D01*
X190308380Y-59396190D02*
X189308380Y-59396190D01*
X189451238Y-59491428D01*
X189546476Y-59586666D01*
X189594095Y-59681904D01*
X189736952Y-58539047D02*
X189689333Y-58634285D01*
X189641714Y-58681904D01*
X189546476Y-58729523D01*
X189498857Y-58729523D01*
X189403619Y-58681904D01*
X189356000Y-58634285D01*
X189308380Y-58539047D01*
X189308380Y-58348571D01*
X189356000Y-58253333D01*
X189403619Y-58205714D01*
X189498857Y-58158095D01*
X189546476Y-58158095D01*
X189641714Y-58205714D01*
X189689333Y-58253333D01*
X189736952Y-58348571D01*
X189736952Y-58539047D01*
X189784571Y-58634285D01*
X189832190Y-58681904D01*
X189927428Y-58729523D01*
X190117904Y-58729523D01*
X190213142Y-58681904D01*
X190260761Y-58634285D01*
X190308380Y-58539047D01*
X190308380Y-58348571D01*
X190260761Y-58253333D01*
X190213142Y-58205714D01*
X190117904Y-58158095D01*
X189927428Y-58158095D01*
X189832190Y-58205714D01*
X189784571Y-58253333D01*
X189736952Y-58348571D01*
X190308380Y-57729523D02*
X189308380Y-57729523D01*
X190308380Y-57158095D02*
X189736952Y-57586666D01*
X189308380Y-57158095D02*
X189879809Y-57729523D01*
D15*
X190082190Y-55693428D02*
X189844095Y-55860095D01*
X190082190Y-55979142D02*
X189582190Y-55979142D01*
X189582190Y-55788666D01*
X189606000Y-55741047D01*
X189629809Y-55717238D01*
X189677428Y-55693428D01*
X189748857Y-55693428D01*
X189796476Y-55717238D01*
X189820285Y-55741047D01*
X189844095Y-55788666D01*
X189844095Y-55979142D01*
X190082190Y-55217238D02*
X190082190Y-55502952D01*
X190082190Y-55360095D02*
X189582190Y-55360095D01*
X189653619Y-55407714D01*
X189701238Y-55455333D01*
X189725047Y-55502952D01*
X189629809Y-55026761D02*
X189606000Y-55002952D01*
X189582190Y-54955333D01*
X189582190Y-54836285D01*
X189606000Y-54788666D01*
X189629809Y-54764857D01*
X189677428Y-54741047D01*
X189725047Y-54741047D01*
X189796476Y-54764857D01*
X190082190Y-55050571D01*
X190082190Y-54741047D01*
D10*
X186142380Y-47172380D02*
X186142380Y-47077142D01*
X186190000Y-46981904D01*
X186237619Y-46934285D01*
X186332857Y-46886666D01*
X186523333Y-46839047D01*
X186761428Y-46839047D01*
X186951904Y-46886666D01*
X187047142Y-46934285D01*
X187094761Y-46981904D01*
X187142380Y-47077142D01*
X187142380Y-47172380D01*
X187094761Y-47267619D01*
X187047142Y-47315238D01*
X186951904Y-47362857D01*
X186761428Y-47410476D01*
X186523333Y-47410476D01*
X186332857Y-47362857D01*
X186237619Y-47315238D01*
X186190000Y-47267619D01*
X186142380Y-47172380D01*
X187142380Y-45648571D02*
X186142380Y-45648571D01*
X187142380Y-45077142D01*
X186142380Y-45077142D01*
X187047142Y-44029523D02*
X187094761Y-44077142D01*
X187142380Y-44220000D01*
X187142380Y-44315238D01*
X187094761Y-44458095D01*
X186999523Y-44553333D01*
X186904285Y-44600952D01*
X186713809Y-44648571D01*
X186570952Y-44648571D01*
X186380476Y-44600952D01*
X186285238Y-44553333D01*
X186190000Y-44458095D01*
X186142380Y-44315238D01*
X186142380Y-44220000D01*
X186190000Y-44077142D01*
X186237619Y-44029523D01*
D15*
X188186190Y-50604428D02*
X187948095Y-50771095D01*
X188186190Y-50890142D02*
X187686190Y-50890142D01*
X187686190Y-50699666D01*
X187710000Y-50652047D01*
X187733809Y-50628238D01*
X187781428Y-50604428D01*
X187852857Y-50604428D01*
X187900476Y-50628238D01*
X187924285Y-50652047D01*
X187948095Y-50699666D01*
X187948095Y-50890142D01*
X188186190Y-50128238D02*
X188186190Y-50413952D01*
X188186190Y-50271095D02*
X187686190Y-50271095D01*
X187757619Y-50318714D01*
X187805238Y-50366333D01*
X187829047Y-50413952D01*
X187686190Y-49961571D02*
X187686190Y-49652047D01*
X187876666Y-49818714D01*
X187876666Y-49747285D01*
X187900476Y-49699666D01*
X187924285Y-49675857D01*
X187971904Y-49652047D01*
X188090952Y-49652047D01*
X188138571Y-49675857D01*
X188162380Y-49699666D01*
X188186190Y-49747285D01*
X188186190Y-49890142D01*
X188162380Y-49937761D01*
X188138571Y-49961571D01*
D10*
X221162619Y-145883095D02*
X221115000Y-145835476D01*
X221067380Y-145740238D01*
X221067380Y-145502142D01*
X221115000Y-145406904D01*
X221162619Y-145359285D01*
X221257857Y-145311666D01*
X221353095Y-145311666D01*
X221495952Y-145359285D01*
X222067380Y-145930714D01*
X222067380Y-145311666D01*
X221067380Y-144692619D02*
X221067380Y-144597380D01*
X221115000Y-144502142D01*
X221162619Y-144454523D01*
X221257857Y-144406904D01*
X221448333Y-144359285D01*
X221686428Y-144359285D01*
X221876904Y-144406904D01*
X221972142Y-144454523D01*
X222019761Y-144502142D01*
X222067380Y-144597380D01*
X222067380Y-144692619D01*
X222019761Y-144787857D01*
X221972142Y-144835476D01*
X221876904Y-144883095D01*
X221686428Y-144930714D01*
X221448333Y-144930714D01*
X221257857Y-144883095D01*
X221162619Y-144835476D01*
X221115000Y-144787857D01*
X221067380Y-144692619D01*
X221067380Y-143740238D02*
X221067380Y-143645000D01*
X221115000Y-143549761D01*
X221162619Y-143502142D01*
X221257857Y-143454523D01*
X221448333Y-143406904D01*
X221686428Y-143406904D01*
X221876904Y-143454523D01*
X221972142Y-143502142D01*
X222019761Y-143549761D01*
X222067380Y-143645000D01*
X222067380Y-143740238D01*
X222019761Y-143835476D01*
X221972142Y-143883095D01*
X221876904Y-143930714D01*
X221686428Y-143978333D01*
X221448333Y-143978333D01*
X221257857Y-143930714D01*
X221162619Y-143883095D01*
X221115000Y-143835476D01*
X221067380Y-143740238D01*
X222067380Y-142978333D02*
X221067380Y-142978333D01*
X222067380Y-142406904D02*
X221495952Y-142835476D01*
X221067380Y-142406904D02*
X221638809Y-142978333D01*
D15*
X219555190Y-144475428D02*
X219317095Y-144642095D01*
X219555190Y-144761142D02*
X219055190Y-144761142D01*
X219055190Y-144570666D01*
X219079000Y-144523047D01*
X219102809Y-144499238D01*
X219150428Y-144475428D01*
X219221857Y-144475428D01*
X219269476Y-144499238D01*
X219293285Y-144523047D01*
X219317095Y-144570666D01*
X219317095Y-144761142D01*
X219555190Y-143999238D02*
X219555190Y-144284952D01*
X219555190Y-144142095D02*
X219055190Y-144142095D01*
X219126619Y-144189714D01*
X219174238Y-144237333D01*
X219198047Y-144284952D01*
X219221857Y-143570666D02*
X219555190Y-143570666D01*
X219031380Y-143689714D02*
X219388523Y-143808761D01*
X219388523Y-143499238D01*
D10*
X220432380Y-149343904D02*
X220432380Y-149534380D01*
X220480000Y-149629619D01*
X220527619Y-149677238D01*
X220670476Y-149772476D01*
X220860952Y-149820095D01*
X221241904Y-149820095D01*
X221337142Y-149772476D01*
X221384761Y-149724857D01*
X221432380Y-149629619D01*
X221432380Y-149439142D01*
X221384761Y-149343904D01*
X221337142Y-149296285D01*
X221241904Y-149248666D01*
X221003809Y-149248666D01*
X220908571Y-149296285D01*
X220860952Y-149343904D01*
X220813333Y-149439142D01*
X220813333Y-149629619D01*
X220860952Y-149724857D01*
X220908571Y-149772476D01*
X221003809Y-149820095D01*
X220432380Y-148629619D02*
X220432380Y-148534380D01*
X220480000Y-148439142D01*
X220527619Y-148391523D01*
X220622857Y-148343904D01*
X220813333Y-148296285D01*
X221051428Y-148296285D01*
X221241904Y-148343904D01*
X221337142Y-148391523D01*
X221384761Y-148439142D01*
X221432380Y-148534380D01*
X221432380Y-148629619D01*
X221384761Y-148724857D01*
X221337142Y-148772476D01*
X221241904Y-148820095D01*
X221051428Y-148867714D01*
X220813333Y-148867714D01*
X220622857Y-148820095D01*
X220527619Y-148772476D01*
X220480000Y-148724857D01*
X220432380Y-148629619D01*
X220432380Y-147677238D02*
X220432380Y-147582000D01*
X220480000Y-147486761D01*
X220527619Y-147439142D01*
X220622857Y-147391523D01*
X220813333Y-147343904D01*
X221051428Y-147343904D01*
X221241904Y-147391523D01*
X221337142Y-147439142D01*
X221384761Y-147486761D01*
X221432380Y-147582000D01*
X221432380Y-147677238D01*
X221384761Y-147772476D01*
X221337142Y-147820095D01*
X221241904Y-147867714D01*
X221051428Y-147915333D01*
X220813333Y-147915333D01*
X220622857Y-147867714D01*
X220527619Y-147820095D01*
X220480000Y-147772476D01*
X220432380Y-147677238D01*
X221432380Y-146915333D02*
X220432380Y-146915333D01*
X221432380Y-146343904D02*
X220860952Y-146772476D01*
X220432380Y-146343904D02*
X221003809Y-146915333D01*
D15*
X219555190Y-148403428D02*
X219317095Y-148570095D01*
X219555190Y-148689142D02*
X219055190Y-148689142D01*
X219055190Y-148498666D01*
X219079000Y-148451047D01*
X219102809Y-148427238D01*
X219150428Y-148403428D01*
X219221857Y-148403428D01*
X219269476Y-148427238D01*
X219293285Y-148451047D01*
X219317095Y-148498666D01*
X219317095Y-148689142D01*
X219555190Y-147927238D02*
X219555190Y-148212952D01*
X219555190Y-148070095D02*
X219055190Y-148070095D01*
X219126619Y-148117714D01*
X219174238Y-148165333D01*
X219198047Y-148212952D01*
X219055190Y-147474857D02*
X219055190Y-147712952D01*
X219293285Y-147736761D01*
X219269476Y-147712952D01*
X219245666Y-147665333D01*
X219245666Y-147546285D01*
X219269476Y-147498666D01*
X219293285Y-147474857D01*
X219340904Y-147451047D01*
X219459952Y-147451047D01*
X219507571Y-147474857D01*
X219531380Y-147498666D01*
X219555190Y-147546285D01*
X219555190Y-147665333D01*
X219531380Y-147712952D01*
X219507571Y-147736761D01*
D10*
X251864761Y-81787619D02*
X251912380Y-81644761D01*
X251912380Y-81406666D01*
X251864761Y-81311428D01*
X251817142Y-81263809D01*
X251721904Y-81216190D01*
X251626666Y-81216190D01*
X251531428Y-81263809D01*
X251483809Y-81311428D01*
X251436190Y-81406666D01*
X251388571Y-81597142D01*
X251340952Y-81692380D01*
X251293333Y-81740000D01*
X251198095Y-81787619D01*
X251102857Y-81787619D01*
X251007619Y-81740000D01*
X250960000Y-81692380D01*
X250912380Y-81597142D01*
X250912380Y-81359047D01*
X250960000Y-81216190D01*
X250912380Y-80882857D02*
X251912380Y-80644761D01*
X251198095Y-80454285D01*
X251912380Y-80263809D01*
X250912380Y-80025714D01*
X252007619Y-79882857D02*
X252007619Y-79120952D01*
X251912380Y-78311428D02*
X251436190Y-78644761D01*
X251912380Y-78882857D02*
X250912380Y-78882857D01*
X250912380Y-78501904D01*
X250960000Y-78406666D01*
X251007619Y-78359047D01*
X251102857Y-78311428D01*
X251245714Y-78311428D01*
X251340952Y-78359047D01*
X251388571Y-78406666D01*
X251436190Y-78501904D01*
X251436190Y-78882857D01*
X251864761Y-77501904D02*
X251912380Y-77597142D01*
X251912380Y-77787619D01*
X251864761Y-77882857D01*
X251769523Y-77930476D01*
X251388571Y-77930476D01*
X251293333Y-77882857D01*
X251245714Y-77787619D01*
X251245714Y-77597142D01*
X251293333Y-77501904D01*
X251388571Y-77454285D01*
X251483809Y-77454285D01*
X251579047Y-77930476D01*
X251864761Y-76644761D02*
X251912380Y-76740000D01*
X251912380Y-76930476D01*
X251864761Y-77025714D01*
X251769523Y-77073333D01*
X251388571Y-77073333D01*
X251293333Y-77025714D01*
X251245714Y-76930476D01*
X251245714Y-76740000D01*
X251293333Y-76644761D01*
X251388571Y-76597142D01*
X251483809Y-76597142D01*
X251579047Y-77073333D01*
X251912380Y-75740000D02*
X250912380Y-75740000D01*
X251864761Y-75740000D02*
X251912380Y-75835238D01*
X251912380Y-76025714D01*
X251864761Y-76120952D01*
X251817142Y-76168571D01*
X251721904Y-76216190D01*
X251436190Y-76216190D01*
X251340952Y-76168571D01*
X251293333Y-76120952D01*
X251245714Y-76025714D01*
X251245714Y-75835238D01*
X251293333Y-75740000D01*
X255039761Y-79438333D02*
X255087380Y-79295476D01*
X255087380Y-79057380D01*
X255039761Y-78962142D01*
X254992142Y-78914523D01*
X254896904Y-78866904D01*
X254801666Y-78866904D01*
X254706428Y-78914523D01*
X254658809Y-78962142D01*
X254611190Y-79057380D01*
X254563571Y-79247857D01*
X254515952Y-79343095D01*
X254468333Y-79390714D01*
X254373095Y-79438333D01*
X254277857Y-79438333D01*
X254182619Y-79390714D01*
X254135000Y-79343095D01*
X254087380Y-79247857D01*
X254087380Y-79009761D01*
X254135000Y-78866904D01*
X254087380Y-78533571D02*
X255087380Y-78295476D01*
X254373095Y-78105000D01*
X255087380Y-77914523D01*
X254087380Y-77676428D01*
X254087380Y-77390714D02*
X254087380Y-76771666D01*
X254468333Y-77105000D01*
X254468333Y-76962142D01*
X254515952Y-76866904D01*
X254563571Y-76819285D01*
X254658809Y-76771666D01*
X254896904Y-76771666D01*
X254992142Y-76819285D01*
X255039761Y-76866904D01*
X255087380Y-76962142D01*
X255087380Y-77247857D01*
X255039761Y-77343095D01*
X254992142Y-77390714D01*
M02*
